<svg width="32" height="32" viewBox="0 0 32 32" fill="none" xmlns="http://www.w3.org/2000/svg">
<g clip-path="url(#clip0_34_1177)">
<path d="M7.01467 -0.0852378C7.50002 -0.000276826 7.50002 -0.000276834 8.12502 0.374723C8.67104 1.28474 8.57008 1.94886 8.50002 2.99972C9.32502 2.99972 10.15 2.99972 11 2.99972C10.9846 2.69035 10.9691 2.38097 10.9531 2.06222C10.9591 1.3946 10.9988 1.0029 11.25 0.374723C11.9015 -0.113912 12.4628 -0.141285 13.2647 -0.0940268C13.75 -0.000276826 13.75 -0.000276834 14.375 0.374723C14.921 1.28474 14.8201 1.94886 14.75 2.99972C15.575 2.99972 16.4 2.99972 17.25 2.99972C17.2294 2.69035 17.2088 2.38097 17.1875 2.06222C17.1929 1.30909 17.2265 1.03885 17.625 0.374723C18.5718 -0.193366 19.153 -0.139585 20.25 -0.000276826C20.75 0.374723 20.75 0.374723 21 0.999723C21.0558 1.67985 21.0343 2.31464 21 2.99972C21.825 2.99972 22.65 2.99972 23.5 2.99972C23.4794 2.69035 23.4588 2.38097 23.4375 2.06222C23.4429 1.30909 23.4765 1.03885 23.875 0.374723C24.8141 -0.18875 25.4115 -0.121227 26.5 -0.000276826C26.9336 0.308317 26.9336 0.308317 27.25 0.749723C27.3233 1.31515 27.3233 1.31515 27.2969 1.9216C27.2867 2.22469 27.2867 2.22469 27.2764 2.5339C27.2633 2.76448 27.2633 2.76448 27.25 2.99972C27.416 2.98812 27.582 2.97652 27.753 2.96457C29.5654 2.89048 29.5654 2.89048 30.5157 3.45285C31.1897 4.21392 31.2812 4.81936 31.2851 5.79958C31.2866 6.01337 31.288 6.22715 31.2895 6.44742C31.2899 6.79809 31.2899 6.79809 31.2903 7.15585C31.2922 7.52608 31.2922 7.52608 31.2941 7.90378C31.2977 8.72157 31.2994 9.53935 31.3008 10.3571C31.3022 10.9248 31.3037 11.4924 31.3051 12.0601C31.3078 13.2509 31.3092 14.4416 31.3101 15.6324C31.3115 17.1588 31.3175 18.6852 31.3246 20.2116C31.3292 21.3843 31.3305 22.557 31.3309 23.7297C31.3317 24.2925 31.3337 24.8552 31.337 25.418C31.3412 26.205 31.3408 26.9919 31.3391 27.7789C31.3414 28.0117 31.3437 28.2444 31.3461 28.4843C31.3362 30.014 31.1112 30.8885 30 31.9997C29.504 32.064 29.504 32.064 28.8836 32.0666C28.5314 32.0698 28.5314 32.0698 28.172 32.073C27.9136 32.0728 27.6551 32.0726 27.3888 32.0724C26.9815 32.0749 26.9815 32.0749 26.5659 32.0774C25.6644 32.0822 24.7629 32.0832 23.8614 32.0837C23.2367 32.0853 22.612 32.087 21.9874 32.0887C20.6764 32.0917 19.3654 32.0927 18.0543 32.0924C16.5391 32.0921 15.0239 32.0973 13.5087 32.1052C12.0513 32.1126 10.5939 32.1144 9.13653 32.1141C8.51633 32.1147 7.89614 32.1169 7.27596 32.1207C6.4092 32.1256 5.54268 32.1242 4.67593 32.1212C4.41849 32.124 4.16105 32.1268 3.89581 32.1297C2.16209 32.1143 2.16209 32.1143 1.3484 31.539C0.838929 30.7504 0.718586 30.1173 0.714912 29.1999C0.712771 28.8792 0.712771 28.8792 0.710587 28.552C0.710307 28.3182 0.710028 28.0845 0.70974 27.8436C0.708498 27.5968 0.707257 27.35 0.705978 27.0957C0.702322 26.2779 0.700622 25.4601 0.699242 24.6423C0.697804 24.0747 0.696364 23.507 0.694923 22.9394C0.692296 21.7486 0.690835 20.5578 0.689964 19.367C0.688592 17.8406 0.682584 16.3143 0.675471 14.7879C0.670818 13.6152 0.669513 12.4425 0.66913 11.2698C0.668373 10.707 0.666364 10.1442 0.663084 9.58146C0.658825 8.79445 0.659288 8.00757 0.660912 7.22055C0.658608 6.98778 0.656304 6.75501 0.653931 6.51518C0.661735 5.30887 0.696661 4.46811 1.50002 3.49972C2.32845 2.94744 2.58617 2.94352 3.5469 2.96847C3.77216 2.97299 3.99743 2.9775 4.22952 2.98215C4.40128 2.98795 4.57305 2.99375 4.75002 2.99972C4.74132 2.846 4.73262 2.69228 4.72366 2.5339C4.71689 2.33184 4.71012 2.12978 4.70315 1.9216C4.69445 1.72147 4.68575 1.52134 4.67678 1.31515C4.75002 0.749723 4.75002 0.749723 5.06643 0.308317C5.68381 -0.13108 6.27473 -0.119305 7.01467 -0.0852378ZM6.00002 1.24972C6.00002 2.73472 6.00002 4.21972 6.00002 5.74972C6.33002 5.83222 6.66002 5.91472 7.00002 5.99972C7.361 5.69615 7.361 5.69615 7.27444 4.79562C7.27277 4.40011 7.26978 4.0046 7.26565 3.6091C7.26452 3.40752 7.26339 3.20594 7.26223 2.99826C7.25927 2.49874 7.25479 1.99923 7.25002 1.49972C6.83752 1.41722 6.42502 1.33472 6.00002 1.24972ZM12.5 1.24972C12.1391 1.5533 12.1391 1.5533 12.2256 2.45382C12.2273 2.84934 12.2303 3.24485 12.2344 3.64035C12.2355 3.84193 12.2367 4.0435 12.2378 4.25119C12.2408 4.75071 12.2453 5.25022 12.25 5.74972C12.7365 5.8974 12.7365 5.8974 13.25 5.99972C13.611 5.69615 13.611 5.69615 13.5244 4.79562C13.5228 4.40011 13.5198 4.0046 13.5156 3.6091C13.5145 3.40752 13.5134 3.20594 13.5122 2.99826C13.5093 2.49874 13.5048 1.99923 13.5 1.49972C13.0135 1.35205 13.0135 1.35205 12.5 1.24972ZM18.75 1.24972C18.3891 1.5533 18.3891 1.5533 18.4756 2.45382C18.4773 2.84934 18.4803 3.24485 18.4844 3.64035C18.4855 3.84193 18.4867 4.0435 18.4878 4.25119C18.4908 4.75071 18.4953 5.25022 18.5 5.74972C18.9865 5.8974 18.9865 5.8974 19.5 5.99972C19.861 5.69615 19.861 5.69615 19.7744 4.79562C19.7728 4.40011 19.7698 4.0046 19.7656 3.6091C19.7645 3.40752 19.7634 3.20594 19.7622 2.99826C19.7593 2.49874 19.7548 1.99923 19.75 1.49972C19.2635 1.35205 19.2635 1.35205 18.75 1.24972ZM25 1.24972C24.6391 1.5533 24.6391 1.5533 24.7256 2.45382C24.7273 2.84934 24.7303 3.24485 24.7344 3.64035C24.7355 3.84193 24.7367 4.0435 24.7378 4.25119C24.7408 4.75071 24.7453 5.25022 24.75 5.74972C25.2365 5.8974 25.2365 5.8974 25.75 5.99972C26.0484 5.75639 26.0484 5.75639 26.0284 5.30826C26.0271 5.12104 26.0258 4.93382 26.0244 4.74093C26.0236 4.53871 26.0228 4.33649 26.022 4.12814C26.0199 3.91561 26.0178 3.70307 26.0157 3.4841C26.014 3.16385 26.014 3.16385 26.0122 2.83713C26.0093 2.30798 26.0048 1.77885 26 1.24972C25.67 1.24972 25.34 1.24972 25 1.24972ZM2.00002 4.99972C2.00002 6.15472 2.00002 7.30972 2.00002 8.49972C11.24 8.49972 20.48 8.49972 30 8.49972C30 7.34472 30 6.18972 30 4.99972C29.3642 4.21401 29.3642 4.21401 28.7393 4.17648C28.5624 4.18518 28.3854 4.19388 28.2032 4.20285C27.8886 4.21832 27.5741 4.23379 27.25 4.24972C27.1675 5.07472 27.085 5.89972 27 6.74972C24.9394 7.11336 24.9394 7.11336 24.125 6.62472C23.6517 5.83586 23.57 5.15971 23.5 4.24972C22.675 4.24972 21.85 4.24972 21 4.24972C20.9742 4.56425 20.9485 4.87879 20.9219 5.20285C20.8399 5.82922 20.7781 6.20252 20.4531 6.74972C19.7669 7.12836 19.27 7.09401 18.5 6.99972C17.9219 6.74972 17.9219 6.74972 17.5 6.24972C17.3414 5.57397 17.2958 4.94729 17.25 4.24972C16.425 4.24972 15.6 4.24972 14.75 4.24972C14.7294 4.56425 14.7088 4.87879 14.6875 5.20285C14.5948 5.92022 14.5543 6.18545 14.0781 6.74972C13.3278 7.07419 12.8095 7.10307 12 6.99972C11.5469 6.74972 11.5469 6.74972 11.25 6.24972C11.1152 5.57943 11.0561 4.9339 11 4.24972C10.175 4.24972 9.35002 4.24972 8.50002 4.24972C8.43299 4.61066 8.36596 4.9716 8.2969 5.34347C8.18264 5.95871 8.18264 5.95871 8.00002 6.49972C7.13184 7.07851 6.76817 7.06336 5.75002 6.99972C5.50252 6.91722 5.25502 6.83472 5.00002 6.74972C4.91752 5.92472 4.83502 5.09972 4.75002 4.24972C4.27823 4.22652 4.27823 4.22652 3.7969 4.20285C3.61997 4.19415 3.44305 4.18545 3.26077 4.17648C2.63584 4.21401 2.63584 4.21401 2.00002 4.99972ZM2.00002 9.74972C1.98971 13.0755 1.9794 16.4013 1.96877 19.8278C1.96422 20.8782 1.95967 21.9286 1.95498 23.0108C1.95331 23.9518 1.95331 23.9518 1.9523 24.8928C1.95153 25.3122 1.94977 25.7315 1.94724 26.1509C1.94358 26.7858 1.94307 27.4207 1.94326 28.0557C1.94146 28.2427 1.93966 28.4297 1.93781 28.6224C1.94156 29.5542 1.96904 29.9532 2.50002 30.7497C3.18779 30.979 3.59319 31.0316 4.30156 31.0332C4.51571 31.0342 4.72986 31.0353 4.95049 31.0364C5.18467 31.0363 5.41885 31.0362 5.66012 31.036C6.03095 31.0373 6.03095 31.0373 6.40927 31.0386C7.22826 31.041 8.04724 31.0414 8.86623 31.0417C9.43448 31.0425 10.0027 31.0434 10.571 31.0442C11.7628 31.0457 12.9546 31.0462 14.1464 31.046C15.6751 31.046 17.2037 31.0494 18.7324 31.0537C19.9062 31.0565 21.0799 31.057 22.2537 31.0569C22.8174 31.0572 23.3811 31.0583 23.9447 31.0602C24.7324 31.0627 25.5199 31.062 26.3076 31.0605C26.5413 31.0619 26.7749 31.0633 27.0157 31.0647C27.2305 31.0637 27.4454 31.0626 27.6667 31.0615C27.946 31.0617 27.946 31.0617 28.2308 31.0619C28.8352 30.9895 29.2339 30.8193 29.75 30.4997C30.1341 29.7316 30.0324 28.9267 30.0284 28.0841C30.0285 27.7829 30.0285 27.7829 30.0285 27.4756C30.0283 26.8242 30.0264 26.1727 30.0244 25.5212C30.0241 25.1196 30.0238 24.718 30.0237 24.3164C30.0224 22.8254 30.0189 21.3345 30.0157 19.8435C30.0105 16.5125 30.0053 13.1816 30 9.74972C20.76 9.74972 11.52 9.74972 2.00002 9.74972Z" fill="#58351B"/>
<path d="M16.25 11C16.0313 12.1875 16.0313 12.1875 15.75 12.75C15.982 12.7294 16.2141 12.7088 16.4531 12.6875C18.5234 12.7 20.4384 13.6838 21.9981 14.9863C23.6936 16.7214 24.4951 18.7884 24.5938 21.1875C24.5457 23.5882 23.6968 25.7806 22 27.5C19.9771 29.1794 17.888 29.9137 15.2637 29.8369C12.9345 29.5718 10.8239 28.5436 9.32032 26.7324C7.77526 24.5587 7.19424 22.4136 7.50001 19.75C7.90386 18.0825 8.49706 16.6887 9.75001 15.5C9.99751 15.5 10.245 15.5 10.5 15.5C10.75 16.25 10.75 16.25 10.4551 16.8896C10.3152 17.1272 10.1754 17.3647 10.0313 17.6094C8.97723 19.411 8.64584 21.0833 9.16212 23.1484C9.85684 25.0723 10.955 26.6524 12.7969 27.6094C14.5801 28.4193 16.5004 28.5173 18.3906 28C20.1124 27.3498 21.5304 26.0687 22.375 24.4375C23.2076 22.5718 23.3019 20.6277 22.5938 18.7031C21.6772 16.6656 20.3491 15.3197 18.25 14.5C17.4852 14.3436 16.7836 14.2873 16 14.25C16.1254 14.3625 16.2507 14.4749 16.3799 14.5908C16.5631 14.7934 16.5631 14.7934 16.75 15C16.6719 15.5469 16.6719 15.5469 16.5 16C15.4569 15.8703 14.9365 15.5721 14.1719 14.8594C13.9975 14.6992 13.8232 14.539 13.6436 14.374C13.5137 14.2506 13.3838 14.1272 13.25 14C13.7139 12.4691 14.5813 11 16.25 11Z" fill="#58351B"/>
<path d="M15.75 16.5C15.9975 16.5825 16.245 16.665 16.5 16.75C16.5 18.07 16.5 19.39 16.5 20.75C17.82 20.75 19.14 20.75 20.5 20.75C20.5 21.08 20.5 21.41 20.5 21.75C20.1195 22.1305 19.7795 22.0324 19.25 22.0332C19.0489 22.0335 18.8478 22.0338 18.6406 22.0342C18.4292 22.0332 18.2178 22.0322 18 22.0312C17.7886 22.0322 17.5772 22.0332 17.3594 22.0342C17.1583 22.0339 16.9572 22.0335 16.75 22.0332C16.5644 22.0329 16.3787 22.0326 16.1875 22.0323C15.75 22 15.75 22 15.5 21.75C15.4753 21.3809 15.4673 21.0106 15.4668 20.6406C15.4665 20.417 15.4662 20.1933 15.4658 19.9629C15.4673 19.61 15.4673 19.61 15.4688 19.25C15.4678 19.0147 15.4668 18.7795 15.4658 18.5371C15.4661 18.3135 15.4665 18.0898 15.4668 17.8594C15.4672 17.5495 15.4672 17.5495 15.4677 17.2334C15.5 16.75 15.5 16.75 15.75 16.5Z" fill="#58351B"/>
</g>
<defs>
<clipPath id="clip0_34_1177">
<rect width="32" height="32" fill="white"/>
</clipPath>
</defs>
</svg>
