<svg width="32" height="32" viewBox="0 0 32 32" fill="none" xmlns="http://www.w3.org/2000/svg">
<path d="M30 18H20V24.468C20.0023 25.4145 20.2721 26.3411 20.7783 27.1408C21.2845 27.9406 22.0065 28.5809 22.861 28.988L25 30L27.139 28.987C27.9935 28.5799 28.7155 27.9396 29.2217 27.1398C29.7279 26.3401 29.9977 25.4135 30 24.467V18ZM25 27.786L23.717 27.179C23.2042 26.9351 22.7709 26.5511 22.4671 26.0714C22.1633 25.5917 22.0013 25.0358 22 24.468V20H28V24.468C27.9985 25.0357 27.8364 25.5913 27.5326 26.0708C27.2288 26.5503 26.7956 26.9342 26.283 27.178L25 27.786ZM17 18H5C4.46957 18 3.96086 18.2107 3.58579 18.5858C3.21071 18.9609 3 19.4696 3 20V25C3 25.5304 3.21071 26.0391 3.58579 26.4142C3.96086 26.7893 4.46957 27 5 27H17V25H5V20H17V18ZM27 4H22C21.4696 4 20.9609 4.21071 20.5858 4.58579C20.2107 4.96086 20 5.46957 20 6V15H22V6H27V15H29V6C29 5.46957 28.7893 4.96086 28.4142 4.58579C28.0391 4.21071 27.5304 4 27 4ZM15 4H5C4.46957 4 3.96086 4.21071 3.58579 4.58579C3.21071 4.96086 3 5.46957 3 6V13C3 13.5304 3.21071 14.0391 3.58579 14.4142C3.96086 14.7893 4.46957 15 5 15H15C15.5304 15 16.0391 14.7893 16.4142 14.4142C16.7893 14.0391 17 13.5304 17 13V6C17 5.46957 16.7893 4.96086 16.4142 4.58579C16.0391 4.21071 15.5304 4 15 4ZM5 13V6H15V13H5Z" fill="#58351B"/>
</svg>
