<svg width="208" height="36" viewBox="0 0 208 36" fill="none" xmlns="http://www.w3.org/2000/svg">
<path d="M144.74 0.18457V35.9721C143.468 35.9976 142.31 35.9976 140.854 35.9976C139.258 33.3709 137.706 30.5216 136.198 27.7678C135.13 25.7898 134.03 23.7483 132.923 21.853C132.211 20.5238 131.454 19.2009 130.71 17.9289C129.279 15.404 127.784 12.8028 126.601 10.1252L126.029 8.85322L125.418 10.0998C122.594 15.8874 119.383 21.605 116.279 27.1318C114.664 29.9938 113.004 32.9575 111.401 35.8958C110.072 35.934 108.749 35.9467 107.49 35.9467C107.477 27.9395 107.477 19.9132 107.49 11.8869V0.18457H110.574C110.574 3.23736 110.574 6.30923 110.587 9.38109C110.587 15.8301 110.6 22.5017 110.536 29.0716L110.511 31.6728L111.757 29.3959C116.215 21.217 120.235 13.8585 124.318 6.52546L124.331 6.48731L124.343 6.44915C124.63 5.73683 125.412 5.48879 125.997 5.48879C126.582 5.48879 127.339 5.73683 127.638 6.42371L127.651 6.44915L127.663 6.48731C132.192 14.4564 136.675 22.559 140.523 29.5168L141.783 31.8191L141.744 29.1924C141.63 22.9914 141.643 16.6823 141.655 10.5704C141.668 7.11058 141.668 3.65076 141.655 0.190936H144.753L144.74 0.18457Z" fill="black"/>
<path d="M31.1569 19.4427V32.328C27.6207 34.6939 23.2387 35.9977 18.7676 35.9977C14.8117 35.9977 11.0594 34.9992 7.89846 33.0976C3.67544 30.5472 0.851609 25.9871 0.158372 20.5748C-0.566665 14.7872 1.22685 9.0696 4.94107 5.2727C8.25462 2.07364 13.12 0.229248 18.2716 0.229248C22.9016 0.229248 27.2582 1.66024 30.5972 4.27419C30.3364 4.58583 30.063 4.88475 29.8022 5.19638C29.4778 5.57162 29.1535 5.9405 28.8291 6.32846C28.5048 6.16946 28.1804 5.99138 27.8433 5.81966C26.7494 5.24726 25.6046 4.66215 24.4217 4.26147C22.5073 3.60003 20.4785 3.27567 18.3988 3.27567C16.5671 3.27567 14.7418 3.53643 12.9992 4.04523C8.97965 5.27907 5.78058 8.64985 4.63579 12.822C2.95676 18.6477 3.80263 26.4005 9.48845 30.6363C12.0388 32.3916 15.187 33.3265 18.5896 33.3265C21.6869 33.3265 24.8732 32.5188 27.5889 31.0751L27.9387 30.8907L27.926 30.5027C27.9133 28.3848 27.9133 26.2797 27.9133 24.1682V21.9422L27.29 21.9295C25.5983 21.8659 23.3786 21.815 21.089 21.7578V21.5352C21.089 20.8992 21.1018 20.1296 21.089 19.4554C23.2324 19.4427 25.3566 19.4427 27.4744 19.4427H31.1569Z" fill="black"/>
<path d="M59.0455 32.8495V35.7751H39.3232V0.0129395H43.012V32.8495H59.0455Z" fill="black"/>
<path d="M90.6229 4.49008C87.6083 1.77438 83.3789 0.279785 78.7234 0.279785C77.0189 0.279785 75.3272 0.476943 73.6927 0.864901C70.6399 1.64718 67.8415 3.24353 65.8381 5.3932C59.936 11.6578 59.3891 22.2217 64.5788 29.4085C67.6189 33.4788 72.8913 35.9211 78.6852 35.9211C84.4792 35.9211 89.8661 33.4343 92.8998 29.2622C98.3248 21.6302 97.2945 10.513 90.6229 4.49008ZM89.6053 27.8439C87.303 31.0811 83.2199 33.0209 78.698 33.0209C74.176 33.0209 70.182 31.1384 67.8415 27.9647C64.2163 23.0739 64.7315 17.0129 65.3738 13.8329C66.3723 8.77671 70.1692 4.71905 74.812 3.73961C76.1667 3.44069 77.515 3.29442 78.857 3.29442C82.0687 3.29442 84.9053 4.16572 87.0486 5.81932C89.9742 7.96263 91.9013 11.6196 92.3147 15.8426C92.639 19.2007 92.4419 23.9961 89.6117 27.8439H89.6053Z" fill="black"/>
<path d="M193.546 0C193.559 8.00721 193.546 16.0462 193.546 24.0725V35.7748H190.462C190.474 32.2641 190.462 28.7153 190.449 25.2682C190.436 19.2198 190.424 12.968 190.538 6.81789L190.589 4.15306L189.317 6.49354C185.844 12.8917 182.283 19.3788 178.823 25.6498L176.858 29.2368L176.82 29.2877L176.807 29.3513C176.546 30.159 175.7 30.5088 174.988 30.5088C174.702 30.5088 173.754 30.4452 173.392 29.5484L173.379 29.5103L173.353 29.4721C168.997 21.732 164.678 13.9729 160.506 6.41721L159.221 4.08947L159.285 6.74157C159.431 12.8662 159.4 19.1054 159.387 25.141C159.374 28.6262 159.361 32.226 159.387 35.7748H156.29V0H157.046L158.452 0.0127227C159.037 0.0127227 159.622 0 160.195 0C162.052 3.18635 163.877 6.48718 165.645 9.67352C166.917 11.9631 168.183 14.2527 169.467 16.4978C169.963 17.42 170.479 18.3167 170.987 19.2262C172.196 21.3441 173.455 23.5446 174.409 25.8342L174.994 27.2143L175.605 25.8469C176.972 22.8069 178.645 19.8368 180.26 16.9811C181.157 15.3975 182.092 13.7439 182.951 12.1157C183.885 10.4876 184.795 8.78948 185.666 7.13589C186.938 4.74454 188.255 2.27051 189.686 0H193.546Z" fill="black"/>
<path d="M207.239 0.0129395V35.7751H203.519V27.1509C203.519 18.1007 203.519 9.06318 203.532 0.0129395H207.239Z" fill="black"/>
</svg>
