<svg width="24" height="24" viewBox="0 0 24 24" fill="none" xmlns="http://www.w3.org/2000/svg">
<path d="M12 2C10.9391 2 9.92172 2.42143 9.17157 3.17157C8.42143 3.92172 8 4.93913 8 6C8 7.06087 8.42143 8.07828 9.17157 8.82843C9.92172 9.57857 10.9391 10 12 10C13.0609 10 14.0783 9.57857 14.8284 8.82843C15.5786 8.07828 16 7.06087 16 6C16 4.93913 15.5786 3.92172 14.8284 3.17157C14.0783 2.42143 13.0609 2 12 2ZM10 6C10 5.46957 10.2107 4.96086 10.5858 4.58579C10.9609 4.21071 11.4696 4 12 4C12.5304 4 13.0391 4.21071 13.4142 4.58579C13.7893 4.96086 14 5.46957 14 6C14 6.53043 13.7893 7.03914 13.4142 7.41421C13.0391 7.78929 12.5304 8 12 8C11.4696 8 10.9609 7.78929 10.5858 7.41421C10.2107 7.03914 10 6.53043 10 6ZM17 12H7C6.20435 12 5.44129 12.3161 4.87868 12.8787C4.31607 13.4413 4 14.2044 4 15C4 17.232 4.918 19.02 6.424 20.23C7.906 21.42 9.894 22 12 22C14.106 22 16.094 21.42 17.576 20.23C19.08 19.02 20 17.232 20 15C20 14.2044 19.6839 13.4413 19.1213 12.8787C18.5587 12.3161 17.7956 12 17 12ZM7 14H17C17.2652 14 17.5196 14.1054 17.7071 14.2929C17.8946 14.4804 18 14.7348 18 15C18 16.634 17.35 17.846 16.324 18.67C15.272 19.514 13.76 20 12 20C10.24 20 8.728 19.514 7.676 18.67C6.65 17.846 6 16.634 6 15C6 14.7348 6.10536 14.4804 6.29289 14.2929C6.48043 14.1054 6.73478 14 7 14Z" fill="#B5B99D"/>
</svg>
