<svg width="32" height="28" viewBox="0 0 32 28" fill="none" xmlns="http://www.w3.org/2000/svg">
<path d="M16.019 9.98236C16.3373 9.97964 16.6556 9.97692 16.9835 9.97412C17.495 9.97674 17.495 9.97674 18.0169 9.97941C18.3693 9.97859 18.7216 9.97776 19.0847 9.97691C19.8289 9.97633 20.5728 9.97748 21.317 9.98152C22.2695 9.98644 23.2216 9.9836 24.1741 9.97844C25.0848 9.97457 25.9955 9.97728 26.9063 9.97941C27.4187 9.97679 27.4187 9.97679 27.9414 9.97412C28.4175 9.9782 28.4175 9.9782 28.9032 9.98236C29.3217 9.98339 29.3217 9.98339 29.7487 9.98444C30.6872 10.124 31.0172 10.3989 31.6144 10.9567C31.9733 11.5053 31.9363 11.8947 31.9421 12.5089C31.9448 12.7428 31.9475 12.9768 31.9503 13.2179C31.9515 13.4718 31.9527 13.7256 31.9539 13.9872C31.9555 14.2473 31.9571 14.5075 31.9588 14.7755C31.9615 15.3268 31.9633 15.8782 31.9644 16.4295C31.9671 17.2731 31.9759 18.1165 31.9848 18.9601C31.9866 19.4952 31.9881 20.0303 31.9892 20.5654C31.9927 20.818 31.9962 21.0706 31.9997 21.3308C31.9989 21.5668 31.998 21.8028 31.9972 22.046C31.9987 22.3565 31.9987 22.3565 32.0003 22.6734C31.8759 23.3658 31.5952 23.7714 31.05 24.3289C30.2916 24.5041 30.2916 24.5041 29.639 24.5446C29.6455 24.7108 29.6521 24.8771 29.6588 25.0484C29.6639 25.2647 29.669 25.481 29.6743 25.7039C29.6808 25.919 29.6873 26.1342 29.6941 26.356C29.639 26.9171 29.639 26.9171 29.0746 27.3484C28.2853 27.4554 28.2853 27.4554 27.3814 27.3484C26.8358 26.9296 26.3784 26.5262 25.8998 26.0678C24.7748 25.1078 23.8916 24.6074 22.1864 24.5013C21.0926 24.4832 20.0079 24.5047 18.9153 24.5446C18.2451 24.5595 17.5753 24.5706 16.9049 24.5772C16.4913 24.5823 16.0779 24.5926 15.6649 24.6088C14.7545 24.6288 14.2378 24.6142 13.5016 24.1867C12.861 23.5557 12.8448 23.2221 12.8386 22.4295C12.8341 22.1776 12.8296 21.9256 12.825 21.6661C12.8264 21.3949 12.8278 21.1237 12.8293 20.8443C12.8275 20.5651 12.8258 20.2859 12.824 19.9983C12.821 19.408 12.8223 18.8177 12.8264 18.2274C12.8313 17.4716 12.8247 16.7161 12.8147 15.9603C12.807 15.2383 12.8099 14.5163 12.8116 13.7943C12.8079 13.5231 12.8041 13.2519 12.8003 12.9725C12.8038 12.7206 12.8074 12.4686 12.811 12.2091C12.8113 11.9875 12.8116 11.766 12.8118 11.5378C12.9891 10.9567 12.9891 10.9567 13.6046 10.4541C14.4995 10.049 14.9873 9.9849 16.019 9.98236ZM14.6823 11.1724C14.0636 11.8817 14.0468 12.0924 14.0449 12.9156C14.0431 13.1387 14.0413 13.3618 14.0395 13.5916C14.0406 13.8323 14.0418 14.0729 14.043 14.3208C14.0424 14.5678 14.0419 14.8148 14.0413 15.0693C14.0409 15.5916 14.042 16.114 14.0443 16.6363C14.0474 17.4381 14.0444 18.2399 14.0407 19.0418C14.0411 19.5485 14.0418 20.0553 14.043 20.5621C14.0418 20.8031 14.0407 21.0442 14.0395 21.2926C14.0413 21.515 14.043 21.7374 14.0449 21.9666C14.0453 22.1629 14.0458 22.3592 14.0462 22.5615C14.0597 23.0797 14.0597 23.0797 14.6823 23.4662C15.4038 23.5008 16.0976 23.5103 16.8187 23.5024C17.2567 23.5036 17.6947 23.5052 18.1327 23.507C18.822 23.5079 19.5108 23.5067 20.2001 23.4995C24.5289 23.4615 24.5289 23.4615 25.9505 24.4148C26.2465 24.669 26.5362 24.9276 26.817 25.1916C27.2844 25.4819 27.7533 25.7709 28.228 26.0543C28.228 25.2714 28.228 24.4885 28.228 23.6819C28.5481 23.6552 28.8682 23.6285 29.198 23.601C29.5298 23.5565 29.8616 23.512 30.2034 23.4662C30.5581 22.924 30.5233 22.5501 30.5266 21.9434C30.5284 21.7159 30.5302 21.4885 30.532 21.2542C30.5323 21.0077 30.5327 20.7612 30.533 20.5073C30.5339 20.2552 30.5349 20.0031 30.5358 19.7434C30.5373 19.2096 30.5379 18.6759 30.5379 18.1421C30.5385 17.3227 30.5436 16.5034 30.549 15.684C30.5498 15.1664 30.5504 14.6488 30.5506 14.1313C30.5526 13.8848 30.5547 13.6383 30.5568 13.3844C30.5555 13.0433 30.5555 13.0433 30.5541 12.6952C30.5545 12.4944 30.5549 12.2936 30.5554 12.0867C30.5459 11.56 30.5459 11.56 29.9212 11.1724C29.252 11.1048 29.252 11.1048 28.4672 11.1132C28.164 11.1111 27.8607 11.109 27.5483 11.1069C27.2197 11.1071 26.891 11.1073 26.5524 11.1075C26.2163 11.1066 25.8802 11.1057 25.5339 11.1047C24.8222 11.1035 24.1105 11.1034 23.3989 11.1043C22.3063 11.105 21.2139 11.0999 20.1213 11.0945C19.4312 11.094 18.7412 11.0938 18.0511 11.094C17.7224 11.0921 17.3938 11.0901 17.0552 11.088C16.752 11.0894 16.4487 11.0907 16.1363 11.0921C15.8686 11.092 15.6008 11.0918 15.3249 11.0917C15.0068 11.1316 15.0068 11.1316 14.6823 11.1724Z" fill="black"/>
<path d="M2.9189 0.00816112C3.24872 0.00546795 3.57854 0.00277478 3.91836 0C4.27341 0.00284898 4.62846 0.00569796 4.99428 0.00863327C5.35979 0.00811498 5.72531 0.00759669 6.10191 0.00706269C6.87485 0.00644906 7.64757 0.0096021 8.42047 0.0155058C9.40999 0.0228301 10.3991 0.0215362 11.3886 0.0175123C12.334 0.0146919 13.2792 0.0186186 14.2246 0.0220635C14.7571 0.0204648 14.7571 0.0204648 15.3005 0.0188338C15.6303 0.0222368 15.9601 0.0256398 16.2999 0.0291459C16.735 0.0311439 16.735 0.0311439 17.1789 0.0331822C18.1474 0.173983 18.4831 0.407644 19.0691 1.00331C19.205 1.43299 19.205 1.43299 19.1974 1.88992C19.1973 2.06194 19.1972 2.23396 19.1971 2.41119C19.1913 2.59477 19.1854 2.77835 19.1794 2.96749C19.1778 3.15706 19.1762 3.34662 19.1746 3.54193C19.1683 4.14631 19.1541 4.75042 19.1397 5.35472C19.1341 5.7649 19.1289 6.17508 19.1243 6.58527C19.1118 7.58984 19.0924 8.59422 19.0691 9.59868C18.6964 9.59868 18.3237 9.59868 17.9396 9.59868C17.8464 6.83312 17.7532 4.06756 17.6572 1.2182C15.4959 1.21327 13.3347 1.20899 11.1734 1.20639C10.4377 1.20531 9.70194 1.20384 8.96621 1.20199C7.91063 1.19939 6.85507 1.19816 5.7995 1.19721C5.30356 1.19555 5.30356 1.19555 4.7976 1.19385C4.49235 1.19383 4.18711 1.19382 3.87262 1.1938C3.60298 1.19332 3.33335 1.19285 3.05554 1.19236C2.4002 1.18566 2.4002 1.18566 1.84398 1.43308C1.84398 5.26232 1.84398 9.09155 1.84398 13.0368C2.49627 13.2496 3.14857 13.4623 3.82064 13.6815C3.91382 14.3906 4.00701 15.0997 4.10301 15.8303C4.265 15.6597 4.42698 15.4891 4.59387 15.3133C6.4006 13.601 6.4006 13.601 7.88288 13.3546C9.45591 13.2573 11.0076 13.3443 12.5744 13.4666C12.7332 13.8829 12.7332 13.8829 12.8568 14.3261C12.7636 14.397 12.6704 14.468 12.5744 14.541C12.2581 14.5335 11.9418 14.5261 11.6159 14.5184C8.99394 14.4379 8.99394 14.4379 6.75143 15.3435C6.15662 15.7977 5.62821 16.2817 5.09576 16.778C4.3854 17.3345 4.3854 17.3345 3.62209 17.4545C2.9735 17.3345 2.9735 17.3345 2.40874 16.6899C2.35358 16.1568 2.35358 16.1568 2.37344 15.5751C2.37854 15.3815 2.38363 15.1879 2.38888 14.9884C2.39543 14.8408 2.40199 14.6931 2.40874 14.541C2.0855 14.4612 2.0855 14.4612 1.75573 14.3799C0.893442 14.0747 0.633373 13.8664 0.1497 13.2517C0.0402267 12.6987 0.0402267 12.6987 0.0356034 12.0665C0.0320216 11.8292 0.0284399 11.5918 0.0247496 11.3472C0.0255786 11.0918 0.0264075 10.8364 0.0272616 10.5732C0.0257814 10.3099 0.0243012 10.0466 0.0227762 9.77524C0.0209624 9.21837 0.0213419 8.66149 0.0237456 8.10462C0.0261473 7.25236 0.0180295 6.40042 0.00906135 5.5482C0.0086061 5.00721 0.00876932 4.46622 0.00961287 3.92523C0.00644063 3.67026 0.00326838 3.41528 0 3.15258C0.00264899 2.91451 0.00529798 2.67645 0.00802724 2.43117C0.00809763 2.11798 0.00809763 2.11798 0.00816943 1.79846C0.330309 0.477716 1.2195 0.00937195 2.9189 0.00816112Z" fill="black"/>
<path d="M8.05371 4.06397C8.06934 4.07959 8.08236 4.10042 8.09277 4.12647C8.10319 4.1473 8.1084 4.17074 8.1084 4.19678C8.11361 4.22282 8.111 4.24886 8.10059 4.2749C8.09538 4.29574 8.07715 4.30876 8.0459 4.31397C8.06673 4.3348 8.07194 4.35563 8.06152 4.37647C8.05111 4.39209 8.0459 4.41292 8.0459 4.43897C8.04069 4.49626 8.04069 4.55355 8.0459 4.61084C8.05111 4.66813 8.0485 4.72282 8.03809 4.7749C8.03288 4.80094 8.02506 4.82438 8.01465 4.84522C8.00423 4.86084 7.99381 4.87907 7.9834 4.8999C7.97298 4.92594 7.96256 4.94938 7.95215 4.97022C7.94173 4.99105 7.93131 5.00667 7.9209 5.01709C7.87923 5.04313 7.82715 5.04574 7.76465 5.0249C7.70215 5.00407 7.64486 5.00407 7.59277 5.0249C7.55111 4.99365 7.50944 4.98324 7.46777 4.99365C7.42611 5.00407 7.38184 4.99105 7.33496 4.95459C7.28809 4.97022 7.24121 4.97282 7.19434 4.9624C7.15267 4.95199 7.10579 4.94417 7.05371 4.93897C7.03809 4.93897 7.02246 4.94157 7.00684 4.94678C6.99121 4.95199 6.97559 4.95199 6.95996 4.94678C6.93392 4.94157 6.90788 4.93376 6.88184 4.92334C6.85579 4.90772 6.82975 4.8999 6.80371 4.8999C6.78288 4.89469 6.75944 4.8973 6.7334 4.90772C6.71256 4.91292 6.68913 4.91553 6.66309 4.91553H6.53027C6.45736 4.90511 6.38184 4.8973 6.30371 4.89209C6.22559 4.88688 6.13704 4.87907 6.03809 4.86865C5.95996 4.85824 5.87923 4.85303 5.7959 4.85303C5.71777 4.85303 5.63444 4.85824 5.5459 4.86865C5.51986 4.92074 5.50944 4.97542 5.51465 5.03272C5.52507 5.0848 5.53288 5.13949 5.53809 5.19678C5.54329 5.25407 5.5459 5.31136 5.5459 5.36865C5.55111 5.42594 5.55632 5.48324 5.56152 5.54053C5.56152 5.55615 5.55892 5.57438 5.55371 5.59522C5.5485 5.61084 5.5459 5.62647 5.5459 5.64209C5.5459 5.67334 5.5485 5.7124 5.55371 5.75928C5.55892 5.80615 5.56152 5.85042 5.56152 5.89209C5.56152 5.92855 5.55892 5.9624 5.55371 5.99365C5.5485 6.01969 5.55371 6.04834 5.56934 6.07959C5.61621 6.09522 5.66829 6.10303 5.72559 6.10303C5.76204 6.10824 5.7959 6.11084 5.82715 6.11084C5.86361 6.11084 5.89746 6.11084 5.92871 6.11084C5.986 6.10563 6.04069 6.10303 6.09277 6.10303C6.15006 6.10303 6.20736 6.10303 6.26465 6.10303C6.35319 6.10303 6.43913 6.10303 6.52246 6.10303C6.611 6.10303 6.70736 6.09782 6.81152 6.0874C6.8584 6.08219 6.90267 6.07699 6.94434 6.07178C6.99121 6.06136 7.03809 6.06917 7.08496 6.09522C7.111 6.0848 7.13704 6.07959 7.16309 6.07959C7.19434 6.07959 7.22298 6.07699 7.24902 6.07178C7.27506 6.06657 7.2959 6.06657 7.31152 6.07178C7.32715 6.07699 7.34798 6.07959 7.37402 6.07959C7.45736 6.07438 7.52246 6.07438 7.56934 6.07959C7.61621 6.0848 7.66048 6.0874 7.70215 6.0874C7.72819 6.08219 7.75163 6.07699 7.77246 6.07178C7.7985 6.06657 7.82194 6.06657 7.84277 6.07178C7.86881 6.07178 7.88184 6.08219 7.88184 6.10303C7.88704 6.11865 7.89486 6.13428 7.90527 6.1499C7.92611 6.19157 7.93652 6.23584 7.93652 6.28272C7.93652 6.32438 7.93392 6.37647 7.92871 6.43897C7.93392 6.46501 7.93131 6.49105 7.9209 6.51709C7.91569 6.53792 7.91309 6.55615 7.91309 6.57178C7.90788 6.63949 7.90788 6.70199 7.91309 6.75928C7.91829 6.81136 7.93131 6.86605 7.95215 6.92334C7.94173 6.94938 7.93131 6.97803 7.9209 7.00928C7.91048 7.03532 7.89486 7.05876 7.87402 7.07959C7.85319 7.07438 7.83496 7.07699 7.81934 7.0874C7.80371 7.09782 7.78809 7.10303 7.77246 7.10303C7.74642 7.10303 7.72559 7.10042 7.70996 7.09522C7.69434 7.0848 7.67611 7.07438 7.65527 7.06397C7.64486 7.04834 7.62663 7.04834 7.60059 7.06397C7.57975 7.07438 7.57194 7.06136 7.57715 7.0249C7.52506 7.05615 7.48079 7.07438 7.44434 7.07959C7.40788 7.07959 7.38184 7.09001 7.36621 7.11084C7.34017 7.09001 7.30892 7.08219 7.27246 7.0874C7.24121 7.0874 7.20996 7.09261 7.17871 7.10303C7.15267 7.09261 7.12402 7.0874 7.09277 7.0874C7.06673 7.08219 7.03027 7.07699 6.9834 7.07178C6.95736 7.06136 6.92611 7.06397 6.88965 7.07959C6.8584 7.09522 6.82975 7.10563 6.80371 7.11084C6.75163 7.09522 6.70475 7.09261 6.66309 7.10303C6.62142 7.11344 6.58236 7.12646 6.5459 7.14209C6.51986 7.1473 6.50423 7.14209 6.49902 7.12646C6.49381 7.10563 6.47819 7.09782 6.45215 7.10303C6.43131 7.11865 6.40006 7.12646 6.3584 7.12646C6.32194 7.12126 6.2959 7.12907 6.28027 7.1499C6.25423 7.12386 6.21517 7.11865 6.16309 7.13428C6.11621 7.14469 6.07715 7.13428 6.0459 7.10303C6.03548 7.12386 6.01986 7.13167 5.99902 7.12646C5.9834 7.11605 5.96256 7.11344 5.93652 7.11865C5.91569 7.11865 5.89486 7.12126 5.87402 7.12646C5.8584 7.13167 5.84017 7.13428 5.81934 7.13428C5.79329 7.13949 5.76204 7.13688 5.72559 7.12646C5.69434 7.11605 5.66569 7.11865 5.63965 7.13428C5.61361 7.1499 5.60319 7.17074 5.6084 7.19678C5.61361 7.22282 5.61361 7.25146 5.6084 7.28271C5.60319 7.29834 5.59798 7.31396 5.59277 7.32959C5.58757 7.34521 5.58496 7.36084 5.58496 7.37646C5.58496 7.3973 5.58757 7.41813 5.59277 7.43896C5.60319 7.45459 5.60579 7.47282 5.60059 7.49365C5.60059 7.53532 5.59277 7.57959 5.57715 7.62646C5.56673 7.67334 5.55632 7.72021 5.5459 7.76709C5.52507 7.85042 5.51465 7.91553 5.51465 7.9624C5.51465 8.00928 5.50163 8.05094 5.47559 8.0874C5.49121 8.11865 5.49902 8.1473 5.49902 8.17334C5.50423 8.21501 5.50684 8.25928 5.50684 8.30615C5.50684 8.35303 5.50684 8.3973 5.50684 8.43896C5.50684 8.47021 5.50684 8.50407 5.50684 8.54053C5.50684 8.57178 5.50163 8.60563 5.49121 8.64209C5.486 8.65771 5.48079 8.67334 5.47559 8.68896C5.47038 8.70459 5.46777 8.72021 5.46777 8.73584C5.46257 8.76188 5.46517 8.79053 5.47559 8.82178C5.486 8.85303 5.486 8.88428 5.47559 8.91553C5.52246 8.94157 5.57194 8.95199 5.62402 8.94678C5.68131 8.94157 5.74642 8.93896 5.81934 8.93896C5.90788 8.93376 5.99642 8.92594 6.08496 8.91553C6.17871 8.90511 6.26204 8.8999 6.33496 8.8999C6.37663 8.8999 6.41309 8.90511 6.44434 8.91553C6.48079 8.92594 6.51725 8.92594 6.55371 8.91553C6.59017 8.90511 6.63184 8.8973 6.67871 8.89209C6.73079 8.88167 6.77767 8.87907 6.81934 8.88428C6.87663 8.87907 6.9209 8.87907 6.95215 8.88428C6.98861 8.88949 7.02246 8.89209 7.05371 8.89209C7.10059 8.89209 7.14225 8.89209 7.17871 8.89209C7.22038 8.88688 7.26204 8.88167 7.30371 8.87646C7.32454 8.87126 7.34277 8.86605 7.3584 8.86084C7.37923 8.85563 7.40006 8.85303 7.4209 8.85303C7.45736 8.85824 7.4834 8.86084 7.49902 8.86084C7.51465 8.85563 7.52767 8.85303 7.53809 8.85303C7.56934 8.86344 7.59017 8.86605 7.60059 8.86084C7.611 8.85563 7.61881 8.85303 7.62402 8.85303C7.64486 8.86344 7.6709 8.86344 7.70215 8.85303C7.7334 8.8374 7.77246 8.8348 7.81934 8.84521C7.83496 8.85563 7.84277 8.87386 7.84277 8.8999C7.84798 8.92074 7.8584 8.93636 7.87402 8.94678C7.86881 8.97282 7.87402 8.98844 7.88965 8.99365C7.90527 8.99886 7.91569 9.01188 7.9209 9.03271C7.93131 9.15771 7.92871 9.28271 7.91309 9.40771C7.89746 9.52751 7.88704 9.65511 7.88184 9.79053C7.87142 9.80615 7.8584 9.81657 7.84277 9.82178C7.82715 9.83219 7.80892 9.84261 7.78809 9.85303C7.77246 9.86344 7.75423 9.87386 7.7334 9.88428C7.71777 9.89469 7.69954 9.8999 7.67871 9.8999C7.65788 9.8999 7.63704 9.89469 7.61621 9.88428C7.59538 9.87907 7.57454 9.87386 7.55371 9.86865C7.52767 9.86865 7.50163 9.87126 7.47559 9.87646C7.45475 9.88167 7.42871 9.88428 7.39746 9.88428C7.35579 9.88428 7.30892 9.88167 7.25684 9.87646C7.20996 9.87126 7.16048 9.86605 7.1084 9.86084C7.05111 9.85563 6.99642 9.85042 6.94434 9.84521C6.89746 9.84521 6.861 9.8374 6.83496 9.82178C6.80892 9.81657 6.79069 9.81917 6.78027 9.82959C6.76986 9.84521 6.75163 9.85303 6.72559 9.85303C6.6735 9.8374 6.61621 9.82959 6.55371 9.82959C6.49642 9.82959 6.43392 9.82699 6.36621 9.82178C6.31934 9.81657 6.27246 9.81657 6.22559 9.82178C6.18392 9.83219 6.13704 9.8374 6.08496 9.8374C6.04329 9.84261 5.99902 9.84261 5.95215 9.8374C5.91048 9.83219 5.86881 9.83219 5.82715 9.8374C5.78027 9.8374 5.736 9.84001 5.69434 9.84521C5.65788 9.85563 5.61882 9.85824 5.57715 9.85303C5.55111 9.85303 5.52767 9.84782 5.50684 9.8374C5.49121 9.83219 5.47038 9.82959 5.44434 9.82959C5.41309 9.8348 5.38704 9.83219 5.36621 9.82178C5.34538 9.81657 5.32454 9.81396 5.30371 9.81396C5.26204 9.80355 5.21777 9.79574 5.1709 9.79053C5.12402 9.79053 5.07975 9.77751 5.03809 9.75146C5.01725 9.76188 4.99642 9.76449 4.97559 9.75928C4.95996 9.75407 4.94173 9.75146 4.9209 9.75146C4.89486 9.75667 4.87402 9.75667 4.8584 9.75146C4.84277 9.75146 4.82975 9.75146 4.81934 9.75146C4.78288 9.75667 4.74642 9.76449 4.70996 9.7749C4.67871 9.79053 4.64486 9.79313 4.6084 9.78271C4.57194 9.75667 4.55111 9.73324 4.5459 9.7124C4.54069 9.69157 4.53288 9.66813 4.52246 9.64209C4.51725 9.62646 4.50944 9.61084 4.49902 9.59521C4.49382 9.57438 4.49121 9.55355 4.49121 9.53271C4.486 9.50667 4.486 9.48584 4.49121 9.47021C4.49642 9.44938 4.49642 9.42855 4.49121 9.40771C4.486 9.38167 4.47819 9.35824 4.46777 9.3374C4.45736 9.31136 4.44694 9.28792 4.43652 9.26709C4.44694 9.2098 4.44694 9.15511 4.43652 9.10303C4.42611 9.05094 4.4235 8.99365 4.42871 8.93115C4.42871 8.88428 4.43132 8.85042 4.43652 8.82959C4.44173 8.80876 4.44434 8.79053 4.44434 8.7749C4.44434 8.75928 4.44173 8.74365 4.43652 8.72803C4.43132 8.7124 4.42611 8.69678 4.4209 8.68115C4.41569 8.65511 4.41569 8.64209 4.4209 8.64209C4.42611 8.63688 4.42611 8.62126 4.4209 8.59521C4.41569 8.55355 4.40267 8.50928 4.38184 8.4624C4.36621 8.41553 4.36621 8.36865 4.38184 8.32178C4.39225 8.29053 4.39225 8.26709 4.38184 8.25146C4.37663 8.23584 4.37402 8.22282 4.37402 8.2124C4.37402 8.18636 4.37663 8.16032 4.38184 8.13428C4.39225 8.10303 4.40267 8.07178 4.41309 8.04053C4.41309 8.01449 4.41048 7.99365 4.40527 7.97803C4.40007 7.95719 4.39486 7.93636 4.38965 7.91553C4.40007 7.87907 4.40007 7.85824 4.38965 7.85303C4.38444 7.84261 4.38184 7.82959 4.38184 7.81396C4.38184 7.79313 4.38444 7.7723 4.38965 7.75146C4.39486 7.73063 4.39746 7.7098 4.39746 7.68896C4.39225 7.6473 4.39225 7.61084 4.39746 7.57959C4.40788 7.54313 4.40007 7.51449 4.37402 7.49365C4.40007 7.44157 4.40527 7.38949 4.38965 7.3374C4.37923 7.28011 4.37402 7.22021 4.37402 7.15771C4.36882 7.13167 4.36882 7.10824 4.37402 7.0874C4.37923 7.06657 4.38444 7.04313 4.38965 7.01709C4.38965 6.99626 4.38704 6.97803 4.38184 6.9624C4.37663 6.94157 4.37402 6.92074 4.37402 6.8999C4.37923 6.86865 4.38184 6.84001 4.38184 6.81397C4.38184 6.78272 4.38184 6.74886 4.38184 6.7124C4.38184 6.69678 4.38444 6.68115 4.38965 6.66553C4.39486 6.6499 4.39746 6.63428 4.39746 6.61865C4.39225 6.60824 4.38704 6.59261 4.38184 6.57178C4.37663 6.54574 4.37402 6.5249 4.37402 6.50928C4.37402 6.4624 4.38184 6.43376 4.39746 6.42334C4.38704 6.3973 4.37663 6.37647 4.36621 6.36084C4.361 6.34522 4.36882 6.32438 4.38965 6.29834C4.36882 6.24105 4.361 6.20719 4.36621 6.19678C4.37663 6.18636 4.38184 6.17074 4.38184 6.1499C4.37663 6.09261 4.37142 6.04313 4.36621 6.00147C4.361 5.95459 4.3584 5.91032 4.3584 5.86865C4.3584 5.85303 4.361 5.8374 4.36621 5.82178C4.37142 5.80094 4.37402 5.78272 4.37402 5.76709C4.37402 5.74105 4.37142 5.72022 4.36621 5.70459C4.361 5.68897 4.361 5.67074 4.36621 5.6499C4.39225 5.56136 4.40527 5.49365 4.40527 5.44678C4.40527 5.39469 4.41829 5.35042 4.44434 5.31397C4.40788 5.24626 4.40007 5.16813 4.4209 5.07959C4.44173 4.98584 4.45215 4.89209 4.45215 4.79834C4.45736 4.73584 4.45475 4.67074 4.44434 4.60303C4.43913 4.53011 4.44173 4.45459 4.45215 4.37647C4.45736 4.31917 4.45475 4.2723 4.44434 4.23584C4.43392 4.19938 4.42871 4.16813 4.42871 4.14209C4.42871 4.11605 4.43392 4.09001 4.44434 4.06397C4.45475 4.03792 4.46517 4.01188 4.47559 3.98584C4.486 3.96501 4.49382 3.94678 4.49902 3.93115C4.50944 3.91032 4.52507 3.89469 4.5459 3.88428C4.76986 3.92594 4.98861 3.93636 5.20215 3.91553C5.4209 3.88949 5.62923 3.88428 5.82715 3.8999C5.88444 3.91032 5.93913 3.92334 5.99121 3.93897C6.0485 3.94938 6.10579 3.95719 6.16309 3.9624C6.19954 3.96761 6.236 3.96761 6.27246 3.9624C6.30892 3.95199 6.35579 3.94417 6.41309 3.93897C6.46517 3.94938 6.49902 3.95459 6.51465 3.95459C6.53548 3.94938 6.55111 3.94678 6.56152 3.94678C6.58756 3.94678 6.611 3.95199 6.63184 3.9624C6.65267 3.96761 6.67611 3.97022 6.70215 3.97022C6.74381 3.98063 6.78288 3.98584 6.81934 3.98584C6.85579 3.98584 6.89486 3.98844 6.93652 3.99365C6.96777 3.99365 7.00163 3.99105 7.03809 3.98584C7.07454 3.98063 7.111 3.98063 7.14746 3.98584C7.19434 3.98584 7.25163 3.99365 7.31934 4.00928C7.38704 4.01969 7.45215 4.02751 7.51465 4.03272C7.55631 4.02751 7.58496 4.02751 7.60059 4.03272C7.62142 4.03792 7.63965 4.04313 7.65527 4.04834C7.72819 4.05876 7.7959 4.06136 7.8584 4.05615C7.9209 4.05094 7.986 4.05355 8.05371 4.06397ZM14.4521 3.9624C14.4521 4.01969 14.4495 4.09782 14.4443 4.19678C14.4443 4.29053 14.4313 4.36084 14.4053 4.40772C14.4157 4.51188 14.4053 4.61344 14.374 4.7124C14.348 4.81136 14.3298 4.91292 14.3193 5.01709C14.3141 5.06917 14.3115 5.11865 14.3115 5.16553C14.3167 5.2124 14.3141 5.26188 14.3037 5.31397C14.2933 5.35563 14.2855 5.40511 14.2803 5.4624C14.2803 5.51449 14.2777 5.56917 14.2725 5.62647C14.2673 5.66813 14.2594 5.70719 14.249 5.74365C14.2386 5.78011 14.2308 5.81917 14.2256 5.86084C14.2204 5.90772 14.2178 5.95199 14.2178 5.99365C14.2178 6.03532 14.2152 6.07699 14.21 6.11865C14.1995 6.22282 14.1943 6.32178 14.1943 6.41553C14.1943 6.50407 14.1917 6.59261 14.1865 6.68115C14.1813 6.74365 14.1761 6.80615 14.1709 6.86865C14.1709 6.93115 14.1683 6.99105 14.1631 7.04834C14.1579 7.11605 14.1527 7.18115 14.1475 7.24365C14.1423 7.30094 14.137 7.35824 14.1318 7.41553C14.1266 7.44157 14.1214 7.47282 14.1162 7.50928C14.1162 7.54053 14.1162 7.57438 14.1162 7.61084C14.1162 7.63167 14.1188 7.65251 14.124 7.67334C14.1292 7.68896 14.1292 7.7098 14.124 7.73584C14.124 7.76188 14.1214 7.78532 14.1162 7.80615C14.111 7.82699 14.1032 7.85042 14.0928 7.87646C14.0824 7.93896 14.0745 8.00407 14.0693 8.07178C14.0693 8.13949 14.0615 8.20719 14.0459 8.2749C14.0563 8.29053 14.0537 8.30876 14.0381 8.32959C14.0277 8.35042 14.0199 8.37126 14.0146 8.39209C14.0094 8.49105 14.0016 8.59261 13.9912 8.69678C13.986 8.79574 13.9808 8.88688 13.9756 8.97021C13.9756 9.02751 13.9756 9.09001 13.9756 9.15771C13.9808 9.22542 13.9782 9.29313 13.9678 9.36084C13.9626 9.38167 13.9548 9.40251 13.9443 9.42334C13.9339 9.44417 13.9235 9.46761 13.9131 9.49365C13.9027 9.53011 13.8975 9.57178 13.8975 9.61865C13.9027 9.66032 13.9053 9.7098 13.9053 9.76709C13.9157 9.80876 13.9209 9.84001 13.9209 9.86084C13.9157 9.8973 13.9053 9.92594 13.8896 9.94678C13.874 9.97282 13.8584 9.99886 13.8428 10.0249C13.8011 10.0301 13.7568 10.0301 13.71 10.0249C13.6631 10.0197 13.624 10.0223 13.5928 10.0327C13.5615 10.0119 13.5303 9.99365 13.499 9.97803C13.473 9.96761 13.4469 9.94678 13.4209 9.91553C13.3949 9.87386 13.374 9.84782 13.3584 9.8374C13.348 9.83219 13.3376 9.82178 13.3271 9.80615C13.2855 9.76449 13.2568 9.73324 13.2412 9.7124C13.2256 9.69157 13.2178 9.67074 13.2178 9.6499C13.2021 9.6499 13.1865 9.6473 13.1709 9.64209C13.1605 9.63167 13.1501 9.62126 13.1396 9.61084C13.1344 9.59001 13.1214 9.57699 13.1006 9.57178C13.0798 9.56136 13.0615 9.55094 13.0459 9.54053C13.0355 9.53011 13.0277 9.51449 13.0225 9.49365C13.0225 9.46761 13.0016 9.4624 12.96 9.47803C12.96 9.45719 12.9548 9.44417 12.9443 9.43896C12.9339 9.42855 12.9313 9.41032 12.9365 9.38428C12.9157 9.37386 12.8949 9.36605 12.874 9.36084C12.8532 9.35563 12.8324 9.34782 12.8115 9.3374C12.7959 9.32699 12.7803 9.31136 12.7646 9.29053C12.7542 9.26969 12.7412 9.24626 12.7256 9.22021C12.71 9.2098 12.6917 9.19678 12.6709 9.18115C12.6553 9.16032 12.6423 9.14469 12.6318 9.13428C12.6006 9.10824 12.585 9.09261 12.585 9.0874C12.585 9.07699 12.5798 9.06657 12.5693 9.05615C12.5433 9.03532 12.5199 9.01709 12.499 9.00146C12.4834 8.98584 12.4652 8.97282 12.4443 8.9624C12.4339 8.93636 12.4209 8.91292 12.4053 8.89209C12.3896 8.87126 12.3688 8.85563 12.3428 8.84521C12.3324 8.82438 12.3245 8.80615 12.3193 8.79053C12.3193 8.76969 12.3141 8.75407 12.3037 8.74365C12.2829 8.72282 12.2699 8.70719 12.2646 8.69678C12.2646 8.68636 12.262 8.67594 12.2568 8.66553C12.2204 8.62386 12.1943 8.59261 12.1787 8.57178C12.1683 8.54574 12.1579 8.5223 12.1475 8.50146C12.1214 8.47021 12.1032 8.44938 12.0928 8.43896C12.0824 8.42855 12.0745 8.42074 12.0693 8.41553C12.0537 8.38949 12.0433 8.36084 12.0381 8.32959C12.0329 8.29834 12.0225 8.26709 12.0068 8.23584C11.9964 8.21501 11.9782 8.19678 11.9521 8.18115C11.9313 8.16032 11.9131 8.13688 11.8975 8.11084C11.887 8.09521 11.874 8.07699 11.8584 8.05615C11.848 8.03532 11.8324 8.01969 11.8115 8.00928C11.7803 7.97803 11.7568 7.9624 11.7412 7.9624C11.7308 7.95719 11.7204 7.94938 11.71 7.93896C11.6891 7.90771 11.6735 7.88167 11.6631 7.86084C11.6527 7.8348 11.6423 7.81136 11.6318 7.79053C11.6058 7.76449 11.5876 7.74105 11.5771 7.72021C11.5667 7.69938 11.5563 7.68115 11.5459 7.66553C11.5094 7.61865 11.4704 7.57959 11.4287 7.54834C11.387 7.51709 11.361 7.47282 11.3506 7.41553C11.3193 7.38949 11.2907 7.36344 11.2646 7.3374C11.2438 7.31136 11.2204 7.28271 11.1943 7.25146C11.1683 7.20459 11.1423 7.17855 11.1162 7.17334C11.0954 7.16813 11.0798 7.16032 11.0693 7.1499C11.0589 7.11344 11.0381 7.09001 11.0068 7.07959C10.9808 7.06917 10.9626 7.04834 10.9521 7.01709C10.9365 7.0223 10.9209 7.01969 10.9053 7.00928C10.8949 6.99886 10.8844 6.98844 10.874 6.97803C10.848 6.96761 10.8219 6.95459 10.7959 6.93897C10.7855 6.92855 10.7751 6.91553 10.7646 6.8999C10.7594 6.87907 10.7516 6.86084 10.7412 6.84522C10.7256 6.82959 10.71 6.81657 10.6943 6.80615C10.6787 6.79574 10.6657 6.78272 10.6553 6.76709C10.6292 6.72022 10.6084 6.68376 10.5928 6.65772C10.5824 6.63167 10.5615 6.61344 10.5303 6.60303C10.5251 6.56657 10.5146 6.53792 10.499 6.51709C10.4886 6.49105 10.4756 6.46501 10.46 6.43897C10.4287 6.3973 10.4053 6.36865 10.3896 6.35303C10.3792 6.3374 10.3688 6.32438 10.3584 6.31397C10.3324 6.28792 10.3193 6.26969 10.3193 6.25928C10.3245 6.24365 10.3245 6.23324 10.3193 6.22803C10.2881 6.18636 10.2673 6.15772 10.2568 6.14209C10.2464 6.12647 10.236 6.11084 10.2256 6.09522C10.1995 6.05355 10.1787 6.0249 10.1631 6.00928C10.1475 5.99365 10.1344 5.98063 10.124 5.97022C10.0719 6.22022 10.0381 6.48324 10.0225 6.75928C10.012 7.03532 10.0016 7.32699 9.99121 7.63428C9.99121 7.68115 9.99381 7.73063 9.99902 7.78271C10.0094 7.8348 10.012 7.88949 10.0068 7.94678C10.0068 7.9624 10.0042 7.97803 9.99902 7.99365C9.99381 8.00928 9.99381 8.0249 9.99902 8.04053C9.99902 8.08219 10.0016 8.12126 10.0068 8.15771C10.012 8.18896 10.0146 8.23324 10.0146 8.29053C10.0146 8.33219 10.0146 8.38949 10.0146 8.4624C10.0146 8.53532 10.0173 8.60824 10.0225 8.68115C10.0225 8.73844 10.0277 8.79574 10.0381 8.85303C10.0485 8.90511 10.0589 8.9598 10.0693 9.01709C10.0798 9.06917 10.0928 9.12386 10.1084 9.18115C10.124 9.23324 10.1292 9.28532 10.124 9.3374C10.124 9.37907 10.1136 9.41813 10.0928 9.45459C10.0771 9.48584 10.0745 9.5223 10.085 9.56396C10.0589 9.59001 10.0355 9.61865 10.0146 9.6499C9.99902 9.67594 9.97559 9.69417 9.94434 9.70459C9.91829 9.70459 9.89225 9.69938 9.86621 9.68896C9.84538 9.67855 9.82194 9.67074 9.7959 9.66553C9.76465 9.67594 9.74121 9.67594 9.72559 9.66553C9.71517 9.66032 9.70736 9.65511 9.70215 9.6499C9.66569 9.6499 9.62663 9.65511 9.58496 9.66553C9.5485 9.67594 9.51204 9.66553 9.47559 9.63428C9.45475 9.63949 9.43913 9.64469 9.42871 9.6499C9.41829 9.65511 9.40267 9.65771 9.38184 9.65771C9.35059 9.65771 9.32454 9.65511 9.30371 9.6499C9.28288 9.64469 9.25684 9.6473 9.22559 9.65771C9.20996 9.65771 9.18392 9.65771 9.14746 9.65771C9.11621 9.65771 9.08236 9.65251 9.0459 9.64209C9.02506 9.62126 9.00684 9.59521 8.99121 9.56396C8.97038 9.50146 8.95475 9.45459 8.94434 9.42334C8.93392 9.39209 8.92611 9.36344 8.9209 9.3374C8.9209 9.32699 8.9235 9.31396 8.92871 9.29834C8.93392 9.28271 8.93652 9.26709 8.93652 9.25146C8.93652 9.23063 8.93392 9.2124 8.92871 9.19678C8.92871 9.18115 8.92871 9.16553 8.92871 9.1499C8.92871 9.12907 8.93131 9.10824 8.93652 9.0874C8.94173 9.06657 8.94434 9.04313 8.94434 9.01709C8.94434 8.97542 8.94173 8.93115 8.93652 8.88428C8.93131 8.8374 8.92611 8.78532 8.9209 8.72803C8.9209 8.7124 8.91829 8.69938 8.91309 8.68896C8.91309 8.67334 8.91309 8.65771 8.91309 8.64209C8.91829 8.56396 8.92871 8.48844 8.94434 8.41553C8.96517 8.3374 8.97038 8.24886 8.95996 8.1499C8.95996 8.12386 8.95475 8.09782 8.94434 8.07178C8.93913 8.04574 8.93652 8.01969 8.93652 7.99365C8.93652 7.94678 8.93913 7.90251 8.94434 7.86084C8.95475 7.81917 8.96256 7.77751 8.96777 7.73584C8.97819 7.71501 8.98079 7.69938 8.97559 7.68896C8.97038 7.67855 8.97038 7.66553 8.97559 7.6499C8.97559 7.63428 8.98079 7.61865 8.99121 7.60303C9.00163 7.5874 9.00944 7.57178 9.01465 7.55615C9.00944 7.50928 9.01204 7.45459 9.02246 7.39209C9.03288 7.32959 9.04069 7.25407 9.0459 7.16553C9.04069 7.09261 9.0459 7.03272 9.06152 6.98584C9.07715 6.93376 9.08496 6.88688 9.08496 6.84522C9.08496 6.79834 9.08756 6.75928 9.09277 6.72803C9.10319 6.69678 9.111 6.66813 9.11621 6.64209V6.54834C9.12663 6.49105 9.12663 6.45199 9.11621 6.43115C9.111 6.41032 9.1084 6.38949 9.1084 6.36865C9.11881 6.34261 9.12142 6.31657 9.11621 6.29053C9.11621 6.25928 9.11361 6.23063 9.1084 6.20459C9.11881 6.18376 9.12142 6.16553 9.11621 6.1499C9.11621 6.13428 9.111 6.11344 9.10059 6.0874C9.10059 5.97282 9.10579 5.87907 9.11621 5.80615C9.13184 5.73324 9.13444 5.66553 9.12402 5.60303C9.12402 5.57699 9.12142 5.55876 9.11621 5.54834C9.111 5.53272 9.10579 5.51709 9.10059 5.50147C9.09538 5.44417 9.09538 5.40251 9.10059 5.37647C9.111 5.35042 9.11621 5.32699 9.11621 5.30615C9.12142 5.28532 9.11881 5.26449 9.1084 5.24365C9.10319 5.22282 9.09798 5.20199 9.09277 5.18115C9.09277 5.16553 9.09798 5.14469 9.1084 5.11865C9.11881 5.09261 9.111 5.07178 9.08496 5.05615C9.10059 5.00407 9.10579 4.97022 9.10059 4.95459C9.09538 4.93376 9.09277 4.91553 9.09277 4.8999C9.10319 4.85824 9.10579 4.8348 9.10059 4.82959C9.09538 4.81917 9.09277 4.80876 9.09277 4.79834C9.10319 4.7723 9.10579 4.75407 9.10059 4.74365C9.09538 4.72803 9.09277 4.71501 9.09277 4.70459C9.09798 4.68376 9.10319 4.66292 9.1084 4.64209C9.11361 4.62126 9.11881 4.59782 9.12402 4.57178C9.12402 4.55615 9.12142 4.53792 9.11621 4.51709C9.111 4.49626 9.1084 4.47803 9.1084 4.4624C9.11361 4.42594 9.11881 4.39209 9.12402 4.36084C9.12923 4.32959 9.13444 4.30094 9.13965 4.2749C9.14486 4.25407 9.14486 4.23584 9.13965 4.22022C9.13965 4.19938 9.14225 4.18115 9.14746 4.16553C9.15788 4.09261 9.16048 4.03532 9.15527 3.99365C9.15006 3.95199 9.15267 3.91292 9.16309 3.87647C9.17871 3.8348 9.21517 3.80615 9.27246 3.79053C9.33496 3.76969 9.38965 3.78011 9.43652 3.82178C9.48861 3.82699 9.53288 3.8348 9.56934 3.84522C9.611 3.85563 9.63184 3.88949 9.63184 3.94678C9.65788 3.94678 9.67611 3.95719 9.68652 3.97803C9.70215 3.99886 9.72038 4.01449 9.74121 4.0249C9.81413 4.06136 9.85579 4.0874 9.86621 4.10303C9.90788 4.14469 9.93652 4.17334 9.95215 4.18897C9.97298 4.20459 9.98861 4.22022 9.99902 4.23584C10.0251 4.2723 10.0381 4.29574 10.0381 4.30615C10.0433 4.31657 10.0511 4.32438 10.0615 4.32959C10.0719 4.34001 10.085 4.35824 10.1006 4.38428C10.1214 4.40511 10.1396 4.42594 10.1553 4.44678C10.1813 4.47803 10.21 4.50928 10.2412 4.54053C10.2725 4.56657 10.3011 4.59782 10.3271 4.63428C10.3428 4.6499 10.3558 4.66813 10.3662 4.68897C10.3766 4.70459 10.3923 4.72022 10.4131 4.73584C10.4495 4.77751 10.486 4.82438 10.5225 4.87647C10.5641 4.92334 10.6058 4.97282 10.6475 5.0249C10.6631 5.05094 10.6787 5.07699 10.6943 5.10303C10.71 5.12386 10.7334 5.14209 10.7646 5.15772C10.7699 5.2098 10.8011 5.25407 10.8584 5.29053C10.874 5.3374 10.8975 5.37907 10.9287 5.41553C10.96 5.45199 10.986 5.49105 11.0068 5.53272C11.0433 5.56397 11.0745 5.59782 11.1006 5.63428C11.1266 5.66553 11.1553 5.69938 11.1865 5.73584C11.1969 5.74626 11.2048 5.75928 11.21 5.7749C11.2204 5.79053 11.2334 5.80615 11.249 5.82178C11.2751 5.84782 11.2881 5.87126 11.2881 5.89209C11.2933 5.90772 11.3011 5.92074 11.3115 5.93115C11.3219 5.95199 11.3324 5.97282 11.3428 5.99365C11.3584 6.00928 11.3714 6.02751 11.3818 6.04834C11.4391 6.12647 11.4808 6.19417 11.5068 6.25147C11.5329 6.30876 11.5615 6.36344 11.5928 6.41553C11.624 6.45719 11.6475 6.49105 11.6631 6.51709C11.6787 6.54313 11.6917 6.56657 11.7021 6.5874C11.749 6.63428 11.7803 6.66813 11.7959 6.68897C11.8219 6.72022 11.8454 6.75147 11.8662 6.78272C11.8923 6.80876 11.9183 6.8374 11.9443 6.86865C11.9704 6.90511 11.9834 6.92855 11.9834 6.93897C11.9886 6.94938 11.9912 6.9598 11.9912 6.97022C12.0277 6.99626 12.0459 7.01449 12.0459 7.0249C12.0459 7.03011 12.0511 7.03532 12.0615 7.04053C12.1032 7.10303 12.1553 7.16813 12.2178 7.23584C12.2803 7.29834 12.3428 7.35824 12.4053 7.41553C12.4365 7.44678 12.4678 7.47542 12.499 7.50146C12.5303 7.52751 12.5589 7.56136 12.585 7.60303C12.6058 7.64469 12.6188 7.67074 12.624 7.68115C12.6344 7.68636 12.6423 7.69417 12.6475 7.70459C12.6787 7.75146 12.7152 7.79834 12.7568 7.84521C12.8037 7.88688 12.8558 7.92334 12.9131 7.95459C12.9183 7.91813 12.9209 7.88428 12.9209 7.85303C12.9209 7.81657 12.9209 7.78532 12.9209 7.75928C12.9209 7.73324 12.9209 7.7098 12.9209 7.68896C12.9209 7.66813 12.9313 7.6499 12.9521 7.63428C12.9417 7.60303 12.9313 7.56396 12.9209 7.51709C12.9105 7.46501 12.9183 7.41813 12.9443 7.37646C12.9287 7.32438 12.9235 7.29053 12.9287 7.2749C12.9339 7.25407 12.9339 7.23324 12.9287 7.2124C12.9287 7.19157 12.9261 7.17594 12.9209 7.16553C12.9157 7.1499 12.9131 7.13167 12.9131 7.11084C12.9079 7.06917 12.9105 7.02751 12.9209 6.98584C12.9313 6.93897 12.9391 6.88949 12.9443 6.8374C12.9443 6.74886 12.9443 6.65772 12.9443 6.56397C12.9443 6.46501 12.9521 6.37907 12.9678 6.30615C12.9678 6.29574 12.973 6.28011 12.9834 6.25928C12.9938 6.23844 13.0016 6.22282 13.0068 6.2124C13.0016 6.17074 13.0016 6.14209 13.0068 6.12647C13.0173 6.10563 13.0225 6.08219 13.0225 6.05615C13.0225 6.01969 13.0199 5.98324 13.0146 5.94678C13.0094 5.91032 13.0094 5.86084 13.0146 5.79834C13.0094 5.74105 13.012 5.69678 13.0225 5.66553C13.0329 5.62907 13.0407 5.59001 13.0459 5.54834C13.0355 5.5223 13.0329 5.49626 13.0381 5.47022C13.0433 5.43897 13.0459 5.41032 13.0459 5.38428C13.0459 5.36865 13.0433 5.35303 13.0381 5.3374C13.0381 5.31657 13.0381 5.29574 13.0381 5.2749C13.0381 5.23844 13.0433 5.20719 13.0537 5.18115C13.0641 5.1499 13.0719 5.11865 13.0771 5.0874C13.0771 5.05094 13.0745 5.01709 13.0693 4.98584C13.0693 4.94938 13.0771 4.91032 13.0928 4.86865C13.0824 4.84782 13.0745 4.82959 13.0693 4.81397C13.0641 4.79834 13.0563 4.77751 13.0459 4.75147C13.0719 4.66813 13.0798 4.59261 13.0693 4.5249C13.0641 4.45199 13.0667 4.36605 13.0771 4.26709C13.0719 4.24105 13.0745 4.21501 13.085 4.18897C13.0902 4.17855 13.0928 4.16813 13.0928 4.15772C13.0928 4.13167 13.0876 4.11084 13.0771 4.09522C13.0667 4.07438 13.0641 4.05355 13.0693 4.03272C13.0798 4.01188 13.098 3.98584 13.124 3.95459C13.1553 3.91813 13.1839 3.8973 13.21 3.89209C13.236 3.88688 13.262 3.89209 13.2881 3.90772C13.3141 3.91813 13.3402 3.92334 13.3662 3.92334C13.4235 3.92855 13.4834 3.92334 13.5459 3.90772C13.6136 3.88688 13.6761 3.87126 13.7334 3.86084C13.7751 3.85042 13.835 3.85042 13.9131 3.86084C13.9964 3.87126 14.0693 3.87126 14.1318 3.86084C14.1995 3.87126 14.262 3.88428 14.3193 3.8999C14.3454 3.91032 14.3714 3.91813 14.3975 3.92334C14.4235 3.92855 14.4417 3.94157 14.4521 3.9624Z" fill="black"/>
<path d="M22.8052 18.8086C22.7948 18.8398 22.7713 18.8581 22.7349 18.8633C22.6984 18.8685 22.675 18.8867 22.6646 18.918C22.6125 18.9076 22.5786 18.8919 22.563 18.8711C22.5369 18.8971 22.5161 18.9128 22.5005 18.918C22.4849 18.918 22.4718 18.9206 22.4614 18.9258C22.4198 18.9414 22.3885 18.9622 22.3677 18.9883C22.3521 18.9831 22.3364 18.9753 22.3208 18.9648C22.3052 18.9544 22.2869 18.9466 22.2661 18.9414C22.2088 18.9466 22.1672 18.9518 22.1411 18.957C22.1151 18.9622 22.0916 18.9648 22.0708 18.9648C22.0291 18.9648 21.9927 18.9622 21.9614 18.957C21.9302 18.9466 21.8937 18.9466 21.8521 18.957C21.8312 18.9674 21.8078 18.9701 21.7817 18.9648C21.7557 18.9596 21.7323 18.9701 21.7114 18.9961C21.6854 19.0013 21.6698 18.9987 21.6646 18.9883C21.6593 18.9779 21.6437 18.9753 21.6177 18.9805C21.5916 18.9961 21.5604 19.0091 21.5239 19.0195C21.4927 19.0247 21.4588 19.0326 21.4224 19.043C21.3911 19.0326 21.3677 19.0143 21.3521 18.9883C21.3416 18.957 21.3234 18.931 21.2974 18.9102C21.3026 18.8841 21.3026 18.8581 21.2974 18.832C21.2974 18.806 21.3026 18.7878 21.313 18.7773C21.2974 18.7617 21.2896 18.7461 21.2896 18.7305C21.2896 18.7096 21.2869 18.6862 21.2817 18.6602C21.2609 18.6185 21.2479 18.5846 21.2427 18.5586C21.2323 18.5065 21.2192 18.4648 21.2036 18.4336C21.188 18.4023 21.1854 18.3737 21.1958 18.3477C21.1698 18.3216 21.1541 18.293 21.1489 18.2617C21.1437 18.2253 21.1333 18.181 21.1177 18.1289C21.1021 18.1029 21.0942 18.0846 21.0942 18.0742C21.0994 18.0586 21.0994 18.0456 21.0942 18.0352C21.0682 17.9779 21.0552 17.9388 21.0552 17.918C21.0552 17.8971 21.0526 17.8763 21.0474 17.8555C21.0265 17.8086 21.0109 17.7695 21.0005 17.7383C20.9953 17.707 20.9875 17.6784 20.9771 17.6523C20.9666 17.6367 20.9562 17.6237 20.9458 17.6133C20.9354 17.5977 20.925 17.5794 20.9146 17.5586C20.9041 17.5378 20.8989 17.5169 20.8989 17.4961C20.8989 17.4701 20.8937 17.4466 20.8833 17.4258C20.8729 17.4049 20.8625 17.3867 20.8521 17.3711C20.8468 17.3555 20.8416 17.3398 20.8364 17.3242C20.826 17.293 20.8182 17.2617 20.813 17.2305C20.813 17.194 20.8026 17.1628 20.7817 17.1367C20.7505 17.1263 20.7192 17.1263 20.688 17.1367C20.6567 17.1471 20.6281 17.1549 20.6021 17.1602C20.5864 17.1602 20.5682 17.1602 20.5474 17.1602C20.5317 17.1549 20.5161 17.1549 20.5005 17.1602C20.464 17.1654 20.4302 17.1732 20.3989 17.1836C20.3729 17.1888 20.3442 17.1862 20.313 17.1758C20.2922 17.1758 20.2739 17.1784 20.2583 17.1836C20.2479 17.1888 20.2297 17.1914 20.2036 17.1914C20.188 17.181 20.1593 17.1784 20.1177 17.1836C20.0812 17.1836 20.0474 17.1836 20.0161 17.1836C19.9797 17.1888 19.9432 17.194 19.9067 17.1992C19.8703 17.2044 19.8416 17.2018 19.8208 17.1914C19.7635 17.1862 19.7244 17.181 19.7036 17.1758C19.6828 17.1706 19.6646 17.168 19.6489 17.168C19.6073 17.1628 19.5682 17.1628 19.5317 17.168C19.4953 17.1732 19.4562 17.1706 19.4146 17.1602C19.3989 17.1706 19.3807 17.1784 19.3599 17.1836C19.339 17.1888 19.3234 17.1992 19.313 17.2148C19.2557 17.2044 19.2062 17.2044 19.1646 17.2148C19.1281 17.2253 19.0812 17.2279 19.0239 17.2227C18.9823 17.2539 18.9614 17.2904 18.9614 17.332C18.9614 17.3737 18.9562 17.4154 18.9458 17.457C18.9354 17.4987 18.9198 17.5378 18.8989 17.5742C18.8781 17.6055 18.8573 17.6393 18.8364 17.6758C18.826 17.7018 18.8156 17.7279 18.8052 17.7539C18.7948 17.7799 18.7817 17.806 18.7661 17.832C18.7557 17.8581 18.7479 17.8763 18.7427 17.8867C18.7375 17.8971 18.7323 17.9076 18.7271 17.918C18.7218 17.9284 18.7166 17.9336 18.7114 17.9336C18.7062 17.9753 18.6984 18.0039 18.688 18.0195C18.6776 18.0299 18.6724 18.0404 18.6724 18.0508C18.6619 18.0768 18.6567 18.1003 18.6567 18.1211C18.6619 18.1419 18.6619 18.1654 18.6567 18.1914C18.6463 18.2279 18.6307 18.2591 18.6099 18.2852C18.5942 18.3112 18.5864 18.3451 18.5864 18.3867C18.5448 18.418 18.5135 18.4622 18.4927 18.5195C18.4718 18.5716 18.4406 18.6159 18.3989 18.6523C18.3937 18.6992 18.3833 18.7435 18.3677 18.7852C18.3521 18.8268 18.3338 18.8685 18.313 18.9102C18.2974 18.9466 18.2843 18.9883 18.2739 19.0352C18.2635 19.0768 18.2583 19.1263 18.2583 19.1836C18.2427 19.194 18.2166 19.207 18.1802 19.2227C18.1437 19.2435 18.1125 19.2461 18.0864 19.2305C18.0396 19.2044 17.9979 19.1862 17.9614 19.1758C17.9302 19.1654 17.9015 19.1523 17.8755 19.1367C17.8651 19.1315 17.8364 19.1263 17.7896 19.1211C17.7427 19.1211 17.7062 19.1211 17.6802 19.1211C17.6437 19.1263 17.6177 19.1263 17.6021 19.1211C17.5864 19.1159 17.5708 19.1107 17.5552 19.1055C17.5343 19.1055 17.5135 19.1055 17.4927 19.1055C17.4771 19.1107 17.4562 19.1107 17.4302 19.1055C17.3677 19.0951 17.3078 19.0742 17.2505 19.043C17.1932 19.0169 17.1385 18.9961 17.0864 18.9805C17.0864 18.9544 17.089 18.9336 17.0942 18.918C17.0994 18.8971 17.1073 18.8737 17.1177 18.8477C17.1281 18.8216 17.1411 18.806 17.1567 18.8008C17.1724 18.7904 17.1776 18.7747 17.1724 18.7539C17.188 18.7122 17.2062 18.6706 17.2271 18.6289C17.2427 18.5872 17.2609 18.5456 17.2817 18.5039C17.3026 18.4518 17.3182 18.4206 17.3286 18.4102C17.339 18.3945 17.3494 18.3815 17.3599 18.3711C17.3807 18.319 17.3937 18.2852 17.3989 18.2695C17.4093 18.2487 17.4172 18.2331 17.4224 18.2227C17.4328 18.1966 17.4406 18.1758 17.4458 18.1602C17.451 18.1445 17.464 18.1237 17.4849 18.0977L17.5552 18.0039C17.5708 17.9518 17.5864 17.9154 17.6021 17.8945C17.6177 17.8685 17.6307 17.8477 17.6411 17.832C17.6672 17.8008 17.688 17.7695 17.7036 17.7383C17.7192 17.7018 17.7375 17.6628 17.7583 17.6211C17.7791 17.5951 17.7974 17.5716 17.813 17.5508C17.8286 17.5247 17.8416 17.4961 17.8521 17.4648C17.8625 17.4284 17.8703 17.4076 17.8755 17.4023C17.8807 17.3919 17.8859 17.3815 17.8911 17.3711C17.8963 17.3398 17.8989 17.3216 17.8989 17.3164C17.9041 17.306 17.9093 17.2956 17.9146 17.2852C17.9406 17.2435 17.9614 17.1966 17.9771 17.1445C17.9979 17.0924 18.0213 17.0456 18.0474 17.0039C18.0578 16.9779 18.0734 16.9544 18.0942 16.9336C18.1203 16.9128 18.1333 16.8841 18.1333 16.8477C18.1593 16.832 18.1776 16.8112 18.188 16.7852C18.1984 16.7539 18.2114 16.7253 18.2271 16.6992C18.2375 16.6732 18.2505 16.6497 18.2661 16.6289C18.2869 16.6081 18.3052 16.5846 18.3208 16.5586C18.3312 16.5326 18.3416 16.5065 18.3521 16.4805C18.3677 16.4492 18.3833 16.4206 18.3989 16.3945C18.4093 16.3685 18.4224 16.3451 18.438 16.3242C18.4536 16.2982 18.4771 16.2799 18.5083 16.2695C18.4979 16.2435 18.4979 16.2174 18.5083 16.1914C18.5239 16.1602 18.5369 16.1315 18.5474 16.1055C18.5578 16.0846 18.5708 16.0664 18.5864 16.0508C18.6021 16.0299 18.6151 16.0091 18.6255 15.9883L18.6646 15.9102C18.6854 15.8581 18.701 15.8268 18.7114 15.8164C18.7271 15.8008 18.7375 15.7878 18.7427 15.7773C18.7531 15.7617 18.7557 15.7461 18.7505 15.7305C18.7505 15.7148 18.7531 15.7018 18.7583 15.6914C18.7896 15.6706 18.813 15.6445 18.8286 15.6133C18.8442 15.582 18.8625 15.5482 18.8833 15.5117C18.8989 15.4857 18.9146 15.4544 18.9302 15.418C18.9458 15.3763 18.9666 15.3398 18.9927 15.3086C18.9875 15.2826 18.9901 15.2617 19.0005 15.2461C19.0109 15.2253 19.0213 15.2018 19.0317 15.1758C19.0422 15.1602 19.05 15.1445 19.0552 15.1289C19.0656 15.1081 19.076 15.0898 19.0864 15.0742C19.1229 15.0273 19.1437 14.9857 19.1489 14.9492C19.1593 14.9128 19.1698 14.8789 19.1802 14.8477C19.1906 14.8216 19.201 14.8008 19.2114 14.7852C19.2271 14.7695 19.2401 14.7513 19.2505 14.7305C19.2609 14.7096 19.2687 14.6888 19.2739 14.668C19.2791 14.6471 19.2922 14.6315 19.313 14.6211C19.3182 14.569 19.3286 14.5247 19.3442 14.4883C19.3651 14.4518 19.3833 14.4128 19.3989 14.3711C19.4146 14.3346 19.4432 14.2982 19.4849 14.2617C19.4901 14.2305 19.4927 14.1992 19.4927 14.168C19.4927 14.1367 19.4979 14.1081 19.5083 14.082C19.5187 14.056 19.5317 14.0352 19.5474 14.0195C19.563 14.0039 19.576 13.9857 19.5864 13.9648C19.6073 13.8971 19.6229 13.8424 19.6333 13.8008C19.6489 13.7539 19.6646 13.7096 19.6802 13.668C19.6958 13.6315 19.7114 13.5898 19.7271 13.543C19.7427 13.4909 19.7583 13.444 19.7739 13.4023C19.7896 13.3711 19.8026 13.3424 19.813 13.3164C19.8286 13.2852 19.8416 13.2539 19.8521 13.2227C19.9041 13.1966 19.9432 13.1602 19.9692 13.1133C19.9953 13.0664 20.0161 13.0143 20.0317 12.957C20.063 12.9466 20.0838 12.944 20.0942 12.9492C20.1099 12.9492 20.1255 12.9492 20.1411 12.9492C20.1932 12.9596 20.2244 12.9779 20.2349 13.0039C20.2453 13.0299 20.2609 13.0534 20.2817 13.0742C20.3078 13.1055 20.326 13.1341 20.3364 13.1602C20.3521 13.181 20.3651 13.2018 20.3755 13.2227C20.3963 13.2435 20.4172 13.2721 20.438 13.3086C20.464 13.3451 20.4823 13.3815 20.4927 13.418C20.5031 13.4388 20.5135 13.4622 20.5239 13.4883C20.5343 13.5143 20.5448 13.5404 20.5552 13.5664C20.5708 13.5924 20.5838 13.6211 20.5942 13.6523C20.6099 13.6836 20.6255 13.7174 20.6411 13.7539C20.6567 13.7956 20.6724 13.8451 20.688 13.9023C20.7088 13.9544 20.7271 14.0065 20.7427 14.0586C20.7531 14.0846 20.7583 14.1081 20.7583 14.1289C20.7635 14.1497 20.7713 14.1706 20.7817 14.1914C20.7922 14.2174 20.8 14.2383 20.8052 14.2539C20.8156 14.2695 20.826 14.2852 20.8364 14.3008C20.8573 14.3477 20.8781 14.3997 20.8989 14.457C20.925 14.5091 20.951 14.5638 20.9771 14.6211C20.9875 14.6367 20.9953 14.6523 21.0005 14.668C21.0109 14.6836 21.0213 14.7018 21.0317 14.7227C21.0422 14.7331 21.05 14.7461 21.0552 14.7617C21.0656 14.7773 21.076 14.793 21.0864 14.8086C21.0968 14.8242 21.1047 14.8424 21.1099 14.8633C21.1203 14.8841 21.1333 14.9023 21.1489 14.918C21.1646 14.9492 21.1776 14.9779 21.188 15.0039C21.2036 15.0247 21.2166 15.056 21.2271 15.0977C21.2375 15.1289 21.2479 15.168 21.2583 15.2148C21.2739 15.2617 21.2843 15.306 21.2896 15.3477C21.3156 15.3945 21.339 15.4492 21.3599 15.5117C21.3859 15.569 21.4093 15.6263 21.4302 15.6836C21.4458 15.6992 21.4588 15.7148 21.4692 15.7305C21.4849 15.7409 21.5005 15.7565 21.5161 15.7773C21.5265 15.8034 21.5369 15.8216 21.5474 15.832C21.5578 15.8424 21.5656 15.8529 21.5708 15.8633C21.5916 15.9102 21.6073 15.957 21.6177 16.0039C21.6333 16.0456 21.6463 16.0872 21.6567 16.1289C21.6672 16.1549 21.6802 16.181 21.6958 16.207C21.7114 16.2331 21.7192 16.2643 21.7192 16.3008C21.7505 16.3424 21.7739 16.3815 21.7896 16.418C21.8052 16.4492 21.8182 16.4779 21.8286 16.5039C21.8547 16.5456 21.8729 16.5768 21.8833 16.5977C21.8937 16.6133 21.9041 16.6315 21.9146 16.6523C21.951 16.6992 21.9797 16.7487 22.0005 16.8008C22.0109 16.8216 22.0161 16.8451 22.0161 16.8711C22.0213 16.8919 22.0291 16.9102 22.0396 16.9258C22.05 16.9622 22.063 16.9987 22.0786 17.0352C22.0942 17.0664 22.1073 17.1029 22.1177 17.1445C22.1437 17.1654 22.1619 17.1888 22.1724 17.2148C22.188 17.2409 22.201 17.2669 22.2114 17.293C22.2218 17.3086 22.2323 17.332 22.2427 17.3633C22.2531 17.3893 22.2635 17.4154 22.2739 17.4414C22.2896 17.4831 22.3104 17.5247 22.3364 17.5664C22.3625 17.6081 22.3807 17.6497 22.3911 17.6914C22.4015 17.7174 22.4119 17.7435 22.4224 17.7695C22.438 17.7956 22.451 17.8216 22.4614 17.8477C22.4718 17.8737 22.4744 17.8971 22.4692 17.918C22.4692 17.9336 22.4744 17.9492 22.4849 17.9648C22.4953 17.9909 22.5109 18.0247 22.5317 18.0664C22.563 18.1706 22.5994 18.2799 22.6411 18.3945C22.6672 18.4622 22.6958 18.5299 22.7271 18.5977C22.7635 18.6654 22.7896 18.7357 22.8052 18.8086ZM20.7036 16.457C20.714 16.4362 20.7166 16.4154 20.7114 16.3945C20.7062 16.3737 20.701 16.3503 20.6958 16.3242C20.6906 16.3034 20.6854 16.2799 20.6802 16.2539C20.6802 16.2279 20.675 16.2044 20.6646 16.1836C20.6541 16.1628 20.6411 16.1471 20.6255 16.1367C20.6151 16.1211 20.6073 16.1055 20.6021 16.0898C20.5916 16.0169 20.5812 15.9544 20.5708 15.9023C20.5656 15.8451 20.5578 15.7878 20.5474 15.7305C20.5213 15.7096 20.5005 15.6836 20.4849 15.6523C20.4536 15.6107 20.4328 15.5768 20.4224 15.5508C20.4172 15.5195 20.4119 15.4909 20.4067 15.4648C20.3963 15.4232 20.3859 15.3893 20.3755 15.3633C20.3651 15.332 20.3547 15.3034 20.3442 15.2773C20.3338 15.2357 20.326 15.1992 20.3208 15.168C20.3156 15.1367 20.3078 15.1055 20.2974 15.0742C20.2922 15.0586 20.2869 15.0456 20.2817 15.0352C20.2765 15.0195 20.2713 15.0039 20.2661 14.9883C20.2557 14.957 20.2453 14.9232 20.2349 14.8867C20.2244 14.8503 20.2062 14.8268 20.1802 14.8164C20.1281 14.8372 20.0994 14.8685 20.0942 14.9102C20.0786 14.9674 20.0604 15.0065 20.0396 15.0273C20.0187 15.0482 20.0057 15.0638 20.0005 15.0742C19.9901 15.1315 19.9797 15.1732 19.9692 15.1992C19.964 15.2201 19.9562 15.2435 19.9458 15.2695C19.9354 15.2956 19.925 15.319 19.9146 15.3398C19.9093 15.3607 19.9015 15.3815 19.8911 15.4023C19.8807 15.418 19.8703 15.4336 19.8599 15.4492C19.8547 15.4648 19.8494 15.4779 19.8442 15.4883C19.7974 15.5768 19.7557 15.6549 19.7192 15.7227C19.6828 15.7852 19.6515 15.8503 19.6255 15.918C19.6151 15.944 19.6073 15.9701 19.6021 15.9961C19.5968 16.0169 19.589 16.0404 19.5786 16.0664C19.5682 16.0872 19.5552 16.1055 19.5396 16.1211C19.5239 16.1367 19.5109 16.1576 19.5005 16.1836C19.4953 16.1992 19.4927 16.2148 19.4927 16.2305C19.4979 16.2409 19.4979 16.2565 19.4927 16.2773C19.4562 16.3346 19.4328 16.3815 19.4224 16.418C19.4172 16.4492 19.4093 16.4779 19.3989 16.5039C19.4562 16.5299 19.5135 16.543 19.5708 16.543C19.6333 16.5378 19.6932 16.5352 19.7505 16.5352C19.8494 16.5299 19.951 16.5247 20.0552 16.5195C20.1593 16.5091 20.2479 16.4961 20.3208 16.4805C20.3833 16.4701 20.4484 16.4701 20.5161 16.4805C20.5838 16.4909 20.6463 16.4831 20.7036 16.457ZM27.438 19.0508C27.4224 19.082 27.3885 19.1133 27.3364 19.1445C27.2948 19.1654 27.2661 19.181 27.2505 19.1914C27.2401 19.207 27.2297 19.2148 27.2192 19.2148C27.1619 19.2253 27.1203 19.2174 27.0942 19.1914C27.0213 19.2122 26.9536 19.2201 26.8911 19.2148C26.8338 19.2096 26.7765 19.2148 26.7192 19.2305C26.6932 19.2357 26.6724 19.2435 26.6567 19.2539C26.6411 19.2695 26.6229 19.2826 26.6021 19.293C26.5708 19.3034 26.5422 19.306 26.5161 19.3008C26.4953 19.3008 26.4692 19.3008 26.438 19.3008C26.4172 19.2852 26.3989 19.2643 26.3833 19.2383C26.3729 19.2174 26.3625 19.194 26.3521 19.168C26.3104 19.1367 26.2791 19.1055 26.2583 19.0742C26.2479 19.0638 26.2375 19.0508 26.2271 19.0352C26.2218 19.0143 26.214 18.9987 26.2036 18.9883C26.1672 18.9414 26.1385 18.8971 26.1177 18.8555C26.0968 18.8086 26.0812 18.7695 26.0708 18.7383C26.0552 18.7174 26.0369 18.6966 26.0161 18.6758C26.0005 18.6549 25.9849 18.6315 25.9692 18.6055C25.9536 18.5846 25.9354 18.5638 25.9146 18.543C25.8937 18.5169 25.8781 18.4935 25.8677 18.4727C25.8573 18.4518 25.8521 18.4336 25.8521 18.418C25.8521 18.3971 25.8468 18.3763 25.8364 18.3555C25.8208 18.3242 25.8 18.2956 25.7739 18.2695C25.7531 18.2435 25.7401 18.2096 25.7349 18.168C25.714 18.1471 25.6932 18.1263 25.6724 18.1055C25.6567 18.0794 25.6307 18.0612 25.5942 18.0508C25.5838 18.0143 25.5656 17.9857 25.5396 17.9648C25.5187 17.9388 25.5005 17.9049 25.4849 17.8633C25.4744 17.8477 25.4588 17.8138 25.438 17.7617C25.4276 17.7461 25.4198 17.7305 25.4146 17.7148C25.4146 17.694 25.4093 17.6758 25.3989 17.6602C25.3833 17.6341 25.3599 17.6133 25.3286 17.5977C25.3026 17.582 25.2843 17.5534 25.2739 17.5117C25.2323 17.5117 25.2036 17.5013 25.188 17.4805C25.1776 17.4544 25.1541 17.4388 25.1177 17.4336C25.0916 17.3815 25.0578 17.3346 25.0161 17.293C24.9797 17.2513 24.9458 17.2018 24.9146 17.1445C24.8416 17.1081 24.7765 17.0612 24.7192 17.0039C24.6619 16.9466 24.5942 16.8971 24.5161 16.8555C24.4953 16.8086 24.4484 16.7799 24.3755 16.7695C24.3494 16.806 24.339 16.8503 24.3442 16.9023C24.3494 16.9492 24.3468 16.9961 24.3364 17.043C24.3312 17.1003 24.3208 17.1576 24.3052 17.2148C24.2948 17.2669 24.2817 17.3138 24.2661 17.3555C24.2557 17.3815 24.2583 17.3997 24.2739 17.4102C24.2896 17.4154 24.2948 17.431 24.2896 17.457C24.2843 17.4727 24.2765 17.4909 24.2661 17.5117C24.2609 17.5326 24.2609 17.5534 24.2661 17.5742C24.2661 17.6003 24.2713 17.6263 24.2817 17.6523C24.2974 17.6732 24.3052 17.7018 24.3052 17.7383C24.3104 17.7747 24.3052 17.8216 24.2896 17.8789C24.2791 17.9362 24.2713 17.9857 24.2661 18.0273C24.2713 18.069 24.2713 18.0951 24.2661 18.1055C24.2661 18.1159 24.2661 18.1263 24.2661 18.1367C24.2661 18.1784 24.2661 18.2148 24.2661 18.2461C24.2661 18.2773 24.2635 18.3112 24.2583 18.3477C24.2635 18.4049 24.2609 18.4492 24.2505 18.4805C24.2401 18.5065 24.2323 18.5326 24.2271 18.5586C24.2375 18.5951 24.2401 18.6159 24.2349 18.6211C24.2297 18.6263 24.2271 18.6341 24.2271 18.6445C24.2271 18.6602 24.2297 18.6758 24.2349 18.6914C24.2401 18.707 24.2401 18.7201 24.2349 18.7305C24.2297 18.7878 24.2192 18.832 24.2036 18.8633C24.1932 18.8945 24.1932 18.9388 24.2036 18.9961C24.214 19.0326 24.2218 19.056 24.2271 19.0664C24.2323 19.082 24.2323 19.0951 24.2271 19.1055C24.2218 19.1419 24.2036 19.1732 24.1724 19.1992C24.1411 19.2253 24.1255 19.2539 24.1255 19.2852C24.063 19.2799 24.0057 19.2852 23.9536 19.3008C23.9067 19.3164 23.8599 19.3112 23.813 19.2852C23.7765 19.2956 23.7323 19.306 23.6802 19.3164C23.6281 19.3268 23.5786 19.3294 23.5317 19.3242C23.4744 19.3086 23.4354 19.3034 23.4146 19.3086C23.3989 19.3138 23.3859 19.3112 23.3755 19.3008C23.3651 19.1966 23.3521 19.1107 23.3364 19.043C23.3208 18.9753 23.3338 18.9154 23.3755 18.8633C23.3755 18.8477 23.3729 18.832 23.3677 18.8164C23.3625 18.8008 23.3625 18.7826 23.3677 18.7617C23.3729 18.7044 23.3703 18.6628 23.3599 18.6367C23.3547 18.6107 23.3521 18.5872 23.3521 18.5664C23.3573 18.5456 23.3625 18.5273 23.3677 18.5117C23.3781 18.4961 23.3833 18.4805 23.3833 18.4648C23.3885 18.4388 23.3859 18.4128 23.3755 18.3867C23.3651 18.3555 23.3599 18.3242 23.3599 18.293C23.3599 18.2669 23.3625 18.2383 23.3677 18.207C23.3729 18.1758 23.3755 18.1471 23.3755 18.1211C23.3755 18.0951 23.3677 18.0664 23.3521 18.0352C23.3416 18.0039 23.3468 17.9727 23.3677 17.9414C23.3781 17.9206 23.3807 17.8893 23.3755 17.8477C23.3755 17.806 23.3755 17.7643 23.3755 17.7227C23.3755 17.6966 23.3755 17.6732 23.3755 17.6523C23.3807 17.6315 23.3859 17.6081 23.3911 17.582C23.3911 17.5508 23.3885 17.5221 23.3833 17.4961C23.3833 17.4648 23.3833 17.4362 23.3833 17.4102C23.3833 17.3997 23.3859 17.3867 23.3911 17.3711C23.3963 17.3503 23.3963 17.3346 23.3911 17.3242C23.3807 17.2773 23.3755 17.2409 23.3755 17.2148C23.3807 17.1888 23.3833 17.168 23.3833 17.1523C23.3885 17.1263 23.3885 17.1003 23.3833 17.0742C23.3833 17.043 23.3859 17.0091 23.3911 16.9727C23.3911 16.9518 23.3885 16.931 23.3833 16.9102C23.3781 16.8893 23.3781 16.8659 23.3833 16.8398C23.3885 16.793 23.3885 16.7617 23.3833 16.7461C23.3781 16.7305 23.3729 16.7148 23.3677 16.6992C23.3677 16.6836 23.3703 16.668 23.3755 16.6523C23.3807 16.6367 23.3833 16.6185 23.3833 16.5977C23.3833 16.556 23.3781 16.5091 23.3677 16.457C23.3573 16.4049 23.3521 16.3581 23.3521 16.3164C23.3625 16.2122 23.3573 16.1549 23.3364 16.1445C23.3468 16.1185 23.3547 16.0951 23.3599 16.0742C23.3651 16.0534 23.3703 16.0299 23.3755 16.0039C23.3755 15.9674 23.3729 15.931 23.3677 15.8945C23.3625 15.8581 23.3651 15.8112 23.3755 15.7539C23.3807 15.7435 23.3859 15.7305 23.3911 15.7148C23.4015 15.6992 23.4067 15.6836 23.4067 15.668C23.4067 15.6471 23.4041 15.6263 23.3989 15.6055C23.3937 15.5846 23.3937 15.5612 23.3989 15.5352C23.3989 15.4883 23.4015 15.4388 23.4067 15.3867C23.4119 15.3346 23.4198 15.2826 23.4302 15.2305C23.4406 15.1836 23.4432 15.1497 23.438 15.1289C23.4328 15.1081 23.4302 15.0898 23.4302 15.0742C23.4302 15.0378 23.4354 15.0039 23.4458 14.9727C23.4562 14.9414 23.4562 14.9049 23.4458 14.8633C23.4458 14.8529 23.4432 14.8398 23.438 14.8242C23.438 14.8034 23.438 14.7799 23.438 14.7539C23.4432 14.7018 23.4432 14.6654 23.438 14.6445C23.4328 14.6185 23.4302 14.5951 23.4302 14.5742C23.4406 14.5326 23.4432 14.5091 23.438 14.5039C23.4328 14.4987 23.4302 14.4909 23.4302 14.4805C23.4406 14.4596 23.4432 14.4466 23.438 14.4414C23.4328 14.431 23.4302 14.4154 23.4302 14.3945C23.4354 14.3529 23.438 14.319 23.438 14.293C23.4432 14.2617 23.4432 14.2201 23.438 14.168C23.4276 14.1315 23.425 14.1107 23.4302 14.1055C23.4406 14.1003 23.4432 14.0924 23.438 14.082C23.438 14.0664 23.4328 14.0482 23.4224 14.0273C23.4119 14.0065 23.4015 13.9857 23.3911 13.9648C23.4015 13.9336 23.4041 13.8971 23.3989 13.8555C23.3937 13.8138 23.3937 13.7721 23.3989 13.7305C23.3989 13.7201 23.4015 13.707 23.4067 13.6914C23.4119 13.6706 23.4146 13.6549 23.4146 13.6445C23.3989 13.6029 23.3885 13.5742 23.3833 13.5586C23.3833 13.5378 23.3807 13.5221 23.3755 13.5117C23.3703 13.4909 23.3625 13.4701 23.3521 13.4492C23.3416 13.4284 23.3364 13.4102 23.3364 13.3945C23.3364 13.3633 23.3442 13.3346 23.3599 13.3086C23.3755 13.2826 23.3911 13.2565 23.4067 13.2305C23.4172 13.2201 23.4276 13.2122 23.438 13.207C23.4536 13.1966 23.4718 13.194 23.4927 13.1992C23.5031 13.1888 23.5135 13.1784 23.5239 13.168C23.5396 13.1523 23.5552 13.1393 23.5708 13.1289C23.6125 13.1185 23.6437 13.1237 23.6646 13.1445C23.6906 13.1602 23.7166 13.1732 23.7427 13.1836C23.7843 13.1732 23.8286 13.1706 23.8755 13.1758C23.9224 13.1758 23.9744 13.1706 24.0317 13.1602C24.0786 13.1497 24.1125 13.1471 24.1333 13.1523C24.1541 13.1523 24.1698 13.1523 24.1802 13.1523C24.2479 13.1367 24.3026 13.1289 24.3442 13.1289C24.3859 13.1289 24.4224 13.1315 24.4536 13.1367C24.4953 13.1367 24.5187 13.1393 24.5239 13.1445C24.5343 13.1497 24.5448 13.1523 24.5552 13.1523C24.5812 13.1419 24.6047 13.1419 24.6255 13.1523C24.6463 13.1576 24.6672 13.1628 24.688 13.168C24.7297 13.1732 24.7713 13.1758 24.813 13.1758C24.8547 13.1758 24.8963 13.1784 24.938 13.1836C24.9797 13.1888 25.0213 13.194 25.063 13.1992C25.1099 13.2044 25.1541 13.2148 25.1958 13.2305C25.2114 13.2357 25.2271 13.2435 25.2427 13.2539C25.2583 13.2643 25.2739 13.2721 25.2896 13.2773C25.3104 13.2826 25.3338 13.2852 25.3599 13.2852C25.3911 13.2799 25.4198 13.2826 25.4458 13.293C25.5031 13.3034 25.5578 13.3216 25.6099 13.3477C25.6672 13.3685 25.7244 13.3841 25.7817 13.3945C25.8078 13.4049 25.8364 13.4154 25.8677 13.4258C25.8989 13.431 25.9276 13.444 25.9536 13.4648C26.0265 13.4648 26.0916 13.4727 26.1489 13.4883C26.2062 13.4987 26.2557 13.5143 26.2974 13.5352C26.3234 13.5456 26.3521 13.556 26.3833 13.5664C26.4198 13.5768 26.4484 13.5924 26.4692 13.6133C26.4953 13.6341 26.5187 13.6523 26.5396 13.668C26.5604 13.6836 26.5812 13.7018 26.6021 13.7227C26.6333 13.7487 26.6515 13.7695 26.6567 13.7852C26.6672 13.7956 26.6776 13.806 26.688 13.8164C26.7192 13.8424 26.7375 13.8633 26.7427 13.8789C26.7531 13.8945 26.7635 13.9049 26.7739 13.9102C26.8 13.9258 26.8182 13.9414 26.8286 13.957C26.8442 13.9674 26.8599 13.9753 26.8755 13.9805C26.8859 14.0221 26.9041 14.0534 26.9302 14.0742C26.9614 14.0951 26.9901 14.1185 27.0161 14.1445C27.0422 14.1914 27.0578 14.2279 27.063 14.2539C27.0682 14.2799 27.0812 14.2982 27.1021 14.3086C27.1281 14.3971 27.1437 14.4753 27.1489 14.543C27.1541 14.6107 27.1776 14.6628 27.2192 14.6992C27.214 14.7409 27.2166 14.7799 27.2271 14.8164C27.2427 14.8477 27.2583 14.8815 27.2739 14.918C27.2635 14.944 27.2609 14.9701 27.2661 14.9961C27.2713 15.0169 27.2739 15.0404 27.2739 15.0664C27.2739 15.0924 27.2661 15.1185 27.2505 15.1445C27.2401 15.1706 27.2453 15.194 27.2661 15.2148C27.2453 15.2773 27.2244 15.3424 27.2036 15.4102C27.188 15.4727 27.1619 15.5326 27.1255 15.5898C27.1151 15.6003 27.1073 15.6133 27.1021 15.6289C27.0968 15.6393 27.0812 15.6445 27.0552 15.6445C27.0604 15.6758 27.0552 15.6992 27.0396 15.7148C27.0239 15.7253 27.0161 15.7435 27.0161 15.7695C26.9744 15.7956 26.9406 15.8216 26.9146 15.8477C26.8937 15.8685 26.8703 15.8997 26.8442 15.9414C26.8286 15.9622 26.813 15.9779 26.7974 15.9883C26.7869 15.9987 26.7687 16.0117 26.7427 16.0273C26.701 16.0534 26.6698 16.0716 26.6489 16.082C26.6281 16.0924 26.6099 16.1029 26.5942 16.1133C26.5578 16.1289 26.5343 16.1419 26.5239 16.1523C26.5187 16.1628 26.5109 16.1706 26.5005 16.1758C26.4849 16.1862 26.4666 16.1966 26.4458 16.207C26.4302 16.2122 26.4146 16.2201 26.3989 16.2305C26.3677 16.2565 26.3442 16.2721 26.3286 16.2773C26.3182 16.2826 26.3104 16.2878 26.3052 16.293C26.2583 16.3138 26.2062 16.3346 26.1489 16.3555C26.0968 16.3711 26.0448 16.3971 25.9927 16.4336C25.9666 16.4232 25.9406 16.4258 25.9146 16.4414C25.8885 16.457 25.8599 16.4701 25.8286 16.4805C25.7869 16.4909 25.7505 16.4961 25.7192 16.4961C25.6932 16.4909 25.675 16.5091 25.6646 16.5508C25.6541 16.5872 25.6646 16.6133 25.6958 16.6289C25.7323 16.6445 25.7661 16.6654 25.7974 16.6914C25.8078 16.7174 25.8208 16.7435 25.8364 16.7695C25.8573 16.7904 25.8833 16.806 25.9146 16.8164C25.9562 16.8581 25.9797 16.8945 25.9849 16.9258C25.9953 16.957 26.0213 16.9753 26.063 16.9805C26.0734 17.0065 26.0942 17.0404 26.1255 17.082C26.1619 17.1133 26.1802 17.1341 26.1802 17.1445C26.1854 17.1549 26.1906 17.1654 26.1958 17.1758C26.2218 17.2174 26.2401 17.2409 26.2505 17.2461C26.2609 17.2513 26.2661 17.2591 26.2661 17.2695C26.2869 17.3008 26.3078 17.3346 26.3286 17.3711C26.3547 17.4076 26.3729 17.4466 26.3833 17.4883C26.3989 17.5039 26.4146 17.5195 26.4302 17.5352C26.4458 17.5508 26.464 17.5664 26.4849 17.582C26.4849 17.6029 26.4875 17.6185 26.4927 17.6289C26.5031 17.6393 26.5083 17.6549 26.5083 17.6758C26.5396 17.7122 26.5734 17.7487 26.6099 17.7852C26.6463 17.8216 26.6724 17.8685 26.688 17.9258C26.7036 17.9362 26.7166 17.9492 26.7271 17.9648C26.7375 17.9753 26.7531 17.9831 26.7739 17.9883C26.7896 18.0404 26.813 18.0872 26.8442 18.1289C26.8807 18.1654 26.9146 18.207 26.9458 18.2539C26.9614 18.2799 26.9849 18.306 27.0161 18.332C27.0369 18.3581 27.0552 18.3867 27.0708 18.418C27.0864 18.444 27.1047 18.4701 27.1255 18.4961C27.1515 18.5378 27.1698 18.5742 27.1802 18.6055C27.1958 18.6315 27.2166 18.6497 27.2427 18.6602C27.2479 18.6862 27.2557 18.707 27.2661 18.7227C27.2817 18.7331 27.2869 18.7539 27.2817 18.7852C27.3026 18.7956 27.3234 18.8086 27.3442 18.8242C27.3651 18.8346 27.3885 18.8451 27.4146 18.8555C27.425 18.8971 27.4328 18.9336 27.438 18.9648C27.4484 18.9909 27.4484 19.0195 27.438 19.0508ZM26.3521 14.9102C26.326 14.8581 26.3104 14.8216 26.3052 14.8008C26.3052 14.7799 26.3026 14.7643 26.2974 14.7539C26.2922 14.7383 26.2817 14.7253 26.2661 14.7148C26.2557 14.7044 26.2453 14.6914 26.2349 14.6758C26.2088 14.6237 26.1854 14.5898 26.1646 14.5742C26.1489 14.5638 26.1359 14.5508 26.1255 14.5352C26.1151 14.5143 26.1021 14.5013 26.0864 14.4961C26.0448 14.4648 26.0161 14.4388 26.0005 14.418C25.9901 14.3971 25.9718 14.3893 25.9458 14.3945C25.9354 14.3633 25.9119 14.3451 25.8755 14.3398C25.8442 14.3294 25.8234 14.3086 25.813 14.2773C25.7713 14.2721 25.7375 14.2617 25.7114 14.2461C25.6854 14.2305 25.6567 14.2122 25.6255 14.1914C25.6099 14.1966 25.5942 14.2044 25.5786 14.2148C25.5682 14.2253 25.55 14.2279 25.5239 14.2227C25.4979 14.2174 25.4744 14.2096 25.4536 14.1992C25.438 14.1888 25.4172 14.181 25.3911 14.1758C25.3338 14.181 25.2922 14.181 25.2661 14.1758C25.2401 14.1654 25.2192 14.1602 25.2036 14.1602C25.1515 14.1393 25.1099 14.1289 25.0786 14.1289C25.0369 14.1237 24.9927 14.1263 24.9458 14.1367C24.8989 14.1419 24.8521 14.1471 24.8052 14.1523C24.7166 14.1523 24.6307 14.1471 24.5474 14.1367C24.464 14.1263 24.3807 14.1263 24.2974 14.1367C24.2869 14.1576 24.2869 14.1758 24.2974 14.1914C24.313 14.2018 24.3208 14.2201 24.3208 14.2461C24.3156 14.3034 24.3156 14.3451 24.3208 14.3711C24.326 14.3919 24.3286 14.4128 24.3286 14.4336C24.3182 14.4753 24.3156 14.5013 24.3208 14.5117C24.326 14.5221 24.3286 14.5299 24.3286 14.5352V14.668C24.3182 14.7357 24.313 14.8034 24.313 14.8711C24.3182 14.9336 24.3182 14.9987 24.313 15.0664C24.313 15.1445 24.3104 15.2148 24.3052 15.2773C24.3052 15.3346 24.3026 15.3945 24.2974 15.457C24.3026 15.5143 24.3 15.5534 24.2896 15.5742C24.2843 15.5898 24.2817 15.6081 24.2817 15.6289C24.2765 15.681 24.2817 15.7383 24.2974 15.8008C24.3547 15.8164 24.4093 15.8242 24.4614 15.8242C24.5187 15.8242 24.5604 15.8242 24.5864 15.8242C24.6229 15.8294 24.6437 15.832 24.6489 15.832C24.6593 15.8268 24.675 15.8242 24.6958 15.8242C24.7479 15.8294 24.7948 15.8372 24.8364 15.8477C24.8833 15.8529 24.9328 15.8503 24.9849 15.8398C25.0109 15.8398 25.0343 15.8398 25.0552 15.8398C25.0812 15.8346 25.1073 15.8294 25.1333 15.8242C25.175 15.8086 25.2036 15.8008 25.2192 15.8008C25.2401 15.8008 25.2557 15.8008 25.2661 15.8008C25.3234 15.7799 25.3625 15.7695 25.3833 15.7695C25.4041 15.7643 25.4198 15.7591 25.4302 15.7539C25.5343 15.7122 25.6099 15.6836 25.6567 15.668C25.7297 15.6419 25.7843 15.6237 25.8208 15.6133C25.8625 15.6029 25.8989 15.5951 25.9302 15.5898C25.9458 15.543 25.9771 15.5143 26.0239 15.5039C26.0708 15.4935 26.0994 15.4596 26.1099 15.4023C26.1255 15.3919 26.1411 15.3867 26.1567 15.3867C26.1776 15.3867 26.1906 15.3763 26.1958 15.3555C26.2114 15.3086 26.2271 15.2591 26.2427 15.207C26.2583 15.1549 26.2791 15.1107 26.3052 15.0742C26.3 15.0326 26.3026 15.0065 26.313 14.9961C26.3286 14.9805 26.3416 14.9518 26.3521 14.9102Z" fill="black"/>
</svg>
