<svg width="28" height="28" viewBox="0 0 28 28" fill="none" xmlns="http://www.w3.org/2000/svg">
<path d="M5.78369 8.4917C5.79736 8.50537 5.80876 8.5236 5.81787 8.54639C5.82699 8.56462 5.83154 8.58512 5.83154 8.60791C5.8361 8.6307 5.83382 8.65348 5.82471 8.67627C5.82015 8.6945 5.8042 8.70589 5.77686 8.71045C5.79508 8.72868 5.79964 8.74691 5.79053 8.76514C5.78141 8.77881 5.77686 8.79704 5.77686 8.81982C5.7723 8.86995 5.7723 8.92008 5.77686 8.97021C5.78141 9.02035 5.77913 9.0682 5.77002 9.11377C5.76546 9.13656 5.75863 9.15706 5.74951 9.17529C5.7404 9.18896 5.73128 9.20492 5.72217 9.22314C5.71305 9.24593 5.70394 9.26644 5.69482 9.28467C5.68571 9.3029 5.6766 9.31657 5.66748 9.32568C5.63102 9.34847 5.58545 9.35075 5.53076 9.33252C5.47607 9.31429 5.42594 9.31429 5.38037 9.33252C5.34391 9.30518 5.30745 9.29606 5.271 9.30518C5.23454 9.31429 5.1958 9.3029 5.15479 9.271C5.11377 9.28467 5.07275 9.28695 5.03174 9.27783C4.99528 9.26872 4.95426 9.26188 4.90869 9.25732C4.89502 9.25732 4.88135 9.2596 4.86768 9.26416C4.854 9.26872 4.84033 9.26872 4.82666 9.26416C4.80387 9.2596 4.78109 9.25277 4.7583 9.24365C4.73551 9.22998 4.71273 9.22314 4.68994 9.22314C4.67171 9.21859 4.6512 9.22087 4.62842 9.22998C4.61019 9.23454 4.58968 9.23682 4.56689 9.23682H4.45068C4.38688 9.2277 4.3208 9.22087 4.25244 9.21631C4.18408 9.21175 4.10661 9.20492 4.02002 9.1958C3.95166 9.18669 3.88102 9.18213 3.80811 9.18213C3.73975 9.18213 3.66683 9.18669 3.58936 9.1958C3.56657 9.24137 3.55745 9.28923 3.56201 9.33936C3.57113 9.38493 3.57796 9.43278 3.58252 9.48291C3.58708 9.53304 3.58936 9.58317 3.58936 9.6333C3.59391 9.68343 3.59847 9.73356 3.60303 9.78369C3.60303 9.79736 3.60075 9.81331 3.59619 9.83154C3.59163 9.84521 3.58936 9.85889 3.58936 9.87256C3.58936 9.8999 3.59163 9.93408 3.59619 9.9751C3.60075 10.0161 3.60303 10.0549 3.60303 10.0913C3.60303 10.1232 3.60075 10.1528 3.59619 10.1802C3.59163 10.203 3.59619 10.228 3.60986 10.2554C3.65088 10.269 3.69645 10.2759 3.74658 10.2759C3.77848 10.2804 3.80811 10.2827 3.83545 10.2827C3.86735 10.2827 3.89697 10.2827 3.92432 10.2827C3.97445 10.2782 4.0223 10.2759 4.06787 10.2759C4.118 10.2759 4.16813 10.2759 4.21826 10.2759C4.29574 10.2759 4.37093 10.2759 4.44385 10.2759C4.52132 10.2759 4.60563 10.2713 4.69678 10.2622C4.73779 10.2576 4.77653 10.2531 4.81299 10.2485C4.854 10.2394 4.89502 10.2463 4.93604 10.269C4.95882 10.2599 4.98161 10.2554 5.00439 10.2554C5.03174 10.2554 5.0568 10.2531 5.07959 10.2485C5.10238 10.244 5.12061 10.244 5.13428 10.2485C5.14795 10.2531 5.16618 10.2554 5.18896 10.2554C5.26188 10.2508 5.31885 10.2508 5.35986 10.2554C5.40088 10.2599 5.43962 10.2622 5.47607 10.2622C5.49886 10.2576 5.51937 10.2531 5.5376 10.2485C5.56038 10.244 5.58089 10.244 5.59912 10.2485C5.62191 10.2485 5.6333 10.2576 5.6333 10.2759C5.63786 10.2896 5.64469 10.3032 5.65381 10.3169C5.67204 10.3534 5.68115 10.3921 5.68115 10.4331C5.68115 10.4696 5.67887 10.5151 5.67432 10.5698C5.67887 10.5926 5.6766 10.6154 5.66748 10.6382C5.66292 10.6564 5.66064 10.6724 5.66064 10.686C5.65609 10.7453 5.65609 10.8 5.66064 10.8501C5.6652 10.8957 5.6766 10.9435 5.69482 10.9937C5.68571 11.0164 5.6766 11.0415 5.66748 11.0688C5.65837 11.0916 5.64469 11.1121 5.62646 11.1304C5.60824 11.1258 5.59229 11.1281 5.57861 11.1372C5.56494 11.1463 5.55127 11.1509 5.5376 11.1509C5.51481 11.1509 5.49658 11.1486 5.48291 11.144C5.46924 11.1349 5.45329 11.1258 5.43506 11.1167C5.42594 11.103 5.40999 11.103 5.38721 11.1167C5.36898 11.1258 5.36214 11.1144 5.3667 11.0825C5.32113 11.1099 5.28239 11.1258 5.25049 11.1304C5.21859 11.1304 5.1958 11.1395 5.18213 11.1577C5.15934 11.1395 5.132 11.1326 5.1001 11.1372C5.07275 11.1372 5.04541 11.1418 5.01807 11.1509C4.99528 11.1418 4.97021 11.1372 4.94287 11.1372C4.92008 11.1326 4.88818 11.1281 4.84717 11.1235C4.82438 11.1144 4.79704 11.1167 4.76514 11.1304C4.73779 11.144 4.71273 11.1532 4.68994 11.1577C4.64437 11.144 4.60335 11.1418 4.56689 11.1509C4.53044 11.16 4.49626 11.1714 4.46436 11.1851C4.44157 11.1896 4.4279 11.1851 4.42334 11.1714C4.41878 11.1532 4.40511 11.1463 4.38232 11.1509C4.3641 11.1646 4.33675 11.1714 4.30029 11.1714C4.26839 11.1668 4.24561 11.1737 4.23193 11.1919C4.20915 11.1691 4.17497 11.1646 4.12939 11.1782C4.08838 11.1873 4.0542 11.1782 4.02686 11.1509C4.01774 11.1691 4.00407 11.1759 3.98584 11.1714C3.97217 11.1623 3.95394 11.16 3.93115 11.1646C3.91292 11.1646 3.89469 11.1668 3.87646 11.1714C3.86279 11.1759 3.84684 11.1782 3.82861 11.1782C3.80583 11.1828 3.77848 11.1805 3.74658 11.1714C3.71924 11.1623 3.69417 11.1646 3.67139 11.1782C3.6486 11.1919 3.63949 11.2101 3.64404 11.2329C3.6486 11.2557 3.6486 11.2808 3.64404 11.3081C3.63949 11.3218 3.63493 11.3354 3.63037 11.3491C3.62581 11.3628 3.62354 11.3765 3.62354 11.3901C3.62354 11.4084 3.62581 11.4266 3.63037 11.4448C3.63949 11.4585 3.64176 11.4744 3.63721 11.4927C3.63721 11.5291 3.63037 11.5679 3.6167 11.6089C3.60758 11.6499 3.59847 11.6909 3.58936 11.7319C3.57113 11.8049 3.56201 11.8618 3.56201 11.9028C3.56201 11.9438 3.55062 11.9803 3.52783 12.0122C3.5415 12.0396 3.54834 12.0646 3.54834 12.0874C3.5529 12.1239 3.55518 12.1626 3.55518 12.2036C3.55518 12.2446 3.55518 12.2834 3.55518 12.3198C3.55518 12.3472 3.55518 12.3768 3.55518 12.4087C3.55518 12.436 3.55062 12.4657 3.5415 12.4976C3.53695 12.5112 3.53239 12.5249 3.52783 12.5386C3.52327 12.5522 3.521 12.5659 3.521 12.5796C3.51644 12.6024 3.51872 12.6274 3.52783 12.6548C3.53695 12.6821 3.53695 12.7095 3.52783 12.7368C3.56885 12.7596 3.61214 12.7687 3.65771 12.7642C3.70785 12.7596 3.76481 12.7573 3.82861 12.7573C3.90609 12.7528 3.98356 12.7459 4.06104 12.7368C4.14307 12.7277 4.21598 12.7231 4.27979 12.7231C4.31624 12.7231 4.34814 12.7277 4.37549 12.7368C4.40739 12.7459 4.43929 12.7459 4.47119 12.7368C4.50309 12.7277 4.53955 12.7209 4.58057 12.7163C4.62614 12.7072 4.66715 12.7049 4.70361 12.7095C4.75374 12.7049 4.79248 12.7049 4.81982 12.7095C4.85173 12.714 4.88135 12.7163 4.90869 12.7163C4.94971 12.7163 4.98617 12.7163 5.01807 12.7163C5.05452 12.7118 5.09098 12.7072 5.12744 12.7026C5.14567 12.6981 5.16162 12.6935 5.17529 12.689C5.19352 12.6844 5.21175 12.6821 5.22998 12.6821C5.26188 12.6867 5.28467 12.689 5.29834 12.689C5.31201 12.6844 5.3234 12.6821 5.33252 12.6821C5.35986 12.6912 5.37809 12.6935 5.38721 12.689C5.39632 12.6844 5.40316 12.6821 5.40771 12.6821C5.42594 12.6912 5.44873 12.6912 5.47607 12.6821C5.50342 12.6685 5.5376 12.6662 5.57861 12.6753C5.59229 12.6844 5.59912 12.7004 5.59912 12.7231C5.60368 12.7414 5.61279 12.755 5.62646 12.7642C5.62191 12.7869 5.62646 12.8006 5.64014 12.8052C5.65381 12.8097 5.66292 12.8211 5.66748 12.8394C5.6766 12.9487 5.67432 13.0581 5.66064 13.1675C5.64697 13.2723 5.63786 13.384 5.6333 13.5024C5.62419 13.5161 5.61279 13.5252 5.59912 13.5298C5.58545 13.5389 5.5695 13.548 5.55127 13.5571C5.5376 13.5662 5.52165 13.5754 5.50342 13.5845C5.48975 13.5936 5.4738 13.5981 5.45557 13.5981C5.43734 13.5981 5.41911 13.5936 5.40088 13.5845C5.38265 13.5799 5.36442 13.5754 5.34619 13.5708C5.3234 13.5708 5.30062 13.5731 5.27783 13.5776C5.2596 13.5822 5.23682 13.5845 5.20947 13.5845C5.17301 13.5845 5.132 13.5822 5.08643 13.5776C5.04541 13.5731 5.00212 13.5685 4.95654 13.564C4.90641 13.5594 4.85856 13.5549 4.81299 13.5503C4.77197 13.5503 4.74007 13.5435 4.71729 13.5298C4.6945 13.5252 4.67855 13.5275 4.66943 13.5366C4.66032 13.5503 4.64437 13.5571 4.62158 13.5571C4.57601 13.5435 4.52588 13.5366 4.47119 13.5366C4.42106 13.5366 4.36637 13.5343 4.30713 13.5298C4.26611 13.5252 4.2251 13.5252 4.18408 13.5298C4.14762 13.5389 4.10661 13.5435 4.06104 13.5435C4.02458 13.548 3.98584 13.548 3.94482 13.5435C3.90837 13.5389 3.87191 13.5389 3.83545 13.5435C3.79443 13.5435 3.7557 13.5457 3.71924 13.5503C3.68734 13.5594 3.65316 13.5617 3.6167 13.5571C3.59391 13.5571 3.5734 13.5526 3.55518 13.5435C3.5415 13.5389 3.52327 13.5366 3.50049 13.5366C3.47314 13.5412 3.45036 13.5389 3.43213 13.5298C3.4139 13.5252 3.39567 13.5229 3.37744 13.5229C3.34098 13.5138 3.30225 13.507 3.26123 13.5024C3.22021 13.5024 3.18148 13.491 3.14502 13.4683C3.12679 13.4774 3.10856 13.4797 3.09033 13.4751C3.07666 13.4705 3.06071 13.4683 3.04248 13.4683C3.01969 13.4728 3.00146 13.4728 2.98779 13.4683C2.97412 13.4683 2.96273 13.4683 2.95361 13.4683C2.92171 13.4728 2.88981 13.4797 2.85791 13.4888C2.83057 13.5024 2.80094 13.5047 2.76904 13.4956C2.73714 13.4728 2.71891 13.4523 2.71436 13.4341C2.7098 13.4159 2.70296 13.3953 2.69385 13.3726C2.68929 13.3589 2.68245 13.3452 2.67334 13.3315C2.66878 13.3133 2.6665 13.2951 2.6665 13.2769C2.66195 13.2541 2.66195 13.2358 2.6665 13.2222C2.67106 13.2039 2.67106 13.1857 2.6665 13.1675C2.66195 13.1447 2.65511 13.1242 2.646 13.106C2.63688 13.0832 2.62777 13.0627 2.61865 13.0444C2.62777 12.9943 2.62777 12.9465 2.61865 12.9009C2.60954 12.8553 2.60726 12.8052 2.61182 12.7505C2.61182 12.7095 2.6141 12.6799 2.61865 12.6616C2.62321 12.6434 2.62549 12.6274 2.62549 12.6138C2.62549 12.6001 2.62321 12.5864 2.61865 12.5728C2.6141 12.5591 2.60954 12.5454 2.60498 12.5317C2.60042 12.509 2.60042 12.4976 2.60498 12.4976C2.60954 12.493 2.60954 12.4793 2.60498 12.4565C2.60042 12.4201 2.58903 12.3813 2.5708 12.3403C2.55713 12.2993 2.55713 12.2583 2.5708 12.2173C2.57992 12.1899 2.57992 12.1694 2.5708 12.1558C2.56624 12.1421 2.56396 12.1307 2.56396 12.1216C2.56396 12.0988 2.56624 12.076 2.5708 12.0532C2.57992 12.0259 2.58903 11.9985 2.59814 11.9712C2.59814 11.9484 2.59587 11.9302 2.59131 11.9165C2.58675 11.8983 2.58219 11.88 2.57764 11.8618C2.58675 11.8299 2.58675 11.8117 2.57764 11.8071C2.57308 11.798 2.5708 11.7866 2.5708 11.7729C2.5708 11.7547 2.57308 11.7365 2.57764 11.7183C2.58219 11.7 2.58447 11.6818 2.58447 11.6636C2.57992 11.6271 2.57992 11.5952 2.58447 11.5679C2.59359 11.536 2.58675 11.5109 2.56396 11.4927C2.58675 11.4471 2.59131 11.4015 2.57764 11.356C2.56852 11.3058 2.56396 11.2534 2.56396 11.1987C2.55941 11.1759 2.55941 11.1554 2.56396 11.1372C2.56852 11.119 2.57308 11.0985 2.57764 11.0757C2.57764 11.0575 2.57536 11.0415 2.5708 11.0278C2.56624 11.0096 2.56396 10.9914 2.56396 10.9731C2.56852 10.9458 2.5708 10.9207 2.5708 10.8979C2.5708 10.8706 2.5708 10.841 2.5708 10.8091C2.5708 10.7954 2.57308 10.7817 2.57764 10.7681C2.58219 10.7544 2.58447 10.7407 2.58447 10.7271C2.57992 10.7179 2.57536 10.7043 2.5708 10.686C2.56624 10.6632 2.56396 10.645 2.56396 10.6313C2.56396 10.5903 2.5708 10.5653 2.58447 10.5562C2.57536 10.5334 2.56624 10.5151 2.55713 10.5015C2.55257 10.4878 2.55941 10.4696 2.57764 10.4468C2.55941 10.3966 2.55257 10.367 2.55713 10.3579C2.56624 10.3488 2.5708 10.3351 2.5708 10.3169C2.56624 10.2668 2.56169 10.2235 2.55713 10.187C2.55257 10.146 2.55029 10.1073 2.55029 10.0708C2.55029 10.0571 2.55257 10.0435 2.55713 10.0298C2.56169 10.0116 2.56396 9.99561 2.56396 9.98193C2.56396 9.95915 2.56169 9.94092 2.55713 9.92725C2.55257 9.91357 2.55257 9.89762 2.55713 9.87939C2.57992 9.80192 2.59131 9.74268 2.59131 9.70166C2.59131 9.65609 2.6027 9.61735 2.62549 9.58545C2.59359 9.5262 2.58675 9.45785 2.60498 9.38037C2.62321 9.29834 2.63232 9.21631 2.63232 9.13428C2.63688 9.07959 2.6346 9.02262 2.62549 8.96338C2.62093 8.89958 2.62321 8.8335 2.63232 8.76514C2.63688 8.71501 2.6346 8.67399 2.62549 8.64209C2.61637 8.61019 2.61182 8.58285 2.61182 8.56006C2.61182 8.53727 2.61637 8.51449 2.62549 8.4917C2.6346 8.46891 2.64372 8.44613 2.65283 8.42334C2.66195 8.40511 2.66878 8.38916 2.67334 8.37549C2.68245 8.35726 2.69613 8.34359 2.71436 8.33447C2.91032 8.37093 3.10173 8.38005 3.28857 8.36182C3.47998 8.33903 3.66227 8.33447 3.83545 8.34814C3.88558 8.35726 3.93343 8.36865 3.979 8.38232C4.02913 8.39144 4.07926 8.39827 4.12939 8.40283C4.1613 8.40739 4.1932 8.40739 4.2251 8.40283C4.257 8.39372 4.29801 8.38688 4.34814 8.38232C4.39372 8.39144 4.42334 8.396 4.43701 8.396C4.45524 8.39144 4.46891 8.38916 4.47803 8.38916C4.50081 8.38916 4.52132 8.39372 4.53955 8.40283C4.55778 8.40739 4.57829 8.40967 4.60107 8.40967C4.63753 8.41878 4.67171 8.42334 4.70361 8.42334C4.73551 8.42334 4.76969 8.42562 4.80615 8.43018C4.8335 8.43018 4.86312 8.4279 4.89502 8.42334C4.92692 8.41878 4.95882 8.41878 4.99072 8.42334C5.03174 8.42334 5.08187 8.43018 5.14111 8.44385C5.20036 8.45296 5.25732 8.4598 5.31201 8.46436C5.34847 8.4598 5.37354 8.4598 5.38721 8.46436C5.40544 8.46891 5.42139 8.47347 5.43506 8.47803C5.49886 8.48714 5.55811 8.48942 5.61279 8.48486C5.66748 8.48031 5.72445 8.48258 5.78369 8.4917ZM11.3823 8.40283C11.3823 8.45296 11.38 8.52132 11.3755 8.60791C11.3755 8.68994 11.3641 8.75146 11.3413 8.79248C11.3504 8.88363 11.3413 8.97249 11.314 9.05908C11.2912 9.14567 11.2752 9.23454 11.2661 9.32568C11.2616 9.37126 11.2593 9.41455 11.2593 9.45557C11.2638 9.49658 11.2616 9.53988 11.2524 9.58545C11.2433 9.62191 11.2365 9.6652 11.2319 9.71533C11.2319 9.7609 11.2297 9.80876 11.2251 9.85889C11.2205 9.89535 11.2137 9.92952 11.2046 9.96143C11.1955 9.99333 11.1886 10.0275 11.1841 10.064C11.1795 10.105 11.1772 10.1437 11.1772 10.1802C11.1772 10.2166 11.175 10.2531 11.1704 10.2896C11.1613 10.3807 11.1567 10.4673 11.1567 10.5493C11.1567 10.6268 11.1545 10.7043 11.1499 10.7817C11.1453 10.8364 11.1408 10.8911 11.1362 10.9458C11.1362 11.0005 11.134 11.0529 11.1294 11.103C11.1248 11.1623 11.1203 11.2192 11.1157 11.2739C11.1112 11.3241 11.1066 11.3742 11.1021 11.4243C11.0975 11.4471 11.0929 11.4744 11.0884 11.5063C11.0884 11.5337 11.0884 11.5633 11.0884 11.5952C11.0884 11.6134 11.0907 11.6317 11.0952 11.6499C11.0998 11.6636 11.0998 11.6818 11.0952 11.7046C11.0952 11.7274 11.0929 11.7479 11.0884 11.7661C11.0838 11.7843 11.077 11.8049 11.0679 11.8276C11.0588 11.8823 11.0519 11.9393 11.0474 11.9985C11.0474 12.0578 11.0405 12.117 11.0269 12.1763C11.036 12.1899 11.0337 12.2059 11.02 12.2241C11.0109 12.2424 11.0041 12.2606 10.9995 12.2788C10.995 12.3654 10.9881 12.4543 10.979 12.5454C10.9744 12.632 10.9699 12.7118 10.9653 12.7847C10.9653 12.8348 10.9653 12.8895 10.9653 12.9487C10.9699 13.008 10.9676 13.0672 10.9585 13.1265C10.9539 13.1447 10.9471 13.1629 10.938 13.1812C10.9289 13.1994 10.9198 13.2199 10.9106 13.2427C10.9015 13.2746 10.897 13.311 10.897 13.3521C10.9015 13.3885 10.9038 13.4318 10.9038 13.4819C10.9129 13.5184 10.9175 13.5457 10.9175 13.564C10.9129 13.5959 10.9038 13.6209 10.8901 13.6392C10.8765 13.6619 10.8628 13.6847 10.8491 13.7075C10.8127 13.7121 10.7739 13.7121 10.7329 13.7075C10.6919 13.703 10.6577 13.7052 10.6304 13.7144C10.603 13.6961 10.5757 13.6802 10.5483 13.6665C10.5256 13.6574 10.5028 13.6392 10.48 13.6118C10.4572 13.5754 10.439 13.5526 10.4253 13.5435C10.4162 13.5389 10.4071 13.5298 10.3979 13.5161C10.3615 13.4797 10.3364 13.4523 10.3228 13.4341C10.3091 13.4159 10.3022 13.3976 10.3022 13.3794C10.2886 13.3794 10.2749 13.3771 10.2612 13.3726C10.2521 13.3634 10.243 13.3543 10.2339 13.3452C10.2293 13.327 10.2179 13.3156 10.1997 13.311C10.1815 13.3019 10.1655 13.2928 10.1519 13.2837C10.1427 13.2746 10.1359 13.2609 10.1313 13.2427C10.1313 13.2199 10.1131 13.2153 10.0767 13.229C10.0767 13.2108 10.0721 13.1994 10.063 13.1948C10.0539 13.1857 10.0516 13.1698 10.0562 13.147C10.0379 13.1379 10.0197 13.131 10.0015 13.1265C9.98324 13.1219 9.96501 13.1151 9.94678 13.106C9.93311 13.0968 9.91943 13.0832 9.90576 13.0649C9.89665 13.0467 9.88525 13.0262 9.87158 13.0034C9.85791 12.9943 9.84196 12.9829 9.82373 12.9692C9.81006 12.951 9.79867 12.9373 9.78955 12.9282C9.76221 12.9054 9.74854 12.8918 9.74854 12.8872C9.74854 12.8781 9.74398 12.869 9.73486 12.8599C9.71208 12.8416 9.69157 12.8257 9.67334 12.812C9.65967 12.7983 9.64372 12.7869 9.62549 12.7778C9.61637 12.755 9.60498 12.7345 9.59131 12.7163C9.57764 12.6981 9.55941 12.6844 9.53662 12.6753C9.52751 12.6571 9.52067 12.6411 9.51611 12.6274C9.51611 12.6092 9.51156 12.5955 9.50244 12.5864C9.48421 12.5682 9.47282 12.5545 9.46826 12.5454C9.46826 12.5363 9.46598 12.5272 9.46143 12.5181C9.42952 12.4816 9.40674 12.4543 9.39307 12.436C9.38395 12.4132 9.37484 12.3927 9.36572 12.3745C9.34294 12.3472 9.32699 12.3289 9.31787 12.3198C9.30876 12.3107 9.30192 12.3039 9.29736 12.2993C9.28369 12.2765 9.27458 12.2515 9.27002 12.2241C9.26546 12.1968 9.25635 12.1694 9.24268 12.1421C9.23356 12.1239 9.21761 12.1079 9.19482 12.0942C9.1766 12.076 9.16064 12.0555 9.14697 12.0327C9.13786 12.019 9.12646 12.0031 9.11279 11.9849C9.10368 11.9666 9.09001 11.953 9.07178 11.9438C9.04443 11.9165 9.02393 11.9028 9.01025 11.9028C9.00114 11.8983 8.99202 11.8914 8.98291 11.8823C8.96468 11.855 8.95101 11.8322 8.94189 11.814C8.93278 11.7912 8.92367 11.7707 8.91455 11.7524C8.89176 11.7297 8.87581 11.7091 8.8667 11.6909C8.85758 11.6727 8.84847 11.6567 8.83936 11.6431C8.80745 11.6021 8.77327 11.5679 8.73682 11.5405C8.70036 11.5132 8.67757 11.4744 8.66846 11.4243C8.64111 11.4015 8.61605 11.3787 8.59326 11.356C8.57503 11.3332 8.55452 11.3081 8.53174 11.2808C8.50895 11.2397 8.48617 11.217 8.46338 11.2124C8.44515 11.2078 8.43148 11.201 8.42236 11.1919C8.41325 11.16 8.39502 11.1395 8.36768 11.1304C8.34489 11.1213 8.32894 11.103 8.31982 11.0757C8.30615 11.0802 8.29248 11.078 8.27881 11.0688C8.26969 11.0597 8.26058 11.0506 8.25146 11.0415C8.22868 11.0324 8.20589 11.021 8.18311 11.0073C8.17399 10.9982 8.16488 10.9868 8.15576 10.9731C8.1512 10.9549 8.14437 10.939 8.13525 10.9253C8.12158 10.9116 8.10791 10.9002 8.09424 10.8911C8.08057 10.882 8.06917 10.8706 8.06006 10.8569C8.03727 10.8159 8.01904 10.784 8.00537 10.7612C7.99626 10.7384 7.97803 10.7225 7.95068 10.7134C7.94613 10.6815 7.93701 10.6564 7.92334 10.6382C7.91423 10.6154 7.90283 10.5926 7.88916 10.5698C7.86182 10.5334 7.84131 10.5083 7.82764 10.4946C7.81852 10.481 7.80941 10.4696 7.80029 10.4604C7.77751 10.4377 7.76611 10.4217 7.76611 10.4126C7.77067 10.3989 7.77067 10.3898 7.76611 10.3853C7.73877 10.3488 7.72054 10.3237 7.71143 10.3101C7.70231 10.2964 7.6932 10.2827 7.68408 10.269C7.6613 10.2326 7.64307 10.2075 7.62939 10.1938C7.61572 10.1802 7.60433 10.1688 7.59521 10.1597C7.54964 10.3784 7.52002 10.6086 7.50635 10.8501C7.49723 11.0916 7.48812 11.3468 7.479 11.6157C7.479 11.6567 7.48128 11.7 7.48584 11.7456C7.49495 11.7912 7.49723 11.839 7.49268 11.8892C7.49268 11.9028 7.4904 11.9165 7.48584 11.9302C7.48128 11.9438 7.48128 11.9575 7.48584 11.9712C7.48584 12.0076 7.48812 12.0418 7.49268 12.0737C7.49723 12.1011 7.49951 12.1398 7.49951 12.1899C7.49951 12.2264 7.49951 12.2765 7.49951 12.3403C7.49951 12.4041 7.50179 12.4679 7.50635 12.5317C7.50635 12.5819 7.5109 12.632 7.52002 12.6821C7.52913 12.7277 7.53825 12.7756 7.54736 12.8257C7.55648 12.8713 7.56787 12.9191 7.58154 12.9692C7.59521 13.0148 7.59977 13.0604 7.59521 13.106C7.59521 13.1424 7.5861 13.1766 7.56787 13.2085C7.5542 13.2358 7.55192 13.2677 7.56104 13.3042C7.53825 13.327 7.51774 13.3521 7.49951 13.3794C7.48584 13.4022 7.46533 13.4181 7.43799 13.4272C7.4152 13.4272 7.39242 13.4227 7.36963 13.4136C7.3514 13.4045 7.33089 13.3976 7.30811 13.3931C7.28076 13.4022 7.26025 13.4022 7.24658 13.3931C7.23747 13.3885 7.23063 13.384 7.22607 13.3794C7.19417 13.3794 7.15999 13.384 7.12354 13.3931C7.09163 13.4022 7.05973 13.3931 7.02783 13.3657C7.0096 13.3703 6.99593 13.3748 6.98682 13.3794C6.9777 13.384 6.96403 13.3862 6.9458 13.3862C6.91846 13.3862 6.89567 13.384 6.87744 13.3794C6.85921 13.3748 6.83643 13.3771 6.80908 13.3862C6.79541 13.3862 6.77262 13.3862 6.74072 13.3862C6.71338 13.3862 6.68376 13.3817 6.65186 13.3726C6.63363 13.3543 6.61768 13.3315 6.604 13.3042C6.58577 13.2495 6.5721 13.2085 6.56299 13.1812C6.55387 13.1538 6.54704 13.1287 6.54248 13.106C6.54248 13.0968 6.54476 13.0854 6.54932 13.0718C6.55387 13.0581 6.55615 13.0444 6.55615 13.0308C6.55615 13.0125 6.55387 12.9966 6.54932 12.9829C6.54932 12.9692 6.54932 12.9556 6.54932 12.9419C6.54932 12.9237 6.5516 12.9054 6.55615 12.8872C6.56071 12.869 6.56299 12.8485 6.56299 12.8257C6.56299 12.7892 6.56071 12.7505 6.55615 12.7095C6.5516 12.6685 6.54704 12.6229 6.54248 12.5728C6.54248 12.5591 6.5402 12.5477 6.53564 12.5386C6.53564 12.5249 6.53564 12.5112 6.53564 12.4976C6.5402 12.4292 6.54932 12.3631 6.56299 12.2993C6.58122 12.231 6.58577 12.1535 6.57666 12.0669C6.57666 12.0441 6.5721 12.0213 6.56299 11.9985C6.55843 11.9757 6.55615 11.953 6.55615 11.9302C6.55615 11.8892 6.55843 11.8504 6.56299 11.814C6.5721 11.7775 6.57894 11.741 6.5835 11.7046C6.59261 11.6864 6.59489 11.6727 6.59033 11.6636C6.58577 11.6545 6.58577 11.6431 6.59033 11.6294C6.59033 11.6157 6.59489 11.6021 6.604 11.5884C6.61312 11.5747 6.61995 11.561 6.62451 11.5474C6.61995 11.5063 6.62223 11.4585 6.63135 11.4038C6.64046 11.3491 6.6473 11.283 6.65186 11.2056C6.6473 11.1418 6.65186 11.0894 6.66553 11.0483C6.6792 11.0028 6.68604 10.9618 6.68604 10.9253C6.68604 10.8843 6.68831 10.8501 6.69287 10.8228C6.70199 10.7954 6.70882 10.7703 6.71338 10.7476V10.6655C6.72249 10.6154 6.72249 10.5812 6.71338 10.563C6.70882 10.5448 6.70654 10.5265 6.70654 10.5083C6.71566 10.4855 6.71794 10.4627 6.71338 10.4399C6.71338 10.4126 6.7111 10.3875 6.70654 10.3647C6.71566 10.3465 6.71794 10.3306 6.71338 10.3169C6.71338 10.3032 6.70882 10.285 6.69971 10.2622C6.69971 10.1619 6.70426 10.0799 6.71338 10.0161C6.72705 9.95231 6.72933 9.89307 6.72021 9.83838C6.72021 9.81559 6.71794 9.79964 6.71338 9.79053C6.70882 9.77686 6.70426 9.76318 6.69971 9.74951C6.69515 9.69938 6.69515 9.66292 6.69971 9.64014C6.70882 9.61735 6.71338 9.59684 6.71338 9.57861C6.71794 9.56038 6.71566 9.54215 6.70654 9.52393C6.70199 9.5057 6.69743 9.48747 6.69287 9.46924C6.69287 9.45557 6.69743 9.43734 6.70654 9.41455C6.71566 9.39176 6.70882 9.37354 6.68604 9.35986C6.69971 9.31429 6.70426 9.28467 6.69971 9.271C6.69515 9.25277 6.69287 9.23682 6.69287 9.22314C6.70199 9.18669 6.70426 9.16618 6.69971 9.16162C6.69515 9.15251 6.69287 9.14339 6.69287 9.13428C6.70199 9.11149 6.70426 9.09554 6.69971 9.08643C6.69515 9.07275 6.69287 9.06136 6.69287 9.05225C6.69743 9.03402 6.70199 9.01579 6.70654 8.99756C6.7111 8.97933 6.71566 8.95882 6.72021 8.93604C6.72021 8.92236 6.71794 8.90641 6.71338 8.88818C6.70882 8.86995 6.70654 8.854 6.70654 8.84033C6.7111 8.80843 6.71566 8.77881 6.72021 8.75146C6.72477 8.72412 6.72933 8.69906 6.73389 8.67627C6.73844 8.65804 6.73844 8.64209 6.73389 8.62842C6.73389 8.61019 6.73617 8.59424 6.74072 8.58057C6.74984 8.51676 6.75212 8.46663 6.74756 8.43018C6.743 8.39372 6.74528 8.35954 6.75439 8.32764C6.76807 8.29118 6.79997 8.26611 6.8501 8.25244C6.90479 8.23421 6.95264 8.24333 6.99365 8.27979C7.03923 8.28434 7.07796 8.29118 7.10986 8.30029C7.14632 8.30941 7.16455 8.33903 7.16455 8.38916C7.18734 8.38916 7.20329 8.39827 7.2124 8.4165C7.22607 8.43473 7.24202 8.4484 7.26025 8.45752C7.32406 8.48942 7.36051 8.51221 7.36963 8.52588C7.40609 8.56234 7.43115 8.5874 7.44482 8.60107C7.46305 8.61475 7.47673 8.62842 7.48584 8.64209C7.50863 8.67399 7.52002 8.6945 7.52002 8.70361C7.52458 8.71273 7.53141 8.71956 7.54053 8.72412C7.54964 8.73324 7.56104 8.74919 7.57471 8.77197C7.59294 8.7902 7.60889 8.80843 7.62256 8.82666C7.64535 8.854 7.67041 8.88135 7.69775 8.90869C7.7251 8.93148 7.75016 8.95882 7.77295 8.99072C7.78662 9.00439 7.79801 9.02035 7.80713 9.03857C7.81624 9.05225 7.82992 9.06592 7.84814 9.07959C7.88005 9.11605 7.91195 9.15706 7.94385 9.20264C7.98031 9.24365 8.01676 9.28695 8.05322 9.33252C8.06689 9.35531 8.08057 9.37809 8.09424 9.40088C8.10791 9.41911 8.12842 9.43506 8.15576 9.44873C8.16032 9.4943 8.18766 9.53304 8.23779 9.56494C8.25146 9.60596 8.27197 9.64242 8.29932 9.67432C8.32666 9.70622 8.34945 9.7404 8.36768 9.77686C8.39958 9.8042 8.42692 9.83382 8.44971 9.86572C8.47249 9.89307 8.49756 9.92269 8.5249 9.95459C8.53402 9.9637 8.54085 9.9751 8.54541 9.98877C8.55452 10.0024 8.56592 10.0161 8.57959 10.0298C8.60238 10.0526 8.61377 10.0731 8.61377 10.0913C8.61833 10.105 8.62516 10.1164 8.63428 10.1255C8.64339 10.1437 8.65251 10.1619 8.66162 10.1802C8.67529 10.1938 8.68669 10.2098 8.6958 10.228C8.74593 10.2964 8.78239 10.3556 8.80518 10.4058C8.82796 10.4559 8.85303 10.5037 8.88037 10.5493C8.90771 10.5858 8.92822 10.6154 8.94189 10.6382C8.95557 10.661 8.96696 10.6815 8.97607 10.6997C9.01709 10.7407 9.04443 10.7703 9.05811 10.7886C9.08089 10.8159 9.1014 10.8433 9.11963 10.8706C9.14242 10.8934 9.1652 10.9185 9.18799 10.9458C9.21077 10.9777 9.22217 10.9982 9.22217 11.0073C9.22673 11.0164 9.229 11.0256 9.229 11.0347C9.2609 11.0575 9.27686 11.0734 9.27686 11.0825C9.27686 11.0871 9.28141 11.0916 9.29053 11.0962C9.32699 11.1509 9.37256 11.2078 9.42725 11.2671C9.48193 11.3218 9.53662 11.3742 9.59131 11.4243C9.61865 11.4517 9.646 11.4767 9.67334 11.4995C9.70068 11.5223 9.72575 11.5519 9.74854 11.5884C9.76676 11.6248 9.77816 11.6476 9.78271 11.6567C9.79183 11.6613 9.79867 11.6681 9.80322 11.6772C9.83057 11.7183 9.86247 11.7593 9.89893 11.8003C9.93994 11.8368 9.98551 11.8687 10.0356 11.896C10.0402 11.8641 10.0425 11.8345 10.0425 11.8071C10.0425 11.7752 10.0425 11.7479 10.0425 11.7251C10.0425 11.7023 10.0425 11.6818 10.0425 11.6636C10.0425 11.6453 10.0516 11.6294 10.0698 11.6157C10.0607 11.5884 10.0516 11.5542 10.0425 11.5132C10.0334 11.4676 10.0402 11.4266 10.063 11.3901C10.0493 11.3446 10.0448 11.3149 10.0493 11.3013C10.0539 11.283 10.0539 11.2648 10.0493 11.2466C10.0493 11.2284 10.047 11.2147 10.0425 11.2056C10.0379 11.1919 10.0356 11.1759 10.0356 11.1577C10.0311 11.1213 10.0334 11.0848 10.0425 11.0483C10.0516 11.0073 10.0584 10.964 10.063 10.9185C10.063 10.841 10.063 10.7612 10.063 10.6792C10.063 10.5926 10.0698 10.5174 10.0835 10.4536C10.0835 10.4445 10.0881 10.4308 10.0972 10.4126C10.1063 10.3944 10.1131 10.3807 10.1177 10.3716C10.1131 10.3351 10.1131 10.3101 10.1177 10.2964C10.1268 10.2782 10.1313 10.2576 10.1313 10.2349C10.1313 10.203 10.1291 10.1711 10.1245 10.1392C10.12 10.1073 10.12 10.064 10.1245 10.0093C10.12 9.95915 10.1222 9.92041 10.1313 9.89307C10.1405 9.86117 10.1473 9.82699 10.1519 9.79053C10.1427 9.76774 10.1405 9.74495 10.145 9.72217C10.1496 9.69482 10.1519 9.66976 10.1519 9.64697C10.1519 9.6333 10.1496 9.61963 10.145 9.60596C10.145 9.58773 10.145 9.5695 10.145 9.55127C10.145 9.51937 10.1496 9.49202 10.1587 9.46924C10.1678 9.44189 10.1746 9.41455 10.1792 9.38721C10.1792 9.35531 10.1769 9.32568 10.1724 9.29834C10.1724 9.26644 10.1792 9.23226 10.1929 9.1958C10.1838 9.17757 10.1769 9.16162 10.1724 9.14795C10.1678 9.13428 10.161 9.11605 10.1519 9.09326C10.1746 9.02035 10.1815 8.95426 10.1724 8.89502C10.1678 8.83122 10.1701 8.75602 10.1792 8.66943C10.1746 8.64665 10.1769 8.62386 10.186 8.60107C10.1906 8.59196 10.1929 8.58285 10.1929 8.57373C10.1929 8.55094 10.1883 8.53271 10.1792 8.51904C10.1701 8.50081 10.1678 8.48258 10.1724 8.46436C10.1815 8.44613 10.1974 8.42334 10.2202 8.396C10.2476 8.3641 10.2726 8.34587 10.2954 8.34131C10.3182 8.33675 10.341 8.34131 10.3638 8.35498C10.3866 8.3641 10.4093 8.36865 10.4321 8.36865C10.4823 8.37321 10.5347 8.36865 10.5894 8.35498C10.6486 8.33675 10.7033 8.32308 10.7534 8.31396C10.7899 8.30485 10.8423 8.30485 10.9106 8.31396C10.9836 8.32308 11.0474 8.32308 11.1021 8.31396C11.1613 8.32308 11.216 8.33447 11.2661 8.34814C11.2889 8.35726 11.3117 8.3641 11.3345 8.36865C11.3573 8.37321 11.3732 8.3846 11.3823 8.40283Z" fill="black"/>
<path d="M21.6262 18.9004C21.6171 18.9277 21.5966 18.9437 21.5647 18.9482C21.5328 18.9528 21.5123 18.9688 21.5032 18.9961C21.4576 18.987 21.428 18.9733 21.4143 18.9551C21.3915 18.9779 21.3733 18.9915 21.3596 18.9961C21.3459 18.9961 21.3346 18.9984 21.3254 19.0029C21.289 19.0166 21.2616 19.0348 21.2434 19.0576C21.2297 19.0531 21.2161 19.0462 21.2024 19.0371C21.1887 19.028 21.1728 19.0212 21.1545 19.0166C21.1044 19.0212 21.068 19.0257 21.0452 19.0303C21.0224 19.0348 21.0019 19.0371 20.9836 19.0371C20.9472 19.0371 20.9153 19.0348 20.8879 19.0303C20.8606 19.0212 20.8287 19.0212 20.7922 19.0303C20.774 19.0394 20.7535 19.0417 20.7307 19.0371C20.7079 19.0326 20.6874 19.0417 20.6692 19.0645C20.6464 19.069 20.6327 19.0667 20.6282 19.0576C20.6236 19.0485 20.6099 19.0462 20.5872 19.0508C20.5644 19.0645 20.537 19.0758 20.5051 19.085C20.4778 19.0895 20.4482 19.0964 20.4163 19.1055C20.3889 19.0964 20.3684 19.0804 20.3547 19.0576C20.3456 19.0303 20.3297 19.0075 20.3069 18.9893C20.3114 18.9665 20.3114 18.9437 20.3069 18.9209C20.3069 18.8981 20.3114 18.8822 20.3206 18.873C20.3069 18.8594 20.3 18.8457 20.3 18.832C20.3 18.8138 20.2978 18.7933 20.2932 18.7705C20.275 18.734 20.2636 18.7044 20.259 18.6816C20.2499 18.6361 20.2385 18.5996 20.2249 18.5723C20.2112 18.5449 20.2089 18.5199 20.218 18.4971C20.1952 18.4743 20.1816 18.4492 20.177 18.4219C20.1724 18.39 20.1633 18.3512 20.1497 18.3057C20.136 18.2829 20.1292 18.2669 20.1292 18.2578C20.1337 18.2441 20.1337 18.2327 20.1292 18.2236C20.1064 18.1735 20.095 18.1393 20.095 18.1211C20.095 18.1029 20.0927 18.0846 20.0881 18.0664C20.0699 18.0254 20.0562 17.9912 20.0471 17.9639C20.0426 17.9365 20.0357 17.9115 20.0266 17.8887C20.0175 17.875 20.0084 17.8636 19.9993 17.8545C19.9902 17.8408 19.981 17.8249 19.9719 17.8066C19.9628 17.7884 19.9583 17.7702 19.9583 17.752C19.9583 17.7292 19.9537 17.7087 19.9446 17.6904C19.9355 17.6722 19.9264 17.6562 19.9172 17.6426C19.9127 17.6289 19.9081 17.6152 19.9036 17.6016C19.8944 17.5742 19.8876 17.5469 19.8831 17.5195C19.8831 17.4876 19.8739 17.4603 19.8557 17.4375C19.8284 17.4284 19.801 17.4284 19.7737 17.4375C19.7463 17.4466 19.7213 17.4535 19.6985 17.458C19.6848 17.458 19.6689 17.458 19.6506 17.458C19.637 17.4535 19.6233 17.4535 19.6096 17.458C19.5777 17.4626 19.5481 17.4694 19.5208 17.4785C19.498 17.4831 19.4729 17.4808 19.4456 17.4717C19.4273 17.4717 19.4114 17.474 19.3977 17.4785C19.3886 17.4831 19.3726 17.4854 19.3499 17.4854C19.3362 17.4762 19.3111 17.474 19.2747 17.4785C19.2428 17.4785 19.2131 17.4785 19.1858 17.4785C19.1539 17.4831 19.122 17.4876 19.0901 17.4922C19.0582 17.4967 19.0331 17.4945 19.0149 17.4854C18.9648 17.4808 18.9306 17.4762 18.9124 17.4717C18.8941 17.4671 18.8782 17.4648 18.8645 17.4648C18.828 17.4603 18.7939 17.4603 18.762 17.4648C18.7301 17.4694 18.6959 17.4671 18.6594 17.458C18.6458 17.4671 18.6298 17.474 18.6116 17.4785C18.5933 17.4831 18.5797 17.4922 18.5706 17.5059C18.5204 17.4967 18.4771 17.4967 18.4407 17.5059C18.4088 17.515 18.3678 17.5173 18.3176 17.5127C18.2812 17.54 18.2629 17.5719 18.2629 17.6084C18.2629 17.6449 18.2584 17.6813 18.2493 17.7178C18.2402 17.7542 18.2265 17.7884 18.2083 17.8203C18.19 17.8477 18.1718 17.8773 18.1536 17.9092C18.1444 17.932 18.1353 17.9548 18.1262 17.9775C18.1171 18.0003 18.1057 18.0231 18.092 18.0459C18.0829 18.0687 18.0761 18.0846 18.0715 18.0938C18.067 18.1029 18.0624 18.112 18.0579 18.1211C18.0533 18.1302 18.0487 18.1348 18.0442 18.1348C18.0396 18.1712 18.0328 18.1963 18.0237 18.21C18.0146 18.2191 18.01 18.2282 18.01 18.2373C18.0009 18.2601 17.9963 18.2806 17.9963 18.2988C18.0009 18.3171 18.0009 18.3376 17.9963 18.3604C17.9872 18.3923 17.9736 18.4196 17.9553 18.4424C17.9417 18.4652 17.9348 18.4948 17.9348 18.5312C17.8984 18.5586 17.871 18.5973 17.8528 18.6475C17.8346 18.693 17.8072 18.7318 17.7708 18.7637C17.7662 18.8047 17.7571 18.8434 17.7434 18.8799C17.7297 18.9163 17.7138 18.9528 17.6956 18.9893C17.6819 19.0212 17.6705 19.0576 17.6614 19.0986C17.6523 19.1351 17.6477 19.1784 17.6477 19.2285C17.634 19.2376 17.6112 19.249 17.5793 19.2627C17.5474 19.2809 17.5201 19.2832 17.4973 19.2695C17.4563 19.2467 17.4198 19.2308 17.3879 19.2217C17.3606 19.2126 17.3355 19.2012 17.3127 19.1875C17.3036 19.1829 17.2786 19.1784 17.2375 19.1738C17.1965 19.1738 17.1646 19.1738 17.1418 19.1738C17.1099 19.1784 17.0872 19.1784 17.0735 19.1738C17.0598 19.1693 17.0461 19.1647 17.0325 19.1602C17.0142 19.1602 16.996 19.1602 16.9778 19.1602C16.9641 19.1647 16.9459 19.1647 16.9231 19.1602C16.8684 19.151 16.816 19.1328 16.7659 19.1055C16.7157 19.0827 16.6679 19.0645 16.6223 19.0508C16.6223 19.028 16.6246 19.0098 16.6292 18.9961C16.6337 18.9779 16.6405 18.9574 16.6497 18.9346C16.6588 18.9118 16.6702 18.8981 16.6838 18.8936C16.6975 18.8844 16.7021 18.8708 16.6975 18.8525C16.7112 18.8161 16.7271 18.7796 16.7454 18.7432C16.759 18.7067 16.775 18.6702 16.7932 18.6338C16.8114 18.5882 16.8251 18.5609 16.8342 18.5518C16.8433 18.5381 16.8525 18.5267 16.8616 18.5176C16.8798 18.472 16.8912 18.4424 16.8958 18.4287C16.9049 18.4105 16.9117 18.3968 16.9163 18.3877C16.9254 18.3649 16.9322 18.3467 16.9368 18.333C16.9413 18.3193 16.9527 18.3011 16.9709 18.2783L17.0325 18.1963C17.0461 18.1507 17.0598 18.1188 17.0735 18.1006C17.0872 18.0778 17.0986 18.0596 17.1077 18.0459C17.1305 18.0186 17.1487 17.9912 17.1624 17.9639C17.176 17.932 17.192 17.8978 17.2102 17.8613C17.2284 17.8385 17.2444 17.818 17.2581 17.7998C17.2717 17.777 17.2831 17.752 17.2922 17.7246C17.3014 17.6927 17.3082 17.6745 17.3127 17.6699C17.3173 17.6608 17.3219 17.6517 17.3264 17.6426C17.331 17.6152 17.3333 17.5993 17.3333 17.5947C17.3378 17.5856 17.3424 17.5765 17.3469 17.5674C17.3697 17.5309 17.3879 17.4899 17.4016 17.4443C17.4198 17.3988 17.4403 17.3577 17.4631 17.3213C17.4722 17.2985 17.4859 17.278 17.5042 17.2598C17.5269 17.2415 17.5383 17.2165 17.5383 17.1846C17.5611 17.1709 17.5771 17.1527 17.5862 17.1299C17.5953 17.1025 17.6067 17.0775 17.6204 17.0547C17.6295 17.0319 17.6409 17.0114 17.6545 16.9932C17.6728 16.9749 17.6887 16.9544 17.7024 16.9316C17.7115 16.9089 17.7206 16.8861 17.7297 16.8633C17.7434 16.8359 17.7571 16.8109 17.7708 16.7881C17.7799 16.7653 17.7913 16.7448 17.8049 16.7266C17.8186 16.7038 17.8391 16.6878 17.8665 16.6787C17.8573 16.6559 17.8573 16.6331 17.8665 16.6104C17.8801 16.583 17.8915 16.5579 17.9006 16.5352C17.9097 16.5169 17.9211 16.501 17.9348 16.4873C17.9485 16.4691 17.9599 16.4508 17.969 16.4326L18.0032 16.3643C18.0214 16.3187 18.0351 16.2913 18.0442 16.2822C18.0579 16.2686 18.067 16.2572 18.0715 16.248C18.0806 16.2344 18.0829 16.2207 18.0784 16.207C18.0784 16.1934 18.0806 16.182 18.0852 16.1729C18.1125 16.1546 18.1331 16.1318 18.1467 16.1045C18.1604 16.0771 18.1764 16.0475 18.1946 16.0156C18.2083 15.9928 18.2219 15.9655 18.2356 15.9336C18.2493 15.8971 18.2675 15.8652 18.2903 15.8379C18.2857 15.8151 18.288 15.7969 18.2971 15.7832C18.3062 15.765 18.3153 15.7445 18.3245 15.7217C18.3336 15.708 18.3404 15.6943 18.345 15.6807C18.3541 15.6624 18.3632 15.6465 18.3723 15.6328C18.4042 15.5918 18.4224 15.5553 18.427 15.5234C18.4361 15.4915 18.4452 15.4619 18.4543 15.4346C18.4635 15.4118 18.4726 15.3936 18.4817 15.3799C18.4954 15.3662 18.5068 15.3503 18.5159 15.332C18.525 15.3138 18.5318 15.2956 18.5364 15.2773C18.5409 15.2591 18.5523 15.2454 18.5706 15.2363C18.5751 15.1908 18.5842 15.152 18.5979 15.1201C18.6161 15.0882 18.6321 15.054 18.6458 15.0176C18.6594 14.9857 18.6845 14.9538 18.7209 14.9219C18.7255 14.8945 18.7278 14.8672 18.7278 14.8398C18.7278 14.8125 18.7323 14.7874 18.7415 14.7646C18.7506 14.7419 18.762 14.7236 18.7756 14.71C18.7893 14.6963 18.8007 14.6803 18.8098 14.6621C18.828 14.6029 18.8417 14.555 18.8508 14.5186C18.8645 14.4775 18.8782 14.4388 18.8918 14.4023C18.9055 14.3704 18.9192 14.334 18.9329 14.293C18.9465 14.2474 18.9602 14.2064 18.9739 14.1699C18.9875 14.1426 18.9989 14.1175 19.0081 14.0947C19.0217 14.0674 19.0331 14.04 19.0422 14.0127C19.0878 13.9899 19.122 13.958 19.1448 13.917C19.1676 13.876 19.1858 13.8304 19.1995 13.7803C19.2268 13.7712 19.245 13.7689 19.2542 13.7734C19.2678 13.7734 19.2815 13.7734 19.2952 13.7734C19.3407 13.7826 19.3681 13.7985 19.3772 13.8213C19.3863 13.8441 19.4 13.8646 19.4182 13.8828C19.441 13.9102 19.4569 13.9352 19.4661 13.958C19.4797 13.9762 19.4911 13.9945 19.5002 14.0127C19.5185 14.0309 19.5367 14.056 19.5549 14.0879C19.5777 14.1198 19.5937 14.1517 19.6028 14.1836C19.6119 14.2018 19.621 14.2223 19.6301 14.2451C19.6392 14.2679 19.6484 14.2907 19.6575 14.3135C19.6711 14.3363 19.6825 14.3613 19.6917 14.3887C19.7053 14.416 19.719 14.4456 19.7327 14.4775C19.7463 14.514 19.76 14.5573 19.7737 14.6074C19.7919 14.653 19.8079 14.6986 19.8215 14.7441C19.8306 14.7669 19.8352 14.7874 19.8352 14.8057C19.8398 14.8239 19.8466 14.8421 19.8557 14.8604C19.8648 14.8831 19.8717 14.9014 19.8762 14.915C19.8853 14.9287 19.8944 14.9424 19.9036 14.9561C19.9218 14.9971 19.94 15.0426 19.9583 15.0928C19.981 15.1383 20.0038 15.1862 20.0266 15.2363C20.0357 15.25 20.0426 15.2637 20.0471 15.2773C20.0562 15.291 20.0653 15.307 20.0745 15.3252C20.0836 15.3343 20.0904 15.3457 20.095 15.3594C20.1041 15.373 20.1132 15.3867 20.1223 15.4004C20.1314 15.4141 20.1383 15.43 20.1428 15.4482C20.1519 15.4665 20.1633 15.4824 20.177 15.4961C20.1907 15.5234 20.2021 15.5485 20.2112 15.5713C20.2249 15.5895 20.2362 15.6169 20.2454 15.6533C20.2545 15.6807 20.2636 15.7148 20.2727 15.7559C20.2864 15.7969 20.2955 15.8356 20.3 15.8721C20.3228 15.9131 20.3433 15.9609 20.3616 16.0156C20.3844 16.0658 20.4049 16.1159 20.4231 16.166C20.4368 16.1797 20.4482 16.1934 20.4573 16.207C20.4709 16.2161 20.4846 16.2298 20.4983 16.248C20.5074 16.2708 20.5165 16.2868 20.5256 16.2959C20.5347 16.305 20.5416 16.3141 20.5461 16.3232C20.5644 16.3643 20.578 16.4053 20.5872 16.4463C20.6008 16.4827 20.6122 16.5192 20.6213 16.5557C20.6305 16.5785 20.6418 16.6012 20.6555 16.624C20.6692 16.6468 20.676 16.6742 20.676 16.7061C20.7034 16.7425 20.7239 16.7767 20.7375 16.8086C20.7512 16.8359 20.7626 16.861 20.7717 16.8838C20.7945 16.9202 20.8105 16.9476 20.8196 16.9658C20.8287 16.9795 20.8378 16.9954 20.8469 17.0137C20.8788 17.0547 20.9039 17.098 20.9221 17.1436C20.9312 17.1618 20.9358 17.1823 20.9358 17.2051C20.9403 17.2233 20.9472 17.2393 20.9563 17.2529C20.9654 17.2848 20.9768 17.3167 20.9905 17.3486C21.0042 17.376 21.0155 17.4079 21.0247 17.4443C21.0474 17.4626 21.0634 17.4831 21.0725 17.5059C21.0862 17.5286 21.0976 17.5514 21.1067 17.5742C21.1158 17.5879 21.1249 17.6084 21.134 17.6357C21.1431 17.6585 21.1523 17.6813 21.1614 17.7041C21.175 17.7406 21.1933 17.777 21.2161 17.8135C21.2389 17.8499 21.2548 17.8864 21.2639 17.9229C21.273 17.9456 21.2821 17.9684 21.2913 17.9912C21.3049 18.014 21.3163 18.0368 21.3254 18.0596C21.3346 18.0824 21.3368 18.1029 21.3323 18.1211C21.3323 18.1348 21.3368 18.1484 21.3459 18.1621C21.3551 18.1849 21.3687 18.2145 21.387 18.251C21.4143 18.3421 21.4462 18.4378 21.4827 18.5381C21.5055 18.5973 21.5305 18.6566 21.5579 18.7158C21.5898 18.7751 21.6125 18.8366 21.6262 18.9004ZM19.7874 16.8428C19.7965 16.8245 19.7987 16.8063 19.7942 16.7881C19.7896 16.7699 19.7851 16.7493 19.7805 16.7266C19.776 16.7083 19.7714 16.6878 19.7668 16.665C19.7668 16.6423 19.7623 16.6217 19.7532 16.6035C19.7441 16.5853 19.7327 16.5716 19.719 16.5625C19.7099 16.5488 19.703 16.5352 19.6985 16.5215C19.6894 16.4577 19.6803 16.403 19.6711 16.3574C19.6666 16.3073 19.6597 16.2572 19.6506 16.207C19.6278 16.1888 19.6096 16.166 19.5959 16.1387C19.5686 16.1022 19.5504 16.0726 19.5413 16.0498C19.5367 16.0225 19.5321 15.9974 19.5276 15.9746C19.5185 15.9382 19.5094 15.9085 19.5002 15.8857C19.4911 15.8584 19.482 15.8333 19.4729 15.8105C19.4638 15.7741 19.4569 15.7422 19.4524 15.7148C19.4478 15.6875 19.441 15.6602 19.4319 15.6328C19.4273 15.6191 19.4228 15.6077 19.4182 15.5986C19.4137 15.585 19.4091 15.5713 19.4045 15.5576C19.3954 15.5303 19.3863 15.5007 19.3772 15.4688C19.3681 15.4368 19.3521 15.4163 19.3293 15.4072C19.2838 15.4255 19.2587 15.4528 19.2542 15.4893C19.2405 15.5394 19.2245 15.5736 19.2063 15.5918C19.1881 15.61 19.1767 15.6237 19.1721 15.6328C19.163 15.6829 19.1539 15.7194 19.1448 15.7422C19.1402 15.7604 19.1334 15.7809 19.1243 15.8037C19.1152 15.8265 19.106 15.847 19.0969 15.8652C19.0924 15.8835 19.0855 15.9017 19.0764 15.9199C19.0673 15.9336 19.0582 15.9473 19.0491 15.9609C19.0445 15.9746 19.04 15.986 19.0354 15.9951C18.9944 16.0726 18.9579 16.141 18.926 16.2002C18.8941 16.2549 18.8668 16.3118 18.844 16.3711C18.8349 16.3939 18.828 16.4167 18.8235 16.4395C18.8189 16.4577 18.8121 16.4782 18.803 16.501C18.7939 16.5192 18.7825 16.5352 18.7688 16.5488C18.7551 16.5625 18.7437 16.5807 18.7346 16.6035C18.7301 16.6172 18.7278 16.6309 18.7278 16.6445C18.7323 16.6536 18.7323 16.6673 18.7278 16.6855C18.6959 16.7357 18.6754 16.7767 18.6663 16.8086C18.6617 16.8359 18.6549 16.861 18.6458 16.8838C18.6959 16.9066 18.746 16.918 18.7961 16.918C18.8508 16.9134 18.9032 16.9111 18.9534 16.9111C19.04 16.9066 19.1288 16.902 19.22 16.8975C19.3111 16.8883 19.3886 16.877 19.4524 16.8633C19.5071 16.8542 19.564 16.8542 19.6233 16.8633C19.6825 16.8724 19.7372 16.8656 19.7874 16.8428ZM25.6799 19.1123C25.6663 19.1396 25.6366 19.167 25.5911 19.1943C25.5546 19.2126 25.5295 19.2262 25.5159 19.2354C25.5068 19.249 25.4976 19.2559 25.4885 19.2559C25.4384 19.265 25.4019 19.2581 25.3792 19.2354C25.3153 19.2536 25.2561 19.2604 25.2014 19.2559C25.1513 19.2513 25.1012 19.2559 25.051 19.2695C25.0282 19.2741 25.01 19.2809 24.9963 19.29C24.9827 19.3037 24.9667 19.3151 24.9485 19.3242C24.9211 19.3333 24.8961 19.3356 24.8733 19.3311C24.8551 19.3311 24.8323 19.3311 24.8049 19.3311C24.7867 19.3174 24.7708 19.2992 24.7571 19.2764C24.748 19.2581 24.7389 19.2376 24.7297 19.2148C24.6933 19.1875 24.6659 19.1602 24.6477 19.1328C24.6386 19.1237 24.6295 19.1123 24.6204 19.0986C24.6158 19.0804 24.609 19.0667 24.5999 19.0576C24.568 19.0166 24.5429 18.9779 24.5247 18.9414C24.5064 18.9004 24.4928 18.8662 24.4836 18.8389C24.47 18.8206 24.454 18.8024 24.4358 18.7842C24.4221 18.766 24.4084 18.7454 24.3948 18.7227C24.3811 18.7044 24.3652 18.6862 24.3469 18.668C24.3287 18.6452 24.315 18.6247 24.3059 18.6064C24.2968 18.5882 24.2922 18.5723 24.2922 18.5586C24.2922 18.5404 24.2877 18.5221 24.2786 18.5039C24.2649 18.4766 24.2467 18.4515 24.2239 18.4287C24.2056 18.4059 24.1943 18.3763 24.1897 18.3398C24.1715 18.3216 24.1532 18.3034 24.135 18.2852C24.1213 18.2624 24.0986 18.2464 24.0667 18.2373C24.0575 18.2054 24.0416 18.1803 24.0188 18.1621C24.0006 18.1393 23.9846 18.1097 23.9709 18.0732C23.9618 18.0596 23.9482 18.0299 23.9299 17.9844C23.9208 17.9707 23.914 17.957 23.9094 17.9434C23.9094 17.9251 23.9049 17.9092 23.8958 17.8955C23.8821 17.8727 23.8616 17.8545 23.8342 17.8408C23.8114 17.8271 23.7955 17.8021 23.7864 17.7656C23.7499 17.7656 23.7249 17.7565 23.7112 17.7383C23.7021 17.7155 23.6816 17.7018 23.6497 17.6973C23.6269 17.6517 23.5972 17.6107 23.5608 17.5742C23.5289 17.5378 23.4993 17.4945 23.4719 17.4443C23.4081 17.4124 23.3512 17.3714 23.301 17.3213C23.2509 17.2712 23.1917 17.2279 23.1233 17.1914C23.1051 17.1504 23.064 17.1253 23.0002 17.1162C22.9775 17.1481 22.9683 17.1868 22.9729 17.2324C22.9775 17.2734 22.9752 17.3145 22.9661 17.3555C22.9615 17.4056 22.9524 17.4557 22.9387 17.5059C22.9296 17.5514 22.9182 17.5924 22.9045 17.6289C22.8954 17.6517 22.8977 17.6676 22.9114 17.6768C22.925 17.6813 22.9296 17.695 22.925 17.7178C22.9205 17.7314 22.9137 17.7474 22.9045 17.7656C22.9 17.7839 22.9 17.8021 22.9045 17.8203C22.9045 17.8431 22.9091 17.8659 22.9182 17.8887C22.9319 17.9069 22.9387 17.932 22.9387 17.9639C22.9433 17.9958 22.9387 18.0368 22.925 18.0869C22.9159 18.137 22.9091 18.1803 22.9045 18.2168C22.9091 18.2533 22.9091 18.276 22.9045 18.2852C22.9045 18.2943 22.9045 18.3034 22.9045 18.3125C22.9045 18.349 22.9045 18.3809 22.9045 18.4082C22.9045 18.4355 22.9023 18.4652 22.8977 18.4971C22.9023 18.5472 22.9 18.5859 22.8909 18.6133C22.8818 18.6361 22.8749 18.6589 22.8704 18.6816C22.8795 18.7135 22.8818 18.7318 22.8772 18.7363C22.8726 18.7409 22.8704 18.7477 22.8704 18.7568C22.8704 18.7705 22.8726 18.7842 22.8772 18.7979C22.8818 18.8115 22.8818 18.8229 22.8772 18.832C22.8726 18.8822 22.8635 18.9209 22.8499 18.9482C22.8407 18.9756 22.8407 19.0143 22.8499 19.0645C22.859 19.0964 22.8658 19.1169 22.8704 19.126C22.8749 19.1396 22.8749 19.151 22.8704 19.1602C22.8658 19.1921 22.8499 19.2194 22.8225 19.2422C22.7952 19.265 22.7815 19.29 22.7815 19.3174C22.7268 19.3128 22.6767 19.3174 22.6311 19.3311C22.5901 19.3447 22.5491 19.3402 22.5081 19.3174C22.4762 19.3265 22.4374 19.3356 22.3918 19.3447C22.3463 19.3538 22.303 19.3561 22.262 19.3516C22.2118 19.3379 22.1777 19.3333 22.1594 19.3379C22.1458 19.3424 22.1344 19.3402 22.1252 19.3311C22.1161 19.2399 22.1047 19.1647 22.0911 19.1055C22.0774 19.0462 22.0888 18.9938 22.1252 18.9482C22.1252 18.9346 22.123 18.9209 22.1184 18.9072C22.1139 18.8936 22.1139 18.8776 22.1184 18.8594C22.123 18.8092 22.1207 18.7728 22.1116 18.75C22.107 18.7272 22.1047 18.7067 22.1047 18.6885C22.1093 18.6702 22.1139 18.6543 22.1184 18.6406C22.1275 18.627 22.1321 18.6133 22.1321 18.5996C22.1366 18.5768 22.1344 18.554 22.1252 18.5312C22.1161 18.5039 22.1116 18.4766 22.1116 18.4492C22.1116 18.4264 22.1139 18.4014 22.1184 18.374C22.123 18.3467 22.1252 18.3216 22.1252 18.2988C22.1252 18.276 22.1184 18.251 22.1047 18.2236C22.0956 18.1963 22.1002 18.1689 22.1184 18.1416C22.1275 18.1234 22.1298 18.096 22.1252 18.0596C22.1252 18.0231 22.1252 17.9867 22.1252 17.9502C22.1252 17.9274 22.1252 17.9069 22.1252 17.8887C22.1298 17.8704 22.1344 17.8499 22.1389 17.8271C22.1389 17.7998 22.1366 17.7747 22.1321 17.752C22.1321 17.7246 22.1321 17.6995 22.1321 17.6768C22.1321 17.6676 22.1344 17.6562 22.1389 17.6426C22.1435 17.6243 22.1435 17.6107 22.1389 17.6016C22.1298 17.5605 22.1252 17.5286 22.1252 17.5059C22.1298 17.4831 22.1321 17.4648 22.1321 17.4512C22.1366 17.4284 22.1366 17.4056 22.1321 17.3828C22.1321 17.3555 22.1344 17.3258 22.1389 17.2939C22.1389 17.2757 22.1366 17.2575 22.1321 17.2393C22.1275 17.221 22.1275 17.2005 22.1321 17.1777C22.1366 17.1367 22.1366 17.1094 22.1321 17.0957C22.1275 17.082 22.123 17.0684 22.1184 17.0547C22.1184 17.041 22.1207 17.0273 22.1252 17.0137C22.1298 17 22.1321 16.984 22.1321 16.9658C22.1321 16.9294 22.1275 16.8883 22.1184 16.8428C22.1093 16.7972 22.1047 16.7562 22.1047 16.7197C22.1139 16.6286 22.1093 16.5785 22.0911 16.5693C22.1002 16.5465 22.107 16.526 22.1116 16.5078C22.1161 16.4896 22.1207 16.4691 22.1252 16.4463C22.1252 16.4144 22.123 16.3825 22.1184 16.3506C22.1139 16.3187 22.1161 16.2777 22.1252 16.2275C22.1298 16.2184 22.1344 16.207 22.1389 16.1934C22.148 16.1797 22.1526 16.166 22.1526 16.1523C22.1526 16.1341 22.1503 16.1159 22.1458 16.0977C22.1412 16.0794 22.1412 16.0589 22.1458 16.0361C22.1458 15.9951 22.148 15.9518 22.1526 15.9062C22.1571 15.8607 22.164 15.8151 22.1731 15.7695C22.1822 15.7285 22.1845 15.6989 22.1799 15.6807C22.1754 15.6624 22.1731 15.6465 22.1731 15.6328C22.1731 15.6009 22.1777 15.5713 22.1868 15.5439C22.1959 15.5166 22.1959 15.4847 22.1868 15.4482C22.1868 15.4391 22.1845 15.4277 22.1799 15.4141C22.1799 15.3958 22.1799 15.3753 22.1799 15.3525C22.1845 15.307 22.1845 15.2751 22.1799 15.2568C22.1754 15.234 22.1731 15.2135 22.1731 15.1953C22.1822 15.1589 22.1845 15.1383 22.1799 15.1338C22.1754 15.1292 22.1731 15.1224 22.1731 15.1133C22.1822 15.0951 22.1845 15.0837 22.1799 15.0791C22.1754 15.07 22.1731 15.0563 22.1731 15.0381C22.1777 15.0016 22.1799 14.972 22.1799 14.9492C22.1845 14.9219 22.1845 14.8854 22.1799 14.8398C22.1708 14.8079 22.1685 14.7897 22.1731 14.7852C22.1822 14.7806 22.1845 14.7738 22.1799 14.7646C22.1799 14.751 22.1754 14.735 22.1663 14.7168C22.1571 14.6986 22.148 14.6803 22.1389 14.6621C22.148 14.6348 22.1503 14.6029 22.1458 14.5664C22.1412 14.5299 22.1412 14.4935 22.1458 14.457C22.1458 14.4479 22.148 14.4365 22.1526 14.4229C22.1571 14.4046 22.1594 14.391 22.1594 14.3818C22.1458 14.3454 22.1366 14.3203 22.1321 14.3066C22.1321 14.2884 22.1298 14.2747 22.1252 14.2656C22.1207 14.2474 22.1139 14.2292 22.1047 14.2109C22.0956 14.1927 22.0911 14.1768 22.0911 14.1631C22.0911 14.1357 22.0979 14.1107 22.1116 14.0879C22.1252 14.0651 22.1389 14.0423 22.1526 14.0195C22.1617 14.0104 22.1708 14.0036 22.1799 13.999C22.1936 13.9899 22.2096 13.9876 22.2278 13.9922C22.2369 13.9831 22.246 13.974 22.2551 13.9648C22.2688 13.9512 22.2825 13.9398 22.2961 13.9307C22.3326 13.9215 22.3599 13.9261 22.3782 13.9443C22.401 13.958 22.4237 13.9694 22.4465 13.9785C22.483 13.9694 22.5217 13.9671 22.5627 13.9717C22.6038 13.9717 22.6493 13.9671 22.6995 13.958C22.7405 13.9489 22.7701 13.9466 22.7883 13.9512C22.8066 13.9512 22.8202 13.9512 22.8293 13.9512C22.8886 13.9375 22.9364 13.9307 22.9729 13.9307C23.0094 13.9307 23.0413 13.9329 23.0686 13.9375C23.1051 13.9375 23.1256 13.9398 23.1301 13.9443C23.1392 13.9489 23.1484 13.9512 23.1575 13.9512C23.1803 13.9421 23.2008 13.9421 23.219 13.9512C23.2372 13.9557 23.2555 13.9603 23.2737 13.9648C23.3101 13.9694 23.3466 13.9717 23.3831 13.9717C23.4195 13.9717 23.456 13.974 23.4924 13.9785C23.5289 13.9831 23.5653 13.9876 23.6018 13.9922C23.6428 13.9967 23.6816 14.0059 23.718 14.0195C23.7317 14.0241 23.7454 14.0309 23.759 14.04C23.7727 14.0492 23.7864 14.056 23.8 14.0605C23.8183 14.0651 23.8388 14.0674 23.8616 14.0674C23.8889 14.0628 23.914 14.0651 23.9368 14.0742C23.9869 14.0833 24.0347 14.0993 24.0803 14.1221C24.1305 14.1403 24.1806 14.154 24.2307 14.1631C24.2535 14.1722 24.2786 14.1813 24.3059 14.1904C24.3333 14.195 24.3583 14.2064 24.3811 14.2246C24.4449 14.2246 24.5019 14.2314 24.552 14.2451C24.6021 14.2542 24.6454 14.2679 24.6819 14.2861C24.7047 14.2952 24.7297 14.3044 24.7571 14.3135C24.789 14.3226 24.814 14.3363 24.8323 14.3545C24.8551 14.3727 24.8756 14.3887 24.8938 14.4023C24.912 14.416 24.9303 14.432 24.9485 14.4502C24.9758 14.473 24.9918 14.4912 24.9963 14.5049C25.0055 14.514 25.0146 14.5231 25.0237 14.5322C25.051 14.555 25.067 14.5732 25.0715 14.5869C25.0806 14.6006 25.0898 14.6097 25.0989 14.6143C25.1217 14.6279 25.1376 14.6416 25.1467 14.6553C25.1604 14.6644 25.1741 14.6712 25.1877 14.6758C25.1969 14.7122 25.2128 14.7396 25.2356 14.7578C25.2629 14.776 25.288 14.7965 25.3108 14.8193C25.3336 14.8604 25.3472 14.8923 25.3518 14.915C25.3564 14.9378 25.3678 14.9538 25.386 14.9629C25.4088 15.0404 25.4224 15.1087 25.427 15.168C25.4316 15.2272 25.4521 15.2728 25.4885 15.3047C25.484 15.3411 25.4862 15.3753 25.4954 15.4072C25.509 15.4346 25.5227 15.4642 25.5364 15.4961C25.5273 15.5189 25.525 15.5417 25.5295 15.5645C25.5341 15.5827 25.5364 15.6032 25.5364 15.626C25.5364 15.6488 25.5295 15.6715 25.5159 15.6943C25.5068 15.7171 25.5113 15.7376 25.5295 15.7559C25.5113 15.8105 25.4931 15.8675 25.4749 15.9268C25.4612 15.9814 25.4384 16.0339 25.4065 16.084C25.3974 16.0931 25.3905 16.1045 25.386 16.1182C25.3814 16.1273 25.3678 16.1318 25.345 16.1318C25.3495 16.1592 25.345 16.1797 25.3313 16.1934C25.3176 16.2025 25.3108 16.2184 25.3108 16.2412C25.2743 16.264 25.2447 16.2868 25.2219 16.3096C25.2037 16.3278 25.1832 16.3551 25.1604 16.3916C25.1467 16.4098 25.1331 16.4235 25.1194 16.4326C25.1103 16.4417 25.0943 16.4531 25.0715 16.4668C25.0351 16.4896 25.0077 16.5055 24.9895 16.5146C24.9713 16.5238 24.9553 16.5329 24.9417 16.542C24.9097 16.5557 24.8892 16.5671 24.8801 16.5762C24.8756 16.5853 24.8687 16.5921 24.8596 16.5967C24.8459 16.6058 24.83 16.6149 24.8118 16.624C24.7981 16.6286 24.7844 16.6354 24.7708 16.6445C24.7434 16.6673 24.7229 16.681 24.7092 16.6855C24.7001 16.6901 24.6933 16.6947 24.6887 16.6992C24.6477 16.7174 24.6021 16.7357 24.552 16.7539C24.5064 16.7676 24.4609 16.7904 24.4153 16.8223C24.3925 16.8132 24.3697 16.8154 24.3469 16.8291C24.3241 16.8428 24.2991 16.8542 24.2717 16.8633C24.2353 16.8724 24.2034 16.877 24.176 16.877C24.1532 16.8724 24.1373 16.8883 24.1282 16.9248C24.1191 16.9567 24.1282 16.9795 24.1555 16.9932C24.1874 17.0068 24.217 17.0251 24.2444 17.0479C24.2535 17.0706 24.2649 17.0934 24.2786 17.1162C24.2968 17.1344 24.3196 17.1481 24.3469 17.1572C24.3834 17.1937 24.4039 17.2256 24.4084 17.2529C24.4176 17.2803 24.4403 17.2962 24.4768 17.3008C24.4859 17.3236 24.5042 17.3532 24.5315 17.3896C24.5634 17.417 24.5793 17.4352 24.5793 17.4443C24.5839 17.4535 24.5885 17.4626 24.593 17.4717C24.6158 17.5081 24.6318 17.5286 24.6409 17.5332C24.65 17.5378 24.6545 17.5446 24.6545 17.5537C24.6728 17.5811 24.691 17.6107 24.7092 17.6426C24.732 17.6745 24.748 17.7087 24.7571 17.7451C24.7708 17.7588 24.7844 17.7725 24.7981 17.7861C24.8118 17.7998 24.8277 17.8135 24.8459 17.8271C24.8459 17.8454 24.8482 17.859 24.8528 17.8682C24.8619 17.8773 24.8665 17.891 24.8665 17.9092C24.8938 17.9411 24.9234 17.973 24.9553 18.0049C24.9872 18.0368 25.01 18.0778 25.0237 18.1279C25.0374 18.137 25.0487 18.1484 25.0579 18.1621C25.067 18.1712 25.0806 18.1781 25.0989 18.1826C25.1125 18.2282 25.1331 18.2692 25.1604 18.3057C25.1923 18.3376 25.2219 18.374 25.2493 18.415C25.2629 18.4378 25.2834 18.4606 25.3108 18.4834C25.329 18.5062 25.345 18.5312 25.3586 18.5586C25.3723 18.5814 25.3883 18.6042 25.4065 18.627C25.4293 18.6634 25.4452 18.6953 25.4543 18.7227C25.468 18.7454 25.4862 18.7614 25.509 18.7705C25.5136 18.7933 25.5204 18.8115 25.5295 18.8252C25.5432 18.8343 25.5478 18.8525 25.5432 18.8799C25.5614 18.889 25.5797 18.9004 25.5979 18.9141C25.6161 18.9232 25.6366 18.9323 25.6594 18.9414C25.6685 18.9779 25.6754 19.0098 25.6799 19.0371C25.689 19.0599 25.689 19.085 25.6799 19.1123ZM24.7297 15.4893C24.7069 15.4437 24.6933 15.4118 24.6887 15.3936C24.6887 15.3753 24.6864 15.3617 24.6819 15.3525C24.6773 15.3389 24.6682 15.3275 24.6545 15.3184C24.6454 15.3092 24.6363 15.2979 24.6272 15.2842C24.6044 15.2386 24.5839 15.209 24.5657 15.1953C24.552 15.1862 24.5406 15.1748 24.5315 15.1611C24.5224 15.1429 24.511 15.1315 24.4973 15.127C24.4609 15.0996 24.4358 15.0768 24.4221 15.0586C24.413 15.0404 24.3971 15.0335 24.3743 15.0381C24.3652 15.0107 24.3446 14.9948 24.3127 14.9902C24.2854 14.9811 24.2672 14.9629 24.2581 14.9355C24.2216 14.931 24.192 14.9219 24.1692 14.9082C24.1464 14.8945 24.1213 14.8786 24.094 14.8604C24.0803 14.8649 24.0667 14.8717 24.053 14.8809C24.0439 14.89 24.0279 14.8923 24.0051 14.8877C23.9823 14.8831 23.9618 14.8763 23.9436 14.8672C23.9299 14.8581 23.9117 14.8512 23.8889 14.8467C23.8388 14.8512 23.8023 14.8512 23.7795 14.8467C23.7568 14.8376 23.7385 14.833 23.7249 14.833C23.6793 14.8148 23.6428 14.8057 23.6155 14.8057C23.579 14.8011 23.5403 14.8034 23.4993 14.8125C23.4583 14.8171 23.4172 14.8216 23.3762 14.8262C23.2987 14.8262 23.2236 14.8216 23.1506 14.8125C23.0777 14.8034 23.0048 14.8034 22.9319 14.8125C22.9228 14.8307 22.9228 14.8467 22.9319 14.8604C22.9456 14.8695 22.9524 14.8854 22.9524 14.9082C22.9478 14.9583 22.9478 14.9948 22.9524 15.0176C22.9569 15.0358 22.9592 15.054 22.9592 15.0723C22.9501 15.1087 22.9478 15.1315 22.9524 15.1406C22.9569 15.1497 22.9592 15.1566 22.9592 15.1611V15.2773C22.9501 15.3366 22.9456 15.3958 22.9456 15.4551C22.9501 15.5098 22.9501 15.5667 22.9456 15.626C22.9456 15.6943 22.9433 15.7559 22.9387 15.8105C22.9387 15.8607 22.9364 15.9131 22.9319 15.9678C22.9364 16.0179 22.9342 16.0521 22.925 16.0703C22.9205 16.084 22.9182 16.0999 22.9182 16.1182C22.9137 16.1637 22.9182 16.2139 22.9319 16.2686C22.982 16.2822 23.0299 16.2891 23.0754 16.2891C23.1256 16.2891 23.162 16.2891 23.1848 16.2891C23.2167 16.2936 23.2349 16.2959 23.2395 16.2959C23.2486 16.2913 23.2623 16.2891 23.2805 16.2891C23.3261 16.2936 23.3671 16.3005 23.4036 16.3096C23.4446 16.3141 23.4879 16.3118 23.5334 16.3027C23.5562 16.3027 23.5767 16.3027 23.595 16.3027C23.6178 16.2982 23.6405 16.2936 23.6633 16.2891C23.6998 16.2754 23.7249 16.2686 23.7385 16.2686C23.7568 16.2686 23.7704 16.2686 23.7795 16.2686C23.8297 16.2503 23.8639 16.2412 23.8821 16.2412C23.9003 16.2367 23.914 16.2321 23.9231 16.2275C24.0142 16.1911 24.0803 16.166 24.1213 16.1523C24.1851 16.1296 24.233 16.1136 24.2649 16.1045C24.3014 16.0954 24.3333 16.0885 24.3606 16.084C24.3743 16.043 24.4016 16.0179 24.4426 16.0088C24.4836 15.9997 24.5087 15.9701 24.5178 15.9199C24.5315 15.9108 24.5452 15.9062 24.5588 15.9062C24.5771 15.9062 24.5885 15.8971 24.593 15.8789C24.6067 15.8379 24.6204 15.7946 24.634 15.749C24.6477 15.7035 24.6659 15.6647 24.6887 15.6328C24.6842 15.5964 24.6864 15.5736 24.6956 15.5645C24.7092 15.5508 24.7206 15.5257 24.7297 15.4893Z" fill="black"/>
<path d="M2.53766 0.0892508C2.75713 0.0856601 2.97661 0.0820694 3.20274 0.0783699C4.20693 0.0684406 5.21108 0.0592543 6.21532 0.0541044C6.74514 0.0504017 7.27494 0.0443 7.80471 0.0357672C8.56808 0.0235326 9.33118 0.0186356 10.0946 0.0153561C10.4495 0.00775482 10.4495 0.00775482 10.8114 0C12.4567 0.0047296 12.4567 0.0047296 13.3422 0.6636C13.775 1.26287 13.9509 1.64745 14.0643 2.36776C14.0963 2.55218 14.1283 2.7366 14.1612 2.92661C14.2212 3.49006 14.2248 4.03711 14.2207 4.60316C14.3602 4.60167 14.4997 4.60018 14.6434 4.59865C16.0975 4.58379 17.5515 4.57369 19.0057 4.56632C19.5481 4.56296 20.0905 4.55838 20.6329 4.55257C21.4133 4.54442 22.1937 4.54063 22.9742 4.53767C23.3368 4.53248 23.3368 4.53248 23.7068 4.52718C25.9248 4.52669 25.9248 4.52669 26.9608 5.27378C27.845 6.3303 28.0018 7.18225 27.9849 8.51074C27.9867 8.78907 27.9867 8.78907 27.9886 9.07301C27.9914 9.68349 27.9877 10.2937 27.9836 10.9042C27.9836 11.3301 27.984 11.756 27.9846 12.1819C27.9849 13.0733 27.9821 13.9647 27.9769 14.8561C27.9704 15.9971 27.9711 17.1381 27.974 18.2791C27.9755 19.1582 27.9738 20.0373 27.9709 20.9164C27.9699 21.337 27.9698 21.7577 27.9707 22.1783C27.9714 22.7669 27.9676 23.3552 27.9627 23.9437C27.9637 24.1166 27.9647 24.2894 27.9658 24.4675C27.9509 25.5367 27.7985 26.289 27.1882 27.1807C26.3375 27.857 25.6633 27.9373 24.5858 27.9452C24.2943 27.9487 24.0027 27.9523 23.7023 27.956C23.3858 27.9562 23.0694 27.9563 22.7529 27.9561C22.4262 27.9577 22.0996 27.9594 21.773 27.9612C21.0893 27.9642 20.4057 27.9646 19.722 27.9633C18.8481 27.962 17.9744 27.9688 17.1006 27.9778C16.4262 27.9836 15.752 27.9843 15.0776 27.9835C14.7555 27.9838 14.4334 27.986 14.1114 27.99C11.2834 28.0212 11.2834 28.0212 10.4012 27.34C9.49094 26.2425 9.38777 25.6538 9.41481 24.2188C9.41892 23.9364 9.42302 23.654 9.42725 23.363C9.43253 23.1475 9.43781 22.932 9.44325 22.7099C9.1025 22.7169 9.1025 22.7169 8.75486 22.7241C7.90777 22.7403 7.06069 22.7506 6.21348 22.759C5.84762 22.7635 5.48178 22.7696 5.11597 22.7773C4.58847 22.7883 4.06118 22.7933 3.53358 22.7972C3.37143 22.8018 3.20928 22.8064 3.04222 22.8112C1.88536 22.8117 1.2238 22.5465 0.34325 21.8157C0.0549961 20.966 0.0784948 20.1665 0.0754816 19.2809C0.0739866 19.0908 0.0724917 18.9006 0.0709514 18.7047C0.0664653 18.075 0.0638099 17.4454 0.0615405 16.8158C0.0606133 16.6008 0.0596862 16.3857 0.0587309 16.1642C0.0539869 15.0266 0.0507322 13.889 0.0485992 12.7513C0.0460797 11.5759 0.0382504 10.4006 0.0292227 9.22519C0.0232784 8.32157 0.0213701 7.41797 0.0205527 6.51434C0.0194439 6.08101 0.0167964 5.64768 0.0125816 5.21436C0.0070495 4.60804 0.00724887 4.00197 0.00883118 3.39563C0.00591689 3.21676 0.0030026 3.03789 0 2.8536C0.00801801 2.01061 0.0817962 1.52572 0.548994 0.808599C1.23493 0.157285 1.60918 0.103039 2.53766 0.0892508ZM1.02575 2.14422C0.915359 2.78664 0.874114 3.29546 0.885784 3.93604C0.884521 4.11319 0.883259 4.29034 0.881958 4.47286C0.879278 5.05666 0.884793 5.64006 0.890671 6.22383C0.891061 6.63052 0.891046 7.03721 0.890644 7.44391C0.89102 8.29555 0.89527 9.14707 0.902446 9.99868C0.911473 11.0894 0.912466 12.1799 0.910758 13.2707C0.91006 14.1103 0.912819 14.9498 0.916703 15.7894C0.918301 16.1915 0.919014 16.5937 0.918821 16.9958C0.919231 17.5582 0.924101 18.1203 0.930217 18.6827C0.929551 18.8483 0.928884 19.0139 0.928197 19.1846C0.944557 20.1613 1.02959 20.8546 1.70825 21.5922C2.32459 21.7542 2.32459 21.7542 3.03876 21.7191C3.31199 21.719 3.58522 21.7189 3.86673 21.7188C4.16179 21.7131 4.45684 21.7073 4.76084 21.7013C5.0659 21.6993 5.37096 21.6977 5.67602 21.6965C6.47837 21.6923 7.28048 21.6813 8.08274 21.6689C8.9016 21.6575 9.7205 21.6524 10.5394 21.6468C12.1458 21.6348 13.752 21.6157 15.3582 21.5922C15.0163 17.9728 14.582 14.3649 14.1288 10.7577C14.047 10.1052 13.9666 9.45252 13.8873 8.79972C13.7901 7.99857 13.6905 7.19774 13.5893 6.39707C13.5334 5.95114 13.4799 5.50493 13.4264 5.05871C13.2501 3.68629 13.0926 2.46718 12.4008 1.25006C11.8849 0.996638 11.5874 0.993141 11.0141 0.98341C10.822 0.97982 10.6298 0.976229 10.4319 0.972529C9.55271 0.962589 8.67359 0.953413 7.79437 0.948264C7.33076 0.944562 6.86715 0.938462 6.4036 0.929927C5.73509 0.91768 5.06688 0.912793 4.39826 0.909515C4.19158 0.904448 3.9849 0.89938 3.77195 0.894159C3.57765 0.894796 3.38335 0.895434 3.18317 0.89609C3.01328 0.894282 2.84339 0.892475 2.66836 0.890612C1.86006 1.10811 1.52827 1.49603 1.02575 2.14422ZM14.4482 5.72086C14.5787 7.77677 14.7758 9.81265 15.0463 11.8551C15.0814 12.1259 15.1164 12.3967 15.1525 12.6756C15.2629 13.529 15.3744 14.3821 15.4862 15.2353C15.5988 16.0956 15.711 16.956 15.8224 17.8165C15.8914 18.349 15.9609 18.8814 16.0313 19.4137C16.0624 19.6541 16.0936 19.8946 16.1257 20.1423C16.1533 20.3528 16.1809 20.5632 16.2093 20.7801C16.3655 22.34 16.3655 22.34 16.0184 22.8623C15.8456 23.0254 15.8456 23.0254 15.6693 23.1919C15.542 23.3144 15.4147 23.4368 15.2836 23.563C15.1487 23.6872 15.0138 23.8114 14.8748 23.9394C14.6804 24.1257 14.6804 24.1257 14.482 24.3157C13.8533 24.9124 13.2124 25.4768 12.5305 26.0141C12.3375 26.1778 12.1446 26.3414 11.9458 26.5101C11.9458 26.6576 11.9458 26.8051 11.9458 26.9571C13.6762 26.9727 15.4066 26.9846 17.137 26.9919C17.9406 26.9954 18.7442 27.0001 19.5477 27.0077C20.4722 27.0164 21.3965 27.0197 22.321 27.0226C22.7526 27.0278 22.7526 27.0278 23.1929 27.0331C23.4615 27.0332 23.7302 27.0332 24.007 27.0333C24.2429 27.0348 24.4788 27.0363 24.7219 27.0378C25.491 26.9418 25.8997 26.7604 26.5058 26.2865C27.0464 25.3834 27.0255 24.4594 27.0196 23.4386C27.0204 23.268 27.0212 23.0974 27.022 22.9216C27.024 22.3597 27.0227 21.7978 27.0212 21.2359C27.0215 20.8443 27.0219 20.4526 27.0225 20.0609C27.0232 19.2409 27.0222 18.4209 27.0201 17.6009C27.0175 16.5508 27.019 15.5008 27.0217 14.4507C27.0233 13.6422 27.0228 12.8337 27.0216 12.0251C27.0213 11.638 27.0217 11.2508 27.0228 10.8637C27.0239 10.3222 27.0222 9.78087 27.0196 9.23943C27.0205 9.08007 27.0215 8.92072 27.0224 8.75653C27.013 7.66668 26.867 6.87436 26.2062 5.99107C25.6849 5.6232 25.3402 5.63999 24.7016 5.64473C24.4739 5.64478 24.2462 5.64483 24.0116 5.64488C23.6437 5.65007 23.6437 5.65007 23.2683 5.65537C23.0168 5.65632 22.7653 5.65727 22.5062 5.65825C21.7017 5.662 20.8975 5.67042 20.0931 5.67895C19.5482 5.68231 19.0033 5.68537 18.4584 5.68812C17.1216 5.69552 15.7849 5.70674 14.4482 5.72086ZM10.5807 22.7099C10.5807 23.7426 10.5807 24.7754 10.5807 25.8394C11.6998 25.8394 12.3109 25.015 13.0833 24.2747C13.5583 23.7657 14.0035 23.2453 14.4482 22.7099C13.172 22.7099 11.8957 22.7099 10.5807 22.7099Z" fill="black"/>
</svg>
