<svg width="40" height="40" viewBox="0 0 40 40" fill="none" xmlns="http://www.w3.org/2000/svg">
<g clip-path="url(#clip0_366_1184)">
<path d="M21.1597 5.00054C21.4749 5.12421 21.7901 5.24788 22.1149 5.3753C22.7777 5.63583 23.4401 5.89749 24.102 6.16021C25.1194 6.56391 26.138 6.96415 27.157 7.36382C27.8012 7.61753 28.4453 7.87143 29.0894 8.12554C29.5483 8.30621 29.5483 8.30621 30.0165 8.49053C30.2972 8.60212 30.5779 8.7137 30.8672 8.82867C31.1152 8.92696 31.3633 9.02525 31.6189 9.12652C32.1875 9.37554 32.1875 9.37554 32.5 9.68804C32.5276 10.4531 32.536 11.2094 32.5305 11.9744C32.5301 12.2029 32.5296 12.4313 32.5292 12.6667C32.5274 13.3991 32.5235 14.1314 32.5195 14.8638C32.518 15.3592 32.5165 15.8546 32.5153 16.35C32.5118 17.5669 32.5064 18.7837 32.5 20.0005C32.6858 20.0361 32.8716 20.0717 33.063 20.1084C35.3279 20.5712 37.1426 21.2842 38.6377 23.1353C40.1341 25.4402 40.1859 27.5972 40 30.313C39.7901 31.1805 39.5157 31.7075 39.0625 32.5005C38.9014 32.8164 38.7402 33.1322 38.5742 33.4576C37.3032 34.9893 35.4273 36.2144 33.4375 36.563C30.3478 36.8363 28.3053 36.0832 25.8325 34.2803C25.2046 33.6406 24.999 33.0204 24.6875 32.188C24.475 32.2749 24.2626 32.3617 24.0437 32.4512C23.0693 32.8452 22.0915 33.2295 21.1133 33.6138C20.6121 33.819 20.6121 33.819 20.1007 34.0283C19.7714 34.1562 19.4421 34.2841 19.1028 34.4158C18.8033 34.5353 18.5038 34.6548 18.1953 34.7778C15.6089 35.3494 13.3344 34.3902 10.9558 33.4271C10.6761 33.3168 10.3963 33.2065 10.1081 33.0929C9.07446 32.6844 8.04322 32.2699 7.01172 31.856C3.54092 30.4735 3.54092 30.4735 0 29.063C0 22.6693 0 16.2755 0 9.68804C2.90605 8.36711 5.81351 7.14487 8.78372 5.98779C9.33724 5.77112 9.88991 5.55229 10.4417 5.33135C11.2481 5.00865 12.0567 4.69264 12.8662 4.37798C13.233 4.22912 13.233 4.22912 13.6072 4.07724C16.4002 3.01126 18.4997 3.94024 21.1597 5.00054ZM13.1348 6.00274C12.7031 6.1712 12.7031 6.1712 12.2627 6.34306C11.349 6.70169 10.4403 7.07156 9.53125 7.44195C8.91062 7.68786 8.28969 7.93303 7.66846 8.17742C6.15042 8.7765 4.63637 9.38486 3.125 10.0005C3.94574 10.9307 4.60594 11.163 5.85861 11.2748C7.16037 11.2299 8.27961 10.7455 9.47266 10.2557C9.73963 10.1512 10.0066 10.0467 10.2817 9.93904C11.1274 9.60666 11.9699 9.26666 12.8125 8.92632C13.3881 8.69856 13.9638 8.4713 14.5398 8.24456C15.9456 7.68988 17.3485 7.12836 18.75 6.56304C18.75 6.35679 18.75 6.15054 18.75 5.93804C16.5256 4.81795 15.3837 5.06601 13.1348 6.00274ZM19.6867 7.60842C19.4448 7.70025 19.203 7.79208 18.9537 7.88669C18.5665 8.03755 18.5665 8.03755 18.1714 8.19146C17.9041 8.29402 17.6369 8.39658 17.3615 8.50225C16.7974 8.7193 16.2338 8.93738 15.6705 9.15643C14.8068 9.49192 13.9416 9.82336 13.0762 10.1544C12.5284 10.3657 11.9807 10.5773 11.4331 10.7891C11.1737 10.8884 10.9142 10.9877 10.6469 11.09C10.407 11.1838 10.1671 11.2776 9.91989 11.3743C9.70854 11.4562 9.49719 11.5381 9.27943 11.6224C8.68625 11.8699 8.68625 11.8699 8.125 12.5005C8.49883 12.6617 8.87266 12.8228 9.25781 12.9888C9.46809 13.0795 9.67837 13.1701 9.89502 13.2635C11.7518 13.7075 13.5841 12.7543 15.2808 12.0696C15.5417 11.966 15.8026 11.8624 16.0714 11.7557C16.8999 11.4263 17.7273 11.0943 18.5547 10.7623C19.1182 10.5377 19.6817 10.3133 20.2454 10.089C21.6227 9.54066 22.9991 8.98997 24.375 8.43804C23.6657 7.72876 23.1331 7.50326 22.1875 7.18804C21.1026 7.18804 20.6458 7.23997 19.6867 7.60842ZM23.4851 10.0652C23.2047 10.1775 22.9243 10.2899 22.6354 10.4056C21.7468 10.7637 20.8638 11.1337 19.9805 11.5044C19.3763 11.7504 18.7719 11.9956 18.1671 12.2399C16.6908 12.8384 15.2194 13.4477 13.75 14.063C13.75 14.2693 13.75 14.4755 13.75 14.688C15.4257 15.4766 16.7509 15.5132 18.4855 14.8927C18.9774 14.7017 19.468 14.5072 19.9573 14.3096C20.2175 14.2071 20.4776 14.1045 20.7457 13.9988C21.2929 13.7823 21.8394 13.5642 22.3853 13.3447C23.2238 13.0079 24.0644 12.677 24.9054 12.3467C25.4371 12.1355 25.9688 11.9239 26.5002 11.712C26.8786 11.563 26.8786 11.563 27.2647 11.411C28.5461 10.9797 28.5461 10.9797 29.375 10.0005C27.0956 8.92021 25.76 9.08755 23.4851 10.0652ZM1.5625 11.563C1.5625 16.9255 1.5625 22.288 1.5625 27.813C8.33479 31.22 8.33479 31.22 15.625 33.1255C15.625 27.763 15.625 22.4005 15.625 16.8755C13.7971 16.0059 13.7971 16.0059 11.875 15.6255C11.7719 16.863 11.6687 18.1005 11.5625 19.3755C10 19.063 10 19.063 9.31641 18.4185C7.98637 17.5023 6.90485 17.7281 5.3125 17.813C5.20937 16.163 5.10625 14.513 5 12.813C4.54883 12.6068 4.09766 12.4005 3.63281 12.188C3.37903 12.072 3.12524 11.956 2.86377 11.8365C2.2125 11.524 2.2125 11.524 1.5625 11.563ZM29.008 12.0507C28.7353 12.1586 28.4625 12.2664 28.1815 12.3776C27.8946 12.4923 27.6076 12.607 27.312 12.7252C27.0485 12.8296 26.785 12.934 26.5134 13.0416C25.5267 13.433 24.5408 13.8263 23.5547 14.2193C20.2482 15.5341 20.2482 15.5341 16.875 16.8755C16.875 22.238 16.875 27.6005 16.875 33.1255C19.5274 32.3329 19.5274 32.3329 22.0703 31.3482C22.3902 31.2116 22.71 31.0751 23.0396 30.9344C23.274 30.8325 23.5084 30.7305 23.75 30.6255C23.7337 30.3415 23.7337 30.3415 23.717 30.0518C23.6234 27.1534 24.1618 24.689 26.0193 22.4029C27.4034 21.0592 29.1391 20.6 30.9375 20.0005C30.9375 17.2162 30.9375 14.4318 30.9375 11.563C30.1839 11.563 29.7093 11.7719 29.008 12.0507ZM6.5625 13.438C6.5625 14.4693 6.5625 15.5005 6.5625 16.563C6.89121 16.4921 7.21992 16.4212 7.55859 16.3482C8.87125 16.2406 9.28631 16.4106 10.3125 17.188C10.3125 16.4662 10.3125 15.7443 10.3125 15.0005C9.9227 14.7971 9.53187 14.5957 9.14062 14.3951C8.9231 14.2827 8.70557 14.1703 8.48145 14.0545C7.7358 13.6914 7.7358 13.6914 6.5625 13.438ZM26.4001 24.3218C25.2358 26.0299 24.7829 27.5525 25.1135 29.6148C25.7042 31.6875 27.0101 33.1682 28.75 34.3755C30.4226 35.1391 32.0805 35.2967 33.844 34.7967C35.8755 34.0012 37.228 32.7924 38.1677 30.816C38.7688 28.9992 38.7356 26.9703 37.9492 25.2154C37.0212 23.6184 35.7446 22.5366 34.082 21.7584C30.8631 21.1014 28.467 21.7299 26.4001 24.3218Z" fill="#58351B"/>
<path d="M36.875 24.0619C37.3465 25.005 37.3438 25.5067 37.1875 26.5619C36.5693 27.5005 35.7864 28.2633 35 29.0619C34.7249 29.3632 34.4497 29.6646 34.1663 29.975C33.8717 30.2896 33.5767 30.6037 33.2812 30.9174C33.0073 31.2102 32.7334 31.5031 32.4512 31.8048C31.3909 32.6335 30.7104 32.7867 29.375 32.8119C28.5742 32.2064 28.5742 32.2064 27.8125 31.2494C27.6397 31.0528 27.4669 30.8563 27.2888 30.6537C25.9375 29.0383 25.9375 29.0383 25.9375 27.6947C26.25 26.8744 26.25 26.8744 26.875 26.2494C27.7734 26.1322 27.7734 26.1322 28.75 26.2494C29.4922 26.8744 29.4922 26.8744 30 27.4994C31.1411 27.0227 31.8441 26.3354 32.6953 25.4486C34.2023 23.8841 34.6802 23.6229 36.875 24.0619ZM35.3125 25.3119C35.1882 25.4461 35.0638 25.5803 34.9357 25.7185C34.3696 26.3235 33.7964 26.9212 33.2227 27.5189C32.9293 27.8359 32.9293 27.8359 32.63 28.1592C31.1559 29.6796 31.1559 29.6796 30.0586 29.7162C29.1451 29.2595 28.7001 28.6426 28.125 27.8119C27.8156 27.9666 27.8156 27.9666 27.5 28.1244C28.325 29.1557 29.15 30.1869 30 31.2494C32.0033 29.6022 33.8081 27.7834 35.625 25.9369C35.5219 25.7307 35.4187 25.5244 35.3125 25.3119Z" fill="#58351B"/>
</g>
<defs>
<clipPath id="clip0_366_1184">
<rect width="40" height="40" fill="white"/>
</clipPath>
</defs>
</svg>
