<svg width="24" height="24" viewBox="0 0 24 24" fill="none" xmlns="http://www.w3.org/2000/svg">
<path d="M11 1.99982C11.264 1.99982 11.525 2.01182 11.783 2.03582C11.437 2.6453 11.2004 3.3107 11.084 4.00182L11 3.99982C7.133 3.99982 4 7.13182 4 10.9998C4 14.8678 7.133 17.9998 11 17.9998C12.8205 18.0021 14.5699 17.293 15.875 16.0238L16.025 15.8738C17.2936 14.5688 18.0023 12.8198 18 10.9998L17.997 10.9148C18.6882 10.7981 19.3536 10.5612 19.963 10.2148C20.169 12.5179 19.4768 14.8114 18.031 16.6158L22.314 20.8988L20.899 22.3128L16.617 18.0308C15.0237 19.308 13.042 20.0027 11 19.9998C6.032 19.9998 2 15.9678 2 10.9998C2 6.03182 6.032 1.99982 11 1.99982ZM16.53 1.31882C16.5679 1.2252 16.6328 1.14503 16.7166 1.08857C16.8003 1.03211 16.899 1.00195 17 1.00195C17.101 1.00195 17.1997 1.03211 17.2834 1.08857C17.3672 1.14503 17.4321 1.2252 17.47 1.31882L17.724 1.92982C18.1487 2.96452 18.954 3.797 19.974 4.25582L20.692 4.57582C20.7841 4.61818 20.8621 4.68605 20.9168 4.7714C20.9714 4.85674 21.0005 4.95597 21.0005 5.05732C21.0005 5.15868 20.9714 5.25791 20.9168 5.34325C20.8621 5.42859 20.7841 5.49647 20.692 5.53882L19.932 5.87682C18.9374 6.32315 18.146 7.1259 17.714 8.12682L17.467 8.69282C17.4286 8.78499 17.3637 8.86372 17.2806 8.9191C17.1975 8.97447 17.0999 9.00402 17 9.00402C16.9001 9.00402 16.8025 8.97447 16.7194 8.9191C16.6363 8.86372 16.5714 8.78499 16.533 8.69282L16.287 8.12782C15.8547 7.12617 15.0626 6.32299 14.067 5.87682L13.307 5.53882C13.2149 5.49647 13.1369 5.42859 13.0822 5.34325C13.0276 5.25791 12.9985 5.15868 12.9985 5.05732C12.9985 4.95597 13.0276 4.85674 13.0822 4.7714C13.1369 4.68605 13.2149 4.61818 13.307 4.57582L14.025 4.25582C15.0454 3.7972 15.8511 2.96471 16.276 1.92982L16.53 1.31882Z" fill="#E6DFC2" fill-opacity="0.75"/>
</svg>
