<svg width="32" height="32" viewBox="0 0 32 32" fill="none" xmlns="http://www.w3.org/2000/svg">
<path d="M16 20C18.2091 20 20 18.2091 20 16C20 13.7909 18.2091 12 16 12C13.7909 12 12 13.7909 12 16C12 18.2091 13.7909 20 16 20Z" stroke="#58351B" stroke-width="1.5"/>
<path d="M18.3534 2.86868C17.8641 2.66602 17.2428 2.66602 16.0001 2.66602C14.7574 2.66602 14.1361 2.66602 13.6468 2.86868C13.323 3.0027 13.0288 3.19921 12.7811 3.44698C12.5333 3.69475 12.3368 3.98892 12.2028 4.31268C12.0801 4.61002 12.0308 4.95802 12.0121 5.46335C12.0034 5.82859 11.9022 6.18566 11.718 6.50115C11.5338 6.81665 11.2726 7.08027 10.9588 7.26735C10.6399 7.44571 10.2809 7.54025 9.91549 7.54211C9.55008 7.54398 9.19017 7.45311 8.86945 7.27802C8.42145 7.04068 8.09745 6.91002 7.77611 6.86735C7.0752 6.77518 6.36638 6.96509 5.80545 7.39535C5.38678 7.71935 5.07478 8.25668 4.45345 9.33268C3.83211 10.4087 3.52011 10.946 3.45211 11.4727C3.40629 11.82 3.42934 12.1728 3.51993 12.5112C3.61053 12.8496 3.7669 13.1668 3.98011 13.4447C4.17745 13.7007 4.45345 13.9153 4.88145 14.1847C5.51211 14.5807 5.91745 15.2553 5.91745 15.9993C5.91745 16.7433 5.51211 17.418 4.88145 17.8127C4.45345 18.0833 4.17611 18.298 3.98011 18.554C3.7669 18.8319 3.61053 19.1491 3.51993 19.4875C3.42934 19.8258 3.40629 20.1787 3.45211 20.526C3.52145 21.0513 3.83211 21.59 4.45211 22.666C5.07478 23.742 5.38545 24.2793 5.80545 24.6033C6.08336 24.8166 6.40056 24.9729 6.73892 25.0635C7.07728 25.1541 7.43018 25.1772 7.77745 25.1313C8.09745 25.0887 8.42145 24.958 8.86945 24.7207C9.19017 24.5456 9.55008 24.4547 9.91549 24.4566C10.2809 24.4585 10.6399 24.553 10.9588 24.7313C11.6028 25.1047 11.9854 25.7913 12.0121 26.5353C12.0308 27.042 12.0788 27.3887 12.2028 27.686C12.3368 28.0098 12.5333 28.3039 12.7811 28.5517C13.0288 28.7995 13.323 28.996 13.6468 29.13C14.1361 29.3327 14.7574 29.3327 16.0001 29.3327C17.2428 29.3327 17.8641 29.3327 18.3534 29.13C18.6772 28.996 18.9714 28.7995 19.2191 28.5517C19.4669 28.3039 19.6634 28.0098 19.7974 27.686C19.9201 27.3887 19.9694 27.042 19.9881 26.5353C20.0148 25.7913 20.3974 25.1033 21.0414 24.7313C21.3604 24.553 21.7193 24.4585 22.0847 24.4566C22.4501 24.4547 22.81 24.5456 23.1308 24.7207C23.5788 24.958 23.9028 25.0887 24.2228 25.1313C24.57 25.1772 24.9229 25.1541 25.2613 25.0635C25.5997 24.9729 25.9169 24.8166 26.1948 24.6033C26.6148 24.2807 26.9254 23.742 27.5468 22.666C28.1681 21.59 28.4801 21.0527 28.5481 20.526C28.5939 20.1787 28.5709 19.8258 28.4803 19.4875C28.3897 19.1491 28.2333 18.8319 28.0201 18.554C27.8228 18.298 27.5468 18.0833 27.1188 17.814C26.8067 17.6239 26.5479 17.3577 26.3667 17.0403C26.1856 16.7229 26.0878 16.3648 26.0828 15.9993C26.0828 15.2553 26.4881 14.5807 27.1188 14.186C27.5468 13.9153 27.8241 13.7007 28.0201 13.4447C28.2333 13.1668 28.3897 12.8496 28.4803 12.5112C28.5709 12.1728 28.5939 11.82 28.5481 11.4727C28.4788 10.9473 28.1681 10.4087 27.5481 9.33268C26.9254 8.25668 26.6148 7.71935 26.1948 7.39535C25.9169 7.18214 25.5997 7.02577 25.2613 6.93517C24.9229 6.84458 24.57 6.82153 24.2228 6.86735C23.9028 6.91002 23.5788 7.04068 23.1294 7.27802C22.8089 7.45287 22.4492 7.54361 22.0841 7.54174C21.7189 7.53988 21.3602 7.44547 21.0414 7.26735C20.7276 7.08027 20.4664 6.81665 20.2822 6.50115C20.098 6.18566 19.9968 5.82859 19.9881 5.46335C19.9694 4.95668 19.9214 4.61002 19.7974 4.31268C19.6634 3.98892 19.4669 3.69475 19.2191 3.44698C18.9714 3.19921 18.6772 3.0027 18.3534 2.86868Z" stroke="#58351B" stroke-width="1.5"/>
</svg>
