<svg width="40" height="40" viewBox="0 0 40 40" fill="none" xmlns="http://www.w3.org/2000/svg">
<path d="M33.7066 20.8773C32.7299 15.6757 32.2433 13.074 30.3899 11.5373C28.5416 10.0007 25.8949 10.0007 20.6033 10.0007H19.3999C14.1083 10.0007 11.4616 10.0007 9.60993 11.5373C7.75826 13.074 7.27159 15.6757 6.29493 20.8773C4.92493 28.1923 4.23826 31.849 6.23826 34.259C8.23826 36.669 11.9566 36.6673 19.3983 36.6673H20.6016C28.0433 36.6673 31.7649 36.6673 33.7633 34.259C34.9233 32.859 35.1799 31.0423 34.9233 28.334M14.9999 10.0007V8.33398C14.9999 7.0079 15.5267 5.73613 16.4644 4.79845C17.4021 3.86077 18.6738 3.33398 19.9999 3.33398C21.326 3.33398 22.5978 3.86077 23.5355 4.79845C24.4731 5.73613 24.9999 7.0079 24.9999 8.33398V10.0007" stroke="#58351B" stroke-width="1.875" stroke-linecap="round"/>
</svg>
