<svg width="24" height="24" viewBox="0 0 24 24" fill="none" xmlns="http://www.w3.org/2000/svg">
<path d="M13.0547 18.8787C11.8831 20.0503 9.98358 20.0503 8.81201 18.8787L5.12132 15.188C3.94975 14.0164 3.94975 12.1169 5.12132 10.9453L10.188 5.87868C10.7506 5.31607 11.5137 5 12.3093 5L17 5C18.1046 5 19 5.89543 19 7L19 11.6907C19 12.4863 18.6839 13.2494 18.1213 13.812L13.0547 18.8787Z" stroke="#E6DFC2" stroke-opacity="0.75" stroke-width="1.5"/>
<path d="M14 12C12.8954 12 12 11.1046 12 10C12 8.89543 12.8954 8 14 8C15.1046 8 16 8.89543 16 10C16 11.1046 15.1046 12 14 12Z" stroke="#E6DFC2" stroke-opacity="0.75" stroke-width="1.5"/>
</svg>
