<svg width="58" height="7" viewBox="0 0 58 7" fill="none" xmlns="http://www.w3.org/2000/svg">
<path d="M0.665016 6.39474C1.04751 6.4185 1.47536 6.32731 1.8101 6.22335C1.91624 6.19079 1.85482 6.10423 1.92069 6.07825C2.04966 6.02745 2.18294 6.05769 2.31774 5.99819C2.36241 5.978 2.287 5.8391 2.33424 5.82126C2.59461 5.72426 2.82226 5.733 3.09272 5.6661C4.34112 5.34615 5.57527 5.10953 6.84226 4.85903C7.27233 4.77462 7.74671 4.57125 8.19719 4.5654C8.24809 4.56509 8.23669 4.69703 8.2477 4.70619C8.4201 4.84582 8.33346 4.59522 8.42647 4.54692C8.79737 4.35569 9.23576 4.28118 9.61665 4.27764C9.7804 4.27628 9.65488 4.55272 9.79695 4.38746C9.80687 4.37625 9.74682 4.2464 9.78903 4.2257C9.88412 4.1791 10.0816 4.17609 10.1553 4.15482C10.2995 4.11281 10.3242 4.11076 10.4642 4.08968C10.6555 4.05968 10.8762 3.96038 11.0898 3.96235C11.1354 3.96317 11.0954 4.1104 11.1699 4.12428C11.2426 4.13835 11.4256 4.10131 11.4837 4.05999C11.5417 4.01866 11.5002 3.91295 11.5079 3.88637C11.5701 3.66241 11.8257 3.92617 11.8546 3.92967C12.3846 3.98383 12.7835 3.76102 13.2649 3.69888C13.6249 3.65281 14.0147 3.65907 14.3595 3.60814C14.7673 3.54731 15.1013 3.42961 15.5028 3.39451C15.5451 3.39066 15.5154 3.56049 15.5671 3.55613C16.11 3.51037 16.6525 3.42935 17.1787 3.2586C17.2317 3.24131 17.1457 3.10504 17.1977 3.07915C17.516 2.9237 18.0162 2.58221 18.2783 3.18939C18.5005 3.14124 18.7712 3.08784 18.9605 2.94098C19.0825 2.84644 18.9402 2.702 19.1071 2.75304C19.1447 2.76438 19.1116 2.90664 19.1667 2.91327C19.3987 2.94109 19.6428 2.87226 19.8745 2.92211C19.9217 2.93257 19.9208 3.05711 19.9359 3.0781C20.0616 3.24771 20.2151 2.93351 20.2528 2.90827C20.5393 2.71944 20.7652 2.76331 21.0454 2.73515C21.1105 2.72857 21.0478 2.901 21.1108 2.90064C21.4374 2.89657 21.7726 2.85476 22.0851 2.75634C22.1546 2.73405 22.0785 2.59778 22.1111 2.5799C22.2554 2.50282 22.3089 2.76729 22.4474 2.69885C22.4766 2.68478 22.4506 2.56502 22.4551 2.55132C22.5258 2.33622 22.6225 2.62639 22.645 2.6313C22.9315 2.70008 23.0898 2.37876 23.364 2.4043C23.3968 2.40768 23.334 2.56576 23.4254 2.56593C24.0328 2.56806 24.6737 2.4888 25.2682 2.33746C25.3611 2.31412 25.2887 2.20208 25.2939 2.18759C25.3799 1.96107 25.4561 2.25562 25.487 2.26543C25.7313 2.33509 25.9459 2.07647 26.1223 2.42457C27.1403 2.26247 28.1471 2.44066 29.1602 2.12591C29.1731 2.12227 29.1505 1.97558 29.1762 1.96895C29.4852 1.88798 29.425 2.11573 29.6239 2.39629C29.6731 2.46673 29.8359 2.13234 29.8501 2.10792C29.9022 2.01778 29.8527 1.7989 29.87 1.78155C30.0137 1.64554 29.9791 2.36634 30.1667 2.37018C30.1727 2.36909 30.1506 2.23584 30.1666 2.22296C30.2166 2.1825 30.2641 2.23629 30.313 2.19167C30.4248 2.08848 30.4735 1.73892 30.6353 1.94753C30.6544 1.9731 30.6168 2.33793 30.752 2.36686C30.7601 2.36859 30.7689 2.36913 30.7784 2.36834C30.8454 2.3623 31.1419 2.37888 31.2263 2.35524C31.3105 2.33158 31.2578 2.19786 31.2639 2.19235C31.4947 2.02573 31.412 1.95062 31.534 1.69655C31.6563 1.44352 31.6032 2.05544 31.6469 2.12549C31.6905 2.19535 31.8615 2.05761 31.904 2.00915C31.9462 1.96065 31.8989 1.87505 31.9359 1.84809C32.1811 1.67215 32.029 2.15626 32.1037 2.25651C32.2797 2.49391 32.4417 2.04506 32.6138 2.00741C32.6603 1.99726 32.6185 2.09925 32.6591 2.1106C32.8198 2.1542 32.9244 2.0165 33.1029 2.1544C33.1321 2.17687 33.2688 2.45653 33.3739 2.26027C33.3888 2.23197 33.355 2.117 33.4252 2.09469C33.53 2.06117 33.7172 2.04483 33.8265 2.08783C33.9073 2.11962 33.8046 2.30186 33.9105 2.24869C33.9576 2.22494 33.8776 2.11182 33.9657 2.07633C34.0535 2.04081 34.2725 2.05604 34.3554 2.06385C34.4383 2.07173 34.3859 2.21105 34.3922 2.22091C34.4301 2.27748 34.5861 2.35355 34.6002 2.35409C35.3102 2.4066 35.9785 2.20342 36.6668 2.32211C36.7209 2.33123 36.6761 2.47831 36.6842 2.48124C36.8666 2.55448 36.7428 2.1494 36.8806 2.02421C36.8442 2.32581 36.9241 2.27544 37.0532 2.31634C37.1154 2.3363 37.0741 2.45148 37.0791 2.46381C37.1622 2.64734 37.2409 2.4213 37.2605 2.37527C37.3328 2.20595 37.388 2.41442 37.4371 2.30132C37.4862 2.18908 37.3994 2.01307 37.5249 2.02284C37.5536 2.1333 37.4433 2.41079 37.5358 2.46243C37.8854 2.65761 38.5702 2.47782 38.8609 2.47371C39.1519 2.4695 39.2438 2.49572 39.4146 2.46777C39.723 2.41732 39.5976 2.61985 39.7792 2.72867C39.9611 2.83757 39.9047 2.31477 39.9394 2.20556C39.9737 2.09639 39.9953 2.21266 40.0328 2.15393C40.0703 2.0952 40.0034 2.01476 40.0833 1.99722C40.1632 1.9797 40.3633 2.19196 40.3828 2.30999C40.4241 2.56004 40.3102 2.81149 40.5225 2.73519C40.5348 2.73063 40.5058 2.59212 40.5522 2.58158C40.9188 2.50222 41.2951 2.5227 41.6623 2.45666C41.7127 2.44736 41.6796 2.29306 41.709 2.28595C42.016 2.21139 41.8901 2.45821 42.0328 2.75326C42.0247 2.37409 42.1296 2.15021 42.3604 2.1653C42.4983 2.17419 42.4622 2.33683 42.5423 2.45944C42.5663 2.49638 42.672 2.39086 42.6837 2.46952C42.7223 2.72669 42.6098 3.00265 42.8527 2.9079C42.8634 2.90334 42.8413 2.76248 42.8774 2.75682C43.1116 2.71964 43.1159 2.98589 43.3635 3.03737C43.558 3.07776 43.9176 2.94395 44.14 2.93537C44.1698 2.51193 44.3679 2.6253 44.4317 2.92407C44.578 2.92385 44.7329 2.95303 44.8754 2.92409C44.9244 2.91426 44.9029 2.7892 44.9101 2.77646C45.0197 2.57643 45.0588 2.86533 45.0888 2.879C45.412 3.01447 45.7109 2.82287 46.0133 3.06006C46.024 3.06859 46.0177 3.36394 46.1213 3.15667C46.1281 3.14236 46.0338 2.99973 46.1851 3.00215C46.3347 3.0044 46.6352 2.87146 46.8347 3.02586C46.8829 3.06304 46.9908 3.31263 47.1096 3.13526C47.1255 3.11115 47.1178 3.02561 47.1417 2.98045C47.2184 2.83664 47.2273 3.13655 47.3239 2.89086C47.4195 2.6451 47.5942 2.47007 47.7929 2.66302C47.7992 2.66868 47.8289 2.90843 47.8959 2.91064C48.0031 2.91397 48.1578 2.87838 48.2675 2.88976C48.32 2.8953 48.2732 3.03836 48.2821 3.04185C48.6277 3.15542 48.9044 3.04924 49.2852 3.02725C49.3527 3.02271 49.5413 3.24098 49.6922 3.0962C49.8578 2.93777 49.7723 2.20655 50.0978 2.40928C50.2281 2.4904 50.3156 3.41617 50.6128 2.96894C51.0792 3.13101 51.5592 2.93396 52.0153 3.14694C52.037 3.15651 52.0825 3.41717 52.1347 3.41882C52.2123 3.42078 52.2659 3.30632 52.321 3.30387C52.553 3.29072 52.7394 3.41172 52.9684 3.41873C53.0528 3.42141 53.036 3.29589 53.1357 3.29899C53.2349 3.30217 53.284 3.47018 53.4217 3.40537C53.5275 3.35604 53.6696 3.03713 53.8077 3.01238C53.7794 3.33832 53.874 3.34117 54.0246 3.44345C54.0535 3.46326 54.009 3.57315 54.0221 3.58836C54.0741 3.65269 54.14 3.56462 54.1939 3.63439C54.2068 3.65115 54.196 3.76234 54.2059 3.78231C54.2899 3.95636 54.4756 3.72301 54.507 3.68228C54.6289 3.5279 54.6573 3.67695 54.7467 3.6205C54.8382 3.56428 54.7202 3.46971 54.823 3.44054C55.0408 3.38077 55.2637 3.42242 55.4807 3.44037C55.5613 3.44758 55.4906 3.59002 55.5018 3.59449C55.6616 3.64955 55.8375 3.50892 55.9039 3.81483C56.1038 3.06393 55.9883 3.89881 56.2435 3.77191C56.2642 3.76166 56.329 3.40337 56.2589 3.3421C56.1861 3.2806 56.0823 3.38353 55.9889 3.28986C55.9684 3.26802 55.8648 2.91457 55.8464 2.89187C55.7278 2.7171 55.649 3.25454 55.6387 3.28341C55.5217 3.59444 55.3923 3.21196 55.3485 3.18185C55.1689 3.04608 54.9978 3.10483 54.8333 3.00431C54.7266 2.93931 54.76 2.58535 54.6749 2.58743C54.3982 2.59482 54.2265 3.07569 54.0197 2.6222C53.9727 2.5252 54.0698 2.14449 53.8343 2.42759C53.8197 2.44545 53.6379 2.7079 53.5645 2.52276C53.5556 2.49944 53.5665 2.38672 53.5537 2.37586C53.4661 2.30514 53.3939 2.38851 53.2935 2.33497C53.193 2.28143 53.0713 2.20447 52.9435 2.2303C52.8645 2.24549 52.7536 2.44648 52.7144 2.49449C52.6037 2.63302 52.5232 2.37987 52.4446 2.55317C52.3653 2.72732 52.4586 3.01291 52.2856 3.11341C52.3084 2.82002 52.3243 2.51813 52.3436 2.22272C51.9735 2.19667 51.6423 2.26 51.275 2.2116C51.2305 2.2054 51.2902 2.05224 51.2447 2.04171C51.0529 1.99805 50.8699 2.09384 50.6662 2.02941C50.5076 1.97885 50.3467 1.79547 50.1871 1.73814C50.0551 2.0639 49.8186 1.92704 49.6328 1.94076C49.5678 1.94543 49.5638 2.03536 49.5154 2.06035C49.337 2.15285 49.4438 1.86393 49.4021 1.81307C49.224 1.59604 49.1459 2.26509 48.9129 2.22716C48.9006 2.22538 48.7802 1.85402 48.7609 1.82984C48.6396 1.6725 48.7275 1.95225 48.6408 1.97104C48.4803 2.00522 48.3738 2.08171 48.205 1.96106C48.1561 1.92543 48.0516 1.69149 47.9349 1.85487C47.9196 1.87626 47.9164 1.9951 47.9051 2.00107C47.7004 2.0992 47.7277 1.72739 47.6266 1.59174C47.5267 1.45622 47.3366 1.69793 47.2952 1.76878C47.1882 1.95206 47.3572 1.85651 47.3604 1.87569C47.3981 2.10393 47.2783 2.05472 47.1819 2.06534C47.1366 2.4283 47.0059 2.39492 47.0821 2.07488C47.0906 2.03994 47.1615 2.08032 47.1819 2.06534C47.13 1.70081 46.9877 1.64235 46.7962 1.96225C46.7065 2.11219 46.7633 2.30086 46.5367 2.2142C46.4356 2.1752 46.4974 1.92787 46.4121 1.85173C46.2174 1.67799 45.9247 1.88891 45.7094 1.83381C45.6312 1.81381 45.72 1.68296 45.6669 1.66456C45.5246 1.61517 45.3933 1.70801 45.2549 1.64347C45.2424 1.63745 45.2858 1.49632 45.2416 1.49083C44.9081 1.44658 44.5983 1.5141 44.2497 1.4888C44.0803 1.47642 43.7818 1.37302 43.6027 1.37507C43.2901 1.37754 42.9042 1.55822 42.6446 1.48749C42.4759 1.44203 42.5242 1.30103 42.4581 1.19749C42.3293 0.996727 42.0562 1.31863 42.0187 1.36885C42.0176 1.37051 42.1612 1.41527 42.0777 1.48333C42.021 1.63383 42.0203 1.36964 42.0187 1.36885C41.9943 1.40124 41.6991 1.41235 41.6427 1.38062C41.6121 1.36328 41.6398 1.22827 41.6237 1.2218C41.2382 1.07107 40.8494 1.00853 40.4462 1.04456C40.439 1.04683 40.4389 1.20007 40.4221 1.20349C40.1869 1.2553 40.0503 1.05851 39.8688 0.934914C39.6867 0.811334 39.5332 0.838348 39.4032 1.09274C39.2619 1.05023 39.0481 1.15249 38.9248 1.21505C38.8014 1.27759 38.8046 0.979623 38.7944 0.97307C38.4819 0.764303 38.2829 0.922402 37.9435 0.927992C37.7818 0.931121 37.4666 0.868784 37.2947 0.826019C37.1589 0.791701 37.0721 0.85646 36.948 0.804571C36.9313 0.79763 36.9563 0.666362 36.9513 0.660965C36.8191 0.494499 36.8683 0.821817 36.8358 0.877879C36.7179 1.0818 36.6463 1.18989 36.4711 1.08085C36.4307 1.05586 36.3353 0.583378 36.2606 0.551912C36.1635 0.511862 36.1916 0.680844 36.0902 0.634699C36.0815 0.630905 36.089 0.528024 36.0248 0.529058C35.7265 0.532506 35.3999 0.575275 35.0911 0.549153C35.049 0.545983 35.1115 0.385373 35.0507 0.378107C34.7652 0.344141 34.4518 0.334813 34.1691 0.398117C34.0994 0.414209 34.1371 0.530656 34.1206 0.563922C34.0193 0.765146 33.9035 0.460482 33.8823 0.453808C33.3778 0.286849 32.9758 0.54037 32.4597 0.390955C32.4317 0.382257 32.2258 0.0534751 32.1183 0.32453C32.1108 0.342548 32.0047 0.619979 31.9266 0.424688C31.9217 0.412473 31.9874 0.270001 31.8815 0.280877C31.7757 0.291727 31.6096 0.189036 31.4599 0.343069C31.4124 0.391578 31.2952 0.668267 31.1669 0.440297C31.1587 0.424382 30.9652 -0.0878146 30.8795 0.258598C30.8695 0.299748 30.8673 0.503563 30.8084 0.540878C30.7855 0.555268 30.7541 0.544884 30.7101 0.490887C30.6798 0.453306 30.7391 0.372607 30.658 0.31886C30.5334 0.23606 30.3628 0.330766 30.2089 0.163219C30.1823 0.133547 30.0694 -0.119255 29.9719 0.0694429C29.9567 0.0989953 29.9827 0.22267 29.9329 0.235692C29.6939 0.298201 29.4537 0.213517 29.2156 0.297907C29.1315 0.32759 29.1738 0.526965 29.0864 0.580173C28.9989 0.633341 28.823 0.684843 28.7309 0.594174C28.6385 0.503455 28.738 0.185411 28.5992 0.160688C28.0045 0.0535724 27.4081 0.250901 26.8199 0.295371C26.7319 0.302049 26.8017 0.186242 26.6715 0.188061C26.1886 0.193639 25.3624 0.121696 24.9571 0.384596C24.637 0.594547 25.0594 0.720386 24.8118 0.811896C24.6926 0.855654 24.5412 0.494138 24.5109 0.484159C24.2167 0.382086 24.0254 0.557198 23.7632 0.523107C23.7092 0.516022 23.7522 0.363415 23.7064 0.359047C23.5496 0.342822 23.3907 0.420027 23.2415 0.417733C23.1745 0.41637 23.1791 0.301511 23.1183 0.314455C22.9729 0.344143 22.8462 0.401115 22.7108 0.518165C22.6985 0.528831 22.7964 0.66438 22.6884 0.677398C22.5132 0.698105 22.3049 0.819458 22.0953 0.726084C22.0331 0.697939 22.0105 0.437646 21.896 0.627518C21.8719 0.667206 21.9309 0.977146 21.7601 0.718787C21.7316 0.675816 21.4503 0.331645 21.346 0.576752C21.3185 0.64124 21.2568 0.903893 21.1819 0.86971C21.1716 0.864114 21.1988 0.721022 21.1382 0.712378C20.9248 0.684373 20.7064 0.718285 20.4873 0.693644C20.4288 0.686796 20.5016 0.534545 20.4146 0.528975C20.1756 0.513431 19.8842 0.577392 19.6582 0.644466C19.5748 0.669467 19.6449 0.783638 19.64 0.797254C19.5609 1.0186 19.475 0.738185 19.4404 0.724676C19.2258 0.644535 19.0832 0.794153 18.891 0.777405C18.8379 0.773169 18.8613 0.633142 18.8496 0.622023C18.7299 0.514041 18.8347 0.750827 18.7692 0.784656C18.5859 0.880253 18.3724 0.891042 18.1781 0.893692C18.1067 0.89447 18.1697 0.728166 18.1058 0.730701C17.7283 0.742611 17.3365 0.800224 16.9805 0.927913C16.9134 0.95225 16.9703 1.06901 16.9591 1.09838C16.8819 1.30364 16.7077 1.05491 16.6715 1.03344C16.5076 0.935249 16.4597 1.04958 16.3231 1.04491C15.6563 1.01994 14.8542 1.18864 14.2472 1.30915C13.4472 1.46651 12.8402 1.66271 12.0755 1.73405C12.0272 1.73872 12.0542 1.57094 12.0122 1.57289C11.4599 1.60708 10.949 1.74092 10.3934 1.77045C10.3485 1.77308 10.3914 1.61137 10.3185 1.61046C10.169 1.60751 9.986 1.64148 9.84701 1.71068C9.77919 1.74414 9.8929 1.8619 9.82431 1.89289C9.66225 1.96571 9.47949 2.00253 9.3031 2.00248C9.22784 2.00215 9.31699 1.83019 9.22092 1.84193C8.57352 1.91769 7.9291 1.98272 7.29249 2.28108C7.24941 2.30148 7.25564 2.62459 7.15168 2.57748C7.13179 2.49043 7.1172 2.38676 7.10047 2.29306C6.14143 2.37979 5.2317 2.62479 4.28637 2.77573C4.24775 2.78188 4.29084 2.6042 4.21608 2.61522C3.75759 2.68236 3.32714 2.69451 2.8974 2.92196C2.8555 2.94416 2.9183 3.23744 2.78207 3.20975C2.75582 3.20493 2.54538 3.19208 2.48629 3.13416C2.47807 3.12534 2.49666 2.98231 2.43196 2.98647C2.06783 3.01155 1.68299 3.09039 1.31842 3.21426C1.26109 3.23433 1.33903 3.37561 1.29832 3.39118C1.15726 3.4454 1.00154 3.45189 0.847326 3.46329C0.7024 3.47393 0.551774 3.49013 0.424219 3.56391C0.261622 3.66201 0.336482 3.91585 0.239218 4.17134C0.223536 4.20765 0.112944 4.21389 0.107301 4.36059C0.0871368 4.73036 0.145759 5.13572 0.118653 5.52984C0.111503 5.61549 -0.0732133 5.51959 0.0328288 5.72744C0.0395393 5.74177 0.180872 5.8109 0.21977 5.87955C0.246326 5.92733 0.20081 6.0776 0.255887 6.13839C0.309117 6.1991 0.379164 6.07178 0.450583 6.14134C0.530549 6.2112 0.502307 6.38347 0.665016 6.39474ZM38.3723 1.49498C38.2538 1.6307 38.2705 1.1073 38.3812 1.23975C38.3865 1.24678 38.3784 1.48834 38.3723 1.49498ZM51.5969 2.6524C51.4317 2.86831 51.3646 2.52082 51.4839 2.35322C51.603 2.18579 51.6472 2.58696 51.5969 2.6524ZM53.0598 2.9661C52.8729 3.1303 52.9198 2.38906 53.0862 2.55653C53.0959 2.56602 53.0707 2.95657 53.0598 2.9661ZM0.71378 4.21986C0.717031 4.22666 0.622803 4.23991 0.621098 4.23303C0.562796 4.07037 0.740584 4.04483 0.71378 4.21986ZM54.5088 3.29845C54.4474 3.39301 54.3075 3.26202 54.3858 3.1446C54.4494 3.0502 54.5859 3.18089 54.5088 3.29845ZM32.6287 1.75232C32.6267 1.76004 32.5629 1.76449 32.5659 1.72049C32.576 1.57877 32.6628 1.6224 32.6287 1.75232ZM56.9979 3.57449C56.6293 3.5614 56.3399 4.14655 56.7416 4.12131C56.8098 4.11628 56.6175 3.91083 56.7103 3.86551C56.8785 3.78284 56.9708 4.18047 57.1491 3.99316C57.206 3.96159 57.0045 3.5722 56.9974 3.57357C56.9975 3.57388 56.9977 3.57418 56.9979 3.57449ZM38.2697 2.11845C38.2671 2.12522 38.179 2.12626 38.1773 2.11928C38.1402 1.95045 38.3178 1.94826 38.2697 2.11845ZM28.9261 1.98252C28.9213 1.99719 28.7172 2.01146 28.7104 1.99797C28.6024 1.7265 29.0169 1.69679 28.9261 1.98252ZM44.1444 2.92436C44.2263 3.09861 44.3365 3.12721 44.4313 2.92425C44.3335 2.92755 44.2405 2.92173 44.1444 2.92436Z" fill="#244731"/>
</svg>
