<svg width="109" height="109" viewBox="0 0 109 109" fill="none" xmlns="http://www.w3.org/2000/svg">
<path d="M56.3523 25.1667C57.1209 22.6613 58.8026 20.4995 60.9118 18.9727C63.21 21.2551 65.4819 23.5611 67.7932 25.8252C67.0088 25.8724 66.2244 25.9353 65.4452 26.0272C63.9 24.4846 62.3679 22.9341 60.8174 21.3994C57.3203 24.5239 56.6513 30.1959 59.1961 34.1048C58.7291 34.5036 58.27 34.9076 57.8109 35.3143C55.8249 32.3838 55.2609 28.5378 56.3523 25.1667Z" fill="#244731"/>
<path d="M44.4916 32.2739C43.0461 27.6907 44.8143 22.6904 47.8444 19.1592C50.4495 20.993 52.3463 23.8473 52.8343 27.0139C53.4534 30.4873 52.2886 34.1261 49.9904 36.7627C49.5943 36.3193 49.2034 35.8681 48.823 35.4142C49.9012 33.9241 50.7617 32.2372 51.0424 30.4034C51.512 27.2893 50.4207 23.9785 48.1514 21.7853C46.1444 24.7944 45.1081 28.7191 46.4146 32.2136C47.7578 35.9783 50.99 38.6175 54.2457 40.7189C56.6803 36.8991 59.957 33.1895 64.4641 31.9119C68.987 30.6106 73.8404 32.3631 77.3217 35.3198C75.3856 38.0377 72.3424 40.0289 68.9896 40.3726C65.663 40.8527 62.2525 39.6616 59.7235 37.5051C60.1642 37.0775 60.6181 36.663 61.0825 36.259C62.7431 37.5864 64.7737 38.5125 66.9197 38.5965C69.7898 38.8169 72.6729 37.6547 74.7088 35.6425C72.1981 34.0159 69.1627 32.9586 66.1458 33.4125C63.197 33.8769 60.6076 35.6661 58.6531 37.8619C57.5591 39.0503 56.696 40.4172 55.7725 41.7368C59.5136 44.132 63.1471 47.2828 64.4851 51.6745C65.9542 56.2603 64.1624 61.2554 61.1612 64.8102C58.9627 63.2755 57.2338 61.0245 56.4993 58.4299C55.3134 54.6023 56.2946 50.2132 58.9706 47.2356C59.3903 47.6763 59.8048 48.1223 60.2141 48.5735C58.5219 50.6513 57.5854 53.385 57.9028 56.0662C58.1022 58.3827 59.2172 60.5497 60.8175 62.2104C62.7405 59.2983 63.8319 55.5625 62.7011 52.1467C61.4655 48.1984 58.1284 45.3991 54.7389 43.282C52.2466 47.1254 48.9384 50.9137 44.3368 52.1179C39.8559 53.3194 35.097 51.601 31.6733 48.6601C33.5413 45.9317 36.5504 43.9956 39.8481 43.5863C43.2087 43.1062 46.7347 44.2002 49.2585 46.4669C48.8308 46.8762 48.3927 47.2802 47.9257 47.6448C45.785 46.0445 43.0776 45.0319 40.3806 45.3886C38.0851 45.6143 35.9181 46.703 34.2942 48.3296C36.7839 49.964 39.7982 50.995 42.7995 50.5595C45.827 50.0663 48.4714 48.2299 50.4548 45.9527C51.4858 44.801 52.3306 43.4971 53.2094 42.23C49.471 39.8269 45.827 36.6682 44.4916 32.2739Z" fill="#244731"/>
<path d="M31.4868 35.5478C33.7719 33.2444 36.0726 30.9541 38.3603 28.6533C38.4075 29.464 38.4705 30.272 38.5545 31.08C37.0302 32.6357 35.4902 34.1731 33.945 35.7078C35.7683 37.5731 38.2973 38.7983 40.9261 38.8166C42.9278 38.9111 44.9137 38.3024 46.6269 37.2872C47.0335 37.7541 47.4375 38.2237 47.8363 38.6986C44.7144 40.7055 40.6375 41.3168 37.143 39.9579C34.8449 39.1367 32.9009 37.5154 31.4868 35.5478Z" fill="#244731"/>
<path d="M61.1479 45.2962C63.454 43.7719 66.2847 43.0426 69.0394 43.3443C72.4367 43.688 75.5587 45.6477 77.5158 48.4234C75.2229 50.7189 72.9247 53.0118 70.6344 55.31C70.5846 54.4993 70.5242 53.6913 70.4429 52.8859C71.9803 51.3249 73.5334 49.7797 75.0733 48.2213C73.578 46.8729 71.8255 45.7107 69.8107 45.3434C67.2816 44.7794 64.5663 45.304 62.3757 46.6735C61.9743 46.2065 61.5651 45.7474 61.1479 45.2962Z" fill="#244731"/>
<path d="M49.7986 49.8617L51.176 48.6182C53.0649 51.4777 53.7155 55.148 52.7474 58.4509C52.0233 61.1164 50.242 63.3883 48.0462 65.0175C45.7532 62.7088 43.4603 60.4028 41.1543 58.1046C41.9676 58.0863 42.7809 58.0312 43.5915 57.942C45.1262 59.4688 46.6531 61.0062 48.1931 62.5331C50.0216 60.7989 51.1838 58.3775 51.3255 55.8563C51.4829 53.7549 50.8611 51.6614 49.7986 49.8617Z" fill="#244731"/>
<path d="M55.7227 75.9082C56.2788 75.9082 56.835 75.9082 57.3938 75.9082C57.3886 79.6545 57.4148 83.4008 57.3781 87.1498C58.9626 84.243 60.5472 81.3388 62.1554 78.4477C62.4309 77.7551 63.5695 77.7473 63.8607 78.4294C65.5108 81.3414 67.1348 84.2692 68.7534 87.197C68.6826 83.4376 68.7403 79.6729 68.722 75.9108C69.2781 75.9108 69.8343 75.9108 70.3931 75.9108C70.3957 80.6121 70.3957 85.3133 70.3931 90.0172C69.7609 90.033 69.2335 90.033 68.5278 90.033C67.4469 88.2831 66.4605 86.2998 65.4321 84.5211C64.6267 83.0257 63.7059 81.5933 63.0159 80.0402C61.3631 83.4323 59.406 86.6697 57.6116 89.991C56.9819 90.0094 56.3523 90.0146 55.7227 90.0172C55.7227 85.316 55.7227 80.6147 55.7227 75.9134V75.9082Z" fill="#244731"/>
<path d="M16.7825 77.9096C19.469 75.3255 24.2332 75.2835 27.0666 77.6735C26.7622 78.0434 26.4343 78.4028 26.1116 78.7963C25.5449 78.5261 24.9258 78.151 24.2857 77.9332C22.9477 77.4741 21.4523 77.4584 20.096 77.8545C18.6137 78.3136 17.4778 79.5729 17.079 81.0263C16.4362 83.2667 16.8324 86.0424 18.8262 87.5299C20.7492 88.8547 23.4357 88.7629 25.4584 87.6873C25.4505 86.6825 25.4531 85.6777 25.4531 84.6729C24.653 84.6441 23.6692 84.6231 22.8506 84.6073C22.8506 84.3109 22.8664 83.6655 22.8506 83.2405C24.2988 83.2353 25.7286 83.2379 27.1767 83.2379C27.1794 84.9956 27.1741 86.7586 27.1794 88.5163C24.5297 90.3554 20.7387 90.56 17.9526 88.8915C14.2247 86.6379 13.8338 80.924 16.7825 77.9096Z" fill="#244731"/>
<path d="M29.7922 75.8418H31.689C31.689 80.0052 31.689 84.1713 31.689 88.3374C33.7221 88.3374 35.7553 88.3374 37.7885 88.3374V89.943H29.7922C29.7896 85.2417 29.7922 80.5431 29.7922 75.8418Z" fill="#244731"/>
<path d="M43.054 76.1752C45.3338 75.6295 47.9573 76.0178 49.7202 77.6102C52.4198 80.0448 52.6769 84.4706 50.6227 87.3643C48.078 90.8509 42.0256 90.8771 39.4467 87.4167C37.4503 84.6542 37.5762 80.4829 39.9452 77.9644C40.769 77.0829 41.8734 76.4716 43.054 76.1752ZM43.5918 77.7492C41.8131 78.1192 40.525 79.6985 40.1892 81.3932C39.8429 83.1352 39.9898 85.0976 41.0864 86.5772C42.8887 89.0223 47.2043 89.0118 48.9699 86.5326C49.896 85.2707 50.1006 83.6442 49.9537 82.1357C49.8173 80.7505 49.2087 79.3443 48.0465 78.4943C46.8056 77.5446 45.0872 77.4213 43.5918 77.7492Z" fill="#244731"/>
<path d="M74.2917 75.8395C74.9161 75.8395 75.5484 75.8448 76.1649 75.8369C77.3979 77.9462 78.5601 80.1237 79.7669 82.2487C80.4097 83.4319 81.139 84.5731 81.6611 85.8192C82.4717 84.009 83.5395 82.3274 84.4656 80.5749C85.3602 79.0271 86.1446 77.3375 87.11 75.8369H88.9622C88.9622 80.5382 88.9622 85.2421 88.9622 89.9433C88.4034 89.9433 87.8472 89.9433 87.2911 89.9433C87.312 86.1865 87.2491 82.4297 87.3252 78.6729C85.7537 81.564 84.1665 84.4445 82.5819 87.3277C82.3353 88.0859 81.1154 88.1699 80.8163 87.4169C79.174 84.4996 77.5422 81.5744 75.9235 78.644C76.0127 82.4087 75.9393 86.176 75.9655 89.9433C75.4041 89.9433 74.8479 89.9433 74.2917 89.9433C74.2944 85.2421 74.2917 80.5408 74.2917 75.8395Z" fill="#244731"/>
<path d="M92.2651 75.8418H94.1697V89.943C93.5322 89.943 92.8973 89.943 92.2625 89.943C92.2625 85.2417 92.2625 80.5431 92.2651 75.8418Z" fill="#244731"/>
</svg>
