<svg width="80" height="80" viewBox="0 0 80 80" fill="none" xmlns="http://www.w3.org/2000/svg">
<path d="M43.2242 10.765C44.5582 6.41407 47.4791 2.65265 51.1442 0C55.1463 3.97195 59.0922 7.97197 63.1084 11.9018C61.7462 11.986 60.3841 12.0983 59.022 12.2527C56.3399 9.57198 53.6718 6.87723 50.9757 4.21055C44.8953 9.64216 43.7297 19.4948 48.1531 26.2879C47.3387 26.9756 46.5382 27.6774 45.7519 28.3931C42.2974 23.2984 41.3144 16.6176 43.2102 10.765H43.2242Z" fill="white"/>
<path d="M22.5945 23.1156C20.0809 15.1577 23.1562 6.46992 28.4221 0.32251C32.9438 3.50849 36.2438 8.46291 37.1004 13.9647C38.1817 19.9998 36.1455 26.3157 32.1574 30.9052C31.4694 30.1332 30.7953 29.3472 30.1213 28.5613C31.9889 25.9788 33.4915 23.0455 33.9829 19.8595C34.7974 14.4419 32.9017 8.70151 28.9557 4.88394C25.4732 10.1191 23.6617 16.9261 25.9366 23.0034C28.2677 29.5437 33.8847 34.1332 39.5438 37.7824C43.7706 31.1438 49.4718 24.7016 57.3075 22.4841C65.1713 20.2244 73.6108 23.27 79.6631 28.4069C76.2929 33.1227 71.013 36.5894 65.1853 37.1929C59.3998 38.021 53.4739 35.9578 49.0786 32.2104C49.851 31.4666 50.6373 30.7508 51.4378 30.049C54.3305 32.3508 57.8552 33.9648 61.5905 34.1052C66.5755 34.4841 71.5887 32.4631 75.1274 28.9683C70.7602 26.1472 65.4802 24.3086 60.2424 25.0946C55.1169 25.8946 50.6092 29.0104 47.211 32.828C45.3152 34.8911 43.8127 37.2631 42.1978 39.5649C48.6995 43.7333 55.0186 49.207 57.3496 56.8281C59.9054 64.8001 56.7879 73.4738 51.5782 79.6493C47.7586 76.9826 44.7535 73.0668 43.4757 68.5615C41.4114 61.9088 43.1246 54.2877 47.7727 49.1088C48.5029 49.8807 49.219 50.6526 49.9352 51.4386C47.0003 55.0456 45.3714 59.8036 45.9191 64.4632C46.2701 68.4913 48.208 72.2528 50.9884 75.144C54.3305 70.0913 56.2262 63.5931 54.2603 57.6562C52.1118 50.793 46.3122 45.9368 40.4144 42.2596C36.0753 48.9404 30.3319 55.5229 22.3277 57.6141C14.5341 59.7053 6.26309 56.7158 0.309082 51.607C3.55289 46.8632 8.79074 43.5087 14.5201 42.7929C20.3617 41.9649 26.4983 43.8596 30.8796 47.8035C30.1353 48.5193 29.377 49.2211 28.5625 49.8526C24.8413 47.0737 20.1371 45.3193 15.4469 45.9368C11.4588 46.3298 7.69543 48.2246 4.87289 51.0456C9.19797 53.8807 14.4358 55.6772 19.6596 54.9193C24.9256 54.0632 29.5174 50.8772 32.9719 46.9193C34.7693 44.9122 36.2297 42.6526 37.7604 40.4491C31.2587 36.2806 24.9256 30.7788 22.6085 23.1437L22.5945 23.1156Z" fill="white"/>
<path d="M0 28.8003C3.97402 24.8002 7.97613 20.8142 11.9502 16.8142C12.0344 18.2177 12.1467 19.6212 12.2872 21.0248C9.63314 23.7335 6.96507 26.4002 4.26892 29.0669C7.44252 32.309 11.8378 34.4424 16.4016 34.4705C19.8842 34.6389 23.3386 33.5722 26.3156 31.8178C27.0177 32.6318 27.7199 33.4459 28.422 34.274C23.0016 37.7547 15.9101 38.8214 9.82974 36.4634C5.82763 35.0319 2.45743 32.2248 0 28.8003Z" fill="white"/>
<path d="M51.5498 45.7405C55.5519 43.0878 60.4808 41.8247 65.2693 42.344C71.1812 42.9475 76.6016 46.344 79.9999 51.1721C76.0118 55.1581 72.0237 59.144 68.0357 63.1441C67.9514 61.7406 67.8391 60.337 67.6987 58.9335C70.3667 56.2247 73.0769 53.53 75.745 50.8352C73.1471 48.4914 70.0999 46.4703 66.6033 45.8387C62.208 44.8563 57.4898 45.7685 53.6843 48.1545C52.9821 47.3405 52.28 46.5405 51.5498 45.7545V45.7405Z" fill="white"/>
<path d="M31.818 53.6704L34.2193 51.509C37.5052 56.4775 38.6287 62.8495 36.9576 68.5898C35.6938 73.2214 32.6044 77.1653 28.7849 80.0004C24.7968 75.9864 20.8087 71.9864 16.8066 67.9863C18.2249 67.9583 19.6292 67.86 21.0475 67.7056C23.7155 70.3583 26.3696 73.025 29.0517 75.6776C32.2253 72.66 34.2474 68.4635 34.5002 64.0705C34.767 60.4214 33.6997 56.7863 31.8461 53.6564L31.818 53.6704Z" fill="white"/>
</svg>
