<svg width="40" height="41" viewBox="0 0 40 41" fill="none" xmlns="http://www.w3.org/2000/svg">
<path d="M21.6121 5.3853C22.2791 3.20871 23.7395 1.32702 25.5721 0C27.5731 1.98701 29.5461 3.98807 31.5541 5.95402C30.8731 5.99614 30.192 6.05231 29.511 6.12955C28.1699 4.78849 26.8359 3.44041 25.4878 2.10637C22.4476 4.8236 21.8649 9.75251 24.0766 13.1508C23.6693 13.4948 23.2691 13.8459 22.8759 14.204C21.1487 11.6553 20.6572 8.31316 21.6051 5.3853H21.6121Z" fill="black"/>
<path d="M11.2974 11.5639C10.0406 7.58284 11.5783 3.23668 14.2112 0.161377C16.4721 1.7552 18.1221 4.2337 18.5504 6.98603C19.091 10.0052 18.0729 13.1647 16.0789 15.4607C15.7349 15.0745 15.3978 14.6813 15.0608 14.2881C15.9946 12.9962 16.7459 11.5288 16.9916 9.93495C17.3989 7.22475 16.451 4.35306 14.4781 2.44328C12.7368 5.06221 11.8311 8.46752 12.9685 11.5077C14.134 14.7796 16.9425 17.0756 19.772 18.9011C21.8854 15.58 24.736 12.3573 28.6539 11.2479C32.5858 10.1175 36.8055 11.6411 39.8316 14.2109C38.1465 16.57 35.5066 18.3043 32.5928 18.6062C29.7 19.0205 26.7371 17.9883 24.5394 16.1137C24.9256 15.7415 25.3188 15.3835 25.719 15.0324C27.1654 16.1839 28.9277 16.9913 30.7953 17.0615C33.2879 17.2511 35.7944 16.24 37.5638 14.4917C35.3802 13.0805 32.7402 12.1607 30.1213 12.5539C27.5586 12.9541 25.3048 14.5128 23.6056 16.4226C22.6578 17.4547 21.9065 18.6413 21.0991 19.7928C24.3499 21.8781 27.5094 24.6164 28.6749 28.4289C29.9528 32.417 28.3941 36.7561 25.7892 39.8455C23.8794 38.5114 22.3769 36.5525 21.738 34.2987C20.7059 30.9706 21.5625 27.1581 23.8865 24.5672C24.2516 24.9534 24.6097 25.3396 24.9677 25.7328C23.5003 27.5372 22.6858 29.9174 22.9597 32.2485C23.1352 34.2636 24.1041 36.1453 25.4943 37.5917C27.1654 35.064 28.1132 31.8132 27.1303 28.8432C26.056 25.4098 23.1563 22.9804 20.2074 21.1409C18.0378 24.483 15.1661 27.776 11.164 28.8221C7.26727 29.8683 3.13178 28.3728 0.154785 25.817C1.77668 23.4438 4.39559 21.7658 7.26025 21.4077C10.1811 20.9934 13.2493 21.9413 15.44 23.9143C15.0678 24.2723 14.6887 24.6234 14.2815 24.9394C12.4208 23.5492 10.0687 22.6715 7.72365 22.9804C5.72962 23.177 3.84794 24.1249 2.43668 25.5362C4.59921 26.9545 7.21812 27.8532 9.83001 27.474C12.463 27.0457 14.7589 25.4519 16.4861 23.4719C17.3848 22.4679 18.115 21.3375 18.8804 20.2351C15.6295 18.1498 12.463 15.3975 11.3045 11.5779L11.2974 11.5639Z" fill="black"/>
<path d="M0 14.4075C1.987 12.4065 3.98805 10.4124 5.97505 8.41138C6.01718 9.1135 6.07335 9.81563 6.14356 10.5178C4.81655 11.8729 3.48252 13.2069 2.13445 14.5409C3.72124 16.1628 5.91888 17.2301 8.20077 17.2441C9.94203 17.3284 11.6692 16.7947 13.1577 15.9171C13.5088 16.3243 13.8599 16.7316 14.2109 17.1458C11.5007 18.8871 7.95503 19.4207 4.91485 18.2411C2.9138 17.525 1.22871 16.1207 0 14.4075Z" fill="black"/>
<path d="M25.7749 22.8823C27.7759 21.5552 30.2404 20.9233 32.6346 21.1831C35.5905 21.485 38.3007 23.1842 39.9999 25.5995C38.0058 27.5935 36.0118 29.5875 34.0178 31.5886C33.9757 30.8865 33.9195 30.1844 33.8493 29.4822C35.1833 28.1271 36.5384 26.7791 37.8724 25.431C36.5735 24.2584 35.0499 23.2474 33.3016 22.9314C31.104 22.4399 28.7449 22.8963 26.8421 24.0899C26.4911 23.6827 26.14 23.2825 25.7749 22.8893V22.8823Z" fill="black"/>
<path d="M15.909 26.8491L17.1096 25.7678C18.7526 28.2533 19.3143 31.441 18.4788 34.3127C17.8468 36.6297 16.3022 38.6027 14.3924 40.021C12.3984 38.0129 10.4044 36.0118 8.40332 34.0108C9.11246 33.9967 9.81458 33.9476 10.5237 33.8703C11.8578 35.1974 13.1848 36.5314 14.5258 37.8584C16.1126 36.3488 17.1237 34.2495 17.25 32.0518C17.3834 30.2263 16.8498 28.4078 15.923 26.8421L15.909 26.8491Z" fill="black"/>
</svg>
