<svg width="286" height="56" viewBox="0 0 286 56" fill="none" xmlns="http://www.w3.org/2000/svg">
<path d="M30.1687 7.51745C31.0998 4.4791 33.1384 1.85241 35.6965 0C38.4898 2.77371 41.2439 5.56702 44.047 8.31133C43.0963 8.37014 42.1456 8.44855 41.1949 8.55636C39.3229 6.68435 37.4607 4.80254 35.5789 2.94033C31.335 6.73336 30.5215 13.6137 33.6089 18.3575C33.0404 18.8377 32.4817 19.3278 31.9329 19.8276C29.5218 16.2698 28.8358 11.6045 30.1589 7.51745H30.1687Z" fill="#244731"/>
<path d="M15.7706 16.1423C14.0162 10.5851 16.1627 4.51823 19.8381 0.225342C22.994 2.45019 25.2973 5.90998 25.8951 9.75202C26.6498 13.9665 25.2286 18.377 22.4451 21.582C21.9649 21.0429 21.4944 20.494 21.024 19.9452C22.3275 18.1418 23.3762 16.0933 23.7193 13.8685C24.2877 10.0853 22.9646 6.0766 20.2105 3.4107C17.7798 7.06651 16.5155 11.8201 18.1033 16.0639C19.7302 20.6312 23.6507 23.8362 27.6005 26.3845C30.5506 21.7486 34.5299 17.2499 39.9989 15.7013C45.4875 14.1233 51.3779 16.2501 55.6022 19.8373C53.2499 23.1305 49.5647 25.5514 45.4973 25.9728C41.4592 26.5511 37.3232 25.1103 34.2554 22.4935C34.7945 21.974 35.3433 21.4741 35.902 20.9841C37.921 22.5915 40.3811 23.7186 42.9882 23.8166C46.4676 24.0812 49.9666 22.6699 52.4364 20.2294C49.3883 18.2594 45.7031 16.9754 42.0473 17.5243C38.4699 18.083 35.3237 20.2588 32.9519 22.9247C31.6287 24.3655 30.58 26.0219 29.4529 27.6292C33.9908 30.5402 38.4013 34.3626 40.0283 39.6846C41.8121 45.2516 39.6362 51.3087 36 55.6212C33.3341 53.759 31.2367 51.0245 30.3448 47.8783C28.904 43.2326 30.0998 37.9106 33.3439 34.294C33.8536 34.833 34.3534 35.3721 34.8533 35.921C32.8049 38.4398 31.6679 41.7624 32.0502 45.0164C32.2952 47.8293 33.6478 50.456 35.5884 52.475C37.921 48.9466 39.2442 44.4087 37.872 40.2629C36.3725 35.4701 32.3246 32.0789 28.2082 29.511C25.1796 34.1764 21.171 38.7731 15.5844 40.2335C10.1448 41.6938 4.37196 39.6062 0.216309 36.0386C2.48036 32.7258 6.13616 30.3833 10.135 29.8835C14.2122 29.3052 18.4953 30.6284 21.5532 33.3825C21.0338 33.8823 20.5045 34.3724 19.9361 34.8134C17.3388 32.8728 14.0554 31.6477 10.7819 32.0789C7.99836 32.3534 5.37167 33.6765 3.40166 35.6465C6.42039 37.6264 10.0762 38.8809 13.7222 38.3516C17.3976 37.7538 20.6025 35.5289 23.0136 32.765C24.2681 31.3634 25.2875 29.7855 26.3558 28.2467C21.8179 25.3358 17.3976 21.4937 15.7804 16.1619L15.7706 16.1423Z" fill="#244731"/>
<path d="M0 20.1118C2.7737 17.3185 5.56701 14.535 8.34071 11.7417C8.39952 12.7218 8.47793 13.7019 8.57594 14.682C6.72354 16.5736 4.86133 18.4358 2.97953 20.2981C5.19457 22.5621 8.26231 24.0519 11.4477 24.0715C13.8783 24.1891 16.2894 23.4442 18.3672 22.2191C18.8573 22.7875 19.3473 23.356 19.8374 23.9343C16.0542 26.3649 11.1046 27.1098 6.86075 25.4632C4.06745 24.4635 1.71519 22.5033 0 20.1118Z" fill="#244731"/>
<path d="M35.98 31.9417C38.7733 30.0893 42.2135 29.2072 45.5556 29.5699C49.6819 29.9913 53.4651 32.3632 55.837 35.7347C53.0534 38.5183 50.2699 41.3018 47.4864 44.0951C47.4276 43.115 47.3492 42.1349 47.2512 41.1548C49.1134 39.2631 51.005 37.3813 52.8672 35.4995C51.054 33.8627 48.9272 32.4514 46.4867 32.0103C43.419 31.3243 40.1258 31.9613 37.4697 33.6275C36.9797 33.059 36.4896 32.5004 35.98 31.9515V31.9417Z" fill="#244731"/>
<path d="M22.2078 37.4793L23.8838 35.97C26.1772 39.4396 26.9613 43.8893 25.795 47.8979C24.9129 51.1323 22.7567 53.8864 20.0908 55.8662C17.3073 53.0631 14.5238 50.2698 11.7305 47.4765C12.7204 47.4569 13.7005 47.3883 14.6904 47.2804C16.5526 49.1328 18.405 50.9951 20.277 52.8475C22.492 50.7402 23.9034 47.8097 24.0798 44.742C24.266 42.1937 23.5212 39.6552 22.2274 37.4695L22.2078 37.4793Z" fill="#244731"/>
<path d="M222.837 10.1189V45.9065C221.565 45.9319 220.407 45.9319 218.951 45.9319C217.355 43.3052 215.803 40.456 214.295 37.7021C213.227 35.7242 212.127 33.6826 211.02 31.7873C210.308 30.4581 209.551 29.1352 208.807 27.8632C207.376 25.3383 205.881 22.7371 204.698 20.0595L204.126 18.7875L203.515 20.0341C200.691 25.8217 197.48 31.5393 194.376 37.0661C192.76 39.9281 191.101 42.8918 189.498 45.8301C188.169 45.8683 186.846 45.881 185.586 45.881C185.574 37.8738 185.574 29.8475 185.586 21.8213V10.1189H188.671C188.671 13.1717 188.671 16.2436 188.684 19.3154C188.684 25.7644 188.696 32.436 188.633 39.0059L188.607 41.6071L189.854 39.3303C194.312 31.1513 198.332 23.7928 202.415 16.4598L202.428 16.4216L202.44 16.3835C202.727 15.6712 203.509 15.4231 204.094 15.4231C204.679 15.4231 205.436 15.6712 205.735 16.358L205.748 16.3835L205.76 16.4216C210.289 24.3907 214.772 32.4933 218.62 39.4511L219.879 41.7534L219.841 39.1267C219.727 32.9258 219.739 26.6167 219.752 20.5047C219.765 17.0449 219.765 13.5851 219.752 10.1253H222.85L222.837 10.1189Z" fill="#244731"/>
<path d="M109.254 29.3771V42.2624C105.718 44.6283 101.336 45.9321 96.8646 45.9321C92.9087 45.9321 89.1563 44.9335 85.9954 43.0319C81.7724 40.4816 78.9485 35.9215 78.2553 30.5091C77.5303 24.7216 79.3238 19.0039 83.038 15.207C86.3515 12.008 91.2169 10.1636 96.3685 10.1636C100.999 10.1636 105.355 11.5946 108.694 14.2085C108.433 14.5202 108.16 14.8191 107.899 15.1307C107.575 15.5059 107.25 15.8748 106.926 16.2628C106.602 16.1038 106.277 15.9257 105.94 15.754C104.846 15.1816 103.702 14.5965 102.519 14.1958C100.604 13.5344 98.5754 13.21 96.4957 13.21C94.664 13.21 92.8387 13.4708 91.0961 13.9796C87.0766 15.2134 83.8775 18.5842 82.7327 22.7563C81.0537 28.5821 81.8996 36.3349 87.5854 40.5706C90.1357 42.326 93.2839 43.2609 96.6865 43.2609C99.7838 43.2609 102.97 42.4532 105.686 41.0094L106.036 40.825L106.023 40.437C106.01 38.3192 106.01 36.214 106.01 34.1025V31.8765L105.387 31.8638C103.695 31.8002 101.476 31.7493 99.186 31.6921V31.4695C99.186 30.8335 99.1987 30.0639 99.186 29.3898C101.329 29.377 103.454 29.3771 105.571 29.3771H109.254Z" fill="#244731"/>
<path d="M137.142 42.7838V45.7094H117.42V9.94727H121.109V42.7838H137.142Z" fill="#244731"/>
<path d="M168.72 14.4244C165.705 11.7087 161.476 10.2141 156.82 10.2141C155.116 10.2141 153.424 10.4113 151.79 10.7992C148.737 11.5815 145.938 13.1779 143.935 15.3275C138.033 21.5921 137.486 32.156 142.676 39.3428C145.716 43.4132 150.988 45.8554 156.782 45.8554C162.576 45.8554 167.963 43.3686 170.997 39.1965C176.422 31.5645 175.391 20.4473 168.72 14.4244ZM167.702 37.7782C165.4 41.0155 161.317 42.9552 156.795 42.9552C152.273 42.9552 148.279 41.0727 145.938 37.8991C142.313 33.0083 142.828 26.9472 143.471 23.7672C144.469 18.711 148.266 14.6534 152.909 13.6739C154.264 13.375 155.612 13.2287 156.954 13.2287C160.166 13.2287 163.002 14.1 165.146 15.7536C168.071 17.897 169.998 21.5539 170.412 25.777C170.736 29.135 170.539 33.9304 167.709 37.7782H167.702Z" fill="#244731"/>
<path d="M271.643 9.93433C271.656 17.9415 271.643 25.9805 271.643 34.0068V45.7092H268.559C268.571 42.1985 268.559 38.6496 268.546 35.2025C268.533 29.1542 268.52 22.9023 268.635 16.7522L268.686 14.0874L267.414 16.4279C263.941 22.826 260.38 29.3132 256.92 35.5841L254.955 39.1711L254.916 39.222L254.904 39.2856C254.643 40.0933 253.797 40.4431 253.085 40.4431C252.799 40.4431 251.851 40.3795 251.488 39.4828L251.476 39.4446L251.45 39.4064C247.094 31.6663 242.775 23.9072 238.603 16.3515L237.318 14.0238L237.382 16.6759C237.528 22.8006 237.496 29.0397 237.484 35.0753C237.471 38.5606 237.458 42.1603 237.484 45.7092H234.386V9.93433H235.143L236.549 9.94705C237.134 9.94705 237.719 9.93433 238.291 9.93433C240.149 13.1207 241.974 16.4215 243.742 19.6078C245.014 21.8974 246.28 24.187 247.564 26.4321C248.06 27.3543 248.576 28.251 249.084 29.1605C250.293 31.2784 251.552 33.4789 252.506 35.7685L253.091 37.1486L253.702 35.7813C255.069 32.7412 256.742 29.7711 258.357 26.9155C259.254 25.3318 260.189 23.6782 261.047 22.0501C261.982 20.4219 262.892 18.7238 263.763 17.0702C265.035 14.6789 266.352 12.2048 267.783 9.93433H271.643Z" fill="#244731"/>
<path d="M285.336 9.94727V45.7094H281.616V37.0853C281.616 28.035 281.616 18.9975 281.628 9.94727H285.336Z" fill="#244731"/>
</svg>
