<svg width="24" height="24" viewBox="0 0 24 24" fill="none" xmlns="http://www.w3.org/2000/svg">
<path fill-rule="evenodd" clip-rule="evenodd" d="M22.3638 17.7069C22.0378 18.5129 21.2718 18.8899 20.8358 19.0669C20.4996 19.2012 20.1536 19.3092 19.8008 19.3899L19.7778 19.4779C19.6867 19.8632 19.4691 20.2069 19.1598 20.4539C18.8361 20.7117 18.4313 20.8457 18.0178 20.8319H18.0028L17.9718 20.8309C17.7521 20.8218 17.5338 20.792 17.3198 20.7419C17.0967 20.6928 16.8691 20.6676 16.6408 20.6669C16.5114 20.6669 16.3804 20.6769 16.2478 20.6969C15.9847 20.7782 15.7424 20.9157 15.5378 21.0999C14.6164 21.9413 13.4309 22.4356 12.1848 22.4979L12.1498 22.4999H12.1138L11.9858 22.4979L11.8838 22.4999H11.8498L11.8168 22.4979C10.5703 22.4358 9.38434 21.9415 8.46276 21.0999C8.25829 20.9162 8.01639 20.7791 7.75376 20.6979C7.62376 20.6779 7.49376 20.6679 7.36376 20.6679C7.13909 20.6706 6.91676 20.6973 6.69676 20.7479C6.49676 20.7966 6.29342 20.8279 6.08676 20.8419C5.65371 20.8789 5.22239 20.7534 4.87676 20.4899C4.54967 20.2414 4.3186 19.8874 4.22276 19.4879L4.19976 19.3899C3.84695 19.3095 3.50092 19.2019 3.16476 19.0679C2.72876 18.8889 1.96476 18.5119 1.63976 17.7099C1.56181 17.5177 1.51587 17.314 1.50376 17.1069V17.0949C1.48283 16.6876 1.60565 16.2859 1.85076 15.9599C2.09976 15.6299 2.46976 15.3879 2.90276 15.3069C3.6661 15.1507 4.34445 14.7171 4.80676 14.0899L4.82276 14.0689L4.83876 14.0489C5.05676 13.7803 5.24776 13.4899 5.41176 13.1779C5.30517 13.1434 5.20007 13.1043 5.09676 13.0609C4.757 12.9208 4.43936 12.7322 4.15376 12.5009C3.84876 12.2449 3.20776 11.5749 3.38876 10.5619L3.41176 10.4359L3.45576 10.3159C3.61573 9.87285 3.9079 9.48958 4.29276 9.21793C4.68406 8.94149 5.15491 8.80034 5.63376 8.81593C5.60676 7.74893 5.72376 6.68093 5.98376 5.64593L6.00976 5.54093L6.05076 5.44093C6.52269 4.27996 7.32261 3.28162 8.35276 2.56793C9.37077 1.86342 10.5818 1.49107 11.8198 1.50193L12.1638 1.49893C13.4067 1.48467 14.6234 1.85681 15.6458 2.56393C16.677 3.27748 17.4782 4.27574 17.9518 5.43693L17.9928 5.53693L18.0198 5.64293C18.2781 6.6757 18.3955 7.73868 18.3688 8.80293H18.3768C18.6578 8.80293 18.9338 8.85593 19.1918 8.95393C19.5598 9.07393 19.8818 9.29193 20.1268 9.57593C20.3998 9.89193 20.5698 10.2759 20.6278 10.6769L20.6418 10.7699L20.6428 10.8639C20.6638 11.9939 19.7928 12.6869 18.9028 13.0619L18.8918 13.0669C18.7907 13.1079 18.6883 13.1456 18.5848 13.1799C18.8348 13.6659 19.1648 14.0939 19.5558 14.4439C20.0318 14.8689 20.5858 15.1669 21.1718 15.3219C21.5758 15.4159 21.9198 15.6519 22.1538 15.9649C22.4028 16.2969 22.5188 16.6989 22.4988 17.0969V17.1029C22.4873 17.3099 22.442 17.5136 22.3648 17.7059M20.9728 17.1439C20.9886 17.1044 20.9981 17.0625 21.0008 17.0199C21.0038 16.964 20.9871 16.9089 20.9538 16.8639C20.9383 16.8419 20.9186 16.8231 20.8957 16.8089C20.8729 16.7946 20.8474 16.7851 20.8208 16.7809C20.7056 16.7513 20.5915 16.7177 20.4788 16.6799L20.4748 16.6779C20.1844 16.5817 19.9027 16.4609 19.6328 16.3169C19.2453 16.1095 18.884 15.8564 18.5568 15.5629C17.893 14.9662 17.3733 14.2266 17.0368 13.3999L17.0318 13.3879C16.9576 13.2588 16.9112 13.1156 16.8955 12.9675C16.8798 12.8194 16.8952 12.6697 16.9408 12.5279C17.0148 12.3591 17.1373 12.216 17.2928 12.1169L17.3428 12.0839C17.5748 11.9369 17.8508 11.8439 18.0668 11.7709L18.1068 11.7579L18.1168 11.7549L18.1278 11.7509C18.2011 11.7256 18.2654 11.7019 18.3208 11.6799L18.3468 11.6689L18.3648 11.6609H18.3668C18.4795 11.6111 18.589 11.5543 18.6948 11.4909C19.0618 11.2659 19.1458 11.0479 19.1428 10.8909C19.1256 10.7679 19.0736 10.6523 18.9928 10.5579C18.9138 10.4669 18.8093 10.4017 18.6928 10.3709L18.6868 10.3679C18.5521 10.3097 18.404 10.2897 18.2588 10.3099C18.1994 10.3201 18.1416 10.3379 18.0868 10.3629C18.0033 10.4084 17.9168 10.4478 17.8278 10.4809L17.8178 10.4849C17.7652 10.5052 17.7118 10.5232 17.6578 10.5389L17.6518 10.5399C17.513 10.5813 17.3702 10.6074 17.2258 10.6179C17.0511 10.6228 16.881 10.5621 16.7488 10.4479L16.7768 9.93793L16.7808 9.87693C16.9542 8.58521 16.8809 7.27232 16.5648 6.00793C16.2022 5.11593 15.5879 4.34872 14.7968 3.79993C14.0283 3.26786 13.1133 2.98825 12.1788 2.99993L11.8168 3.00193C10.883 2.99146 9.9691 3.27174 9.20176 3.80393C8.41184 4.3526 7.79886 5.11951 7.43776 6.01093C7.12205 7.27333 7.04842 8.58412 7.22076 9.87393C7.23276 10.0653 7.24376 10.2566 7.25376 10.4479C7.10661 10.5699 6.91847 10.631 6.72776 10.6189C6.59831 10.6134 6.46971 10.5953 6.34376 10.5649L6.33676 10.5639C6.15455 10.5216 5.97917 10.454 5.81576 10.3629C5.74672 10.3303 5.67112 10.3138 5.59476 10.3149C5.43686 10.3074 5.28107 10.3536 5.15276 10.4459C5.02074 10.5405 4.92063 10.6731 4.86576 10.8259C4.82176 11.0739 5.00276 11.2809 5.22876 11.4369L5.28876 11.4769C5.41323 11.5566 5.54479 11.6245 5.68176 11.6799C5.76535 11.7141 5.85043 11.7444 5.93676 11.7709C6.18887 11.8487 6.43166 11.954 6.66076 12.0849L6.71476 12.1199C6.86915 12.2176 6.99018 12.3599 7.06176 12.5279C7.10561 12.6704 7.12007 12.8202 7.10425 12.9684C7.08844 13.1166 7.04268 13.26 6.96976 13.3899L6.96676 13.3999C6.72038 13.9729 6.39634 14.5093 6.00376 14.9939C5.55966 15.5856 4.98376 16.0657 4.32176 16.3959C3.96176 16.5739 3.57876 16.7039 3.18176 16.7809C3.15514 16.7851 3.12964 16.7946 3.10679 16.8089C3.08393 16.8231 3.06419 16.8419 3.04876 16.8639C3.01502 16.9087 2.99804 16.9639 3.00076 17.0199C3.00363 17.0629 3.01343 17.1051 3.02976 17.1449C3.09073 17.276 3.18923 17.3859 3.31276 17.4609C3.51342 17.5989 3.80576 17.7243 4.18976 17.8369C4.30376 17.8703 4.42576 17.9023 4.55576 17.9329C4.78843 17.9883 5.04509 18.0389 5.32576 18.0849C5.45176 18.1049 5.50576 18.3249 5.57876 18.6819C5.60742 18.8319 5.64143 18.9803 5.68076 19.1269C5.69386 19.1937 5.73083 19.2534 5.78476 19.2949C5.83776 19.3349 5.90376 19.3539 5.96776 19.3449C6.09776 19.3383 6.22542 19.3193 6.35076 19.2879C6.68137 19.211 7.01934 19.1701 7.35876 19.1659C7.60276 19.1659 7.84509 19.1879 8.08576 19.2319C8.59808 19.3711 9.0707 19.6283 9.46576 19.9829C10.13 20.5936 10.9867 20.953 11.8878 20.9989C11.9178 20.9989 11.9478 20.9976 11.9778 20.9949C12.0148 20.9979 12.0638 20.9989 12.1148 20.9989C13.0158 20.953 13.8725 20.5936 14.5368 19.9829C14.9318 19.6283 15.4044 19.3711 15.9168 19.2319C16.1568 19.1879 16.3994 19.1659 16.6448 19.1659C16.9848 19.1673 17.3211 19.2049 17.6538 19.2789C17.7798 19.3089 17.9064 19.3263 18.0338 19.3309H18.0558C18.117 19.336 18.1778 19.3174 18.2258 19.2789C18.2758 19.2387 18.3098 19.182 18.3218 19.1189C18.3618 18.9696 18.3958 18.8226 18.4238 18.6779C18.4968 18.3219 18.5508 18.1039 18.6758 18.0829C18.9824 18.0323 19.2598 17.9769 19.5078 17.9169C19.6144 17.8903 19.7158 17.8633 19.8118 17.8359C20.1631 17.7333 20.4381 17.6193 20.6368 17.4939C20.6967 17.4541 20.7545 17.411 20.8098 17.3649C20.8802 17.3054 20.936 17.2305 20.9728 17.1459V17.1439Z" fill="white"/>
</svg>
