<svg width="24" height="24" viewBox="0 0 24 24" fill="none" xmlns="http://www.w3.org/2000/svg">
<path d="M15.0674 3.5C15.1701 4.47703 15.5713 5.40312 16.2236 6.14844C16.9844 7.02599 17.8905 7.43835 18.5996 7.63086C18.8825 7.70765 19.136 7.74927 19.3398 7.77246V9.87207C18.0789 9.78207 16.8641 9.34469 15.832 8.60352L15.04 8.03516V15.2998C15.04 18.1741 12.7137 20.4998 9.85059 20.5C7.1748 20.5 4.66016 18.3322 4.66016 15.2998C4.66027 12.3258 7.16566 9.96496 10.1299 10.1172V12.2129C8.33855 12.0453 6.75988 13.4705 6.75977 15.2998C6.75977 17.0182 8.16609 18.399 9.85938 18.3994H9.86035C10.6614 18.3998 11.4314 18.0896 12.0078 17.5332C12.5843 16.9767 12.9224 16.2177 12.9502 15.417V3.5H15.0674Z" stroke="white"/>
</svg>
