<svg width="24" height="24" viewBox="0 0 24 24" fill="none" xmlns="http://www.w3.org/2000/svg">
<g clip-path="url(#clip0_1322_1262)">
<path d="M17.7862 8.64166C19.5373 9.74607 21.6825 10.3959 23.9993 10.3959V6.46237C23.5608 6.46253 23.1235 6.42214 22.6945 6.34188V9.43813C20.3778 9.43813 18.2329 8.78839 16.4815 7.68406V15.7113C16.4815 19.727 12.7919 22.9821 8.24088 22.9821C6.54279 22.9821 4.96441 22.5291 3.65332 21.7523C5.14976 23.1023 7.23663 23.9398 9.54532 23.9398C14.0967 23.9398 17.7864 20.6847 17.7864 16.6688V8.64166H17.7862ZM19.3959 4.67322C18.501 3.81062 17.9134 2.69586 17.7862 1.46342V0.95752H16.5498C16.861 2.52389 17.9227 3.8621 19.3959 4.67322ZM6.53182 18.6708C6.03179 18.0925 5.76152 17.3849 5.76279 16.6573C5.76279 14.8207 7.45038 13.3316 9.53248 13.3316C9.92044 13.3314 10.3061 13.384 10.6759 13.4874V9.46593C10.2438 9.41371 9.80763 9.39145 9.37169 9.39964V12.5297C9.00168 12.4263 8.61581 12.3737 8.22766 12.374C6.14566 12.374 4.45816 13.863 4.45816 15.6998C4.45816 16.9986 5.30163 18.1231 6.53182 18.6708Z" fill="#FF004F"/>
<path d="M16.4815 7.68397C18.233 8.78831 20.3778 9.43804 22.6945 9.43804V6.34179C21.4013 6.09873 20.2565 5.50254 19.3958 4.67322C17.9225 3.86202 16.861 2.52381 16.5498 0.95752H13.302V16.6687C13.2946 18.5003 11.6099 19.9833 9.53228 19.9833C8.30809 19.9833 7.22041 19.4685 6.53163 18.6708C5.30163 18.1231 4.45806 16.9985 4.45806 15.6999C4.45806 13.8632 6.14556 12.3741 8.22756 12.3741C8.62647 12.3741 9.01094 12.4289 9.37159 12.5298V9.39973C4.90047 9.48124 1.30469 12.7045 1.30469 16.6687C1.30469 18.6477 2.20009 20.4416 3.65341 21.7524C4.9645 22.5291 6.54278 22.9822 8.24097 22.9822C12.7921 22.9822 16.4816 19.7269 16.4816 15.7113L16.4815 7.68397Z" fill="black"/>
<path d="M22.6945 6.34179V5.50477C21.5284 5.50627 20.3853 5.21813 19.3958 4.6733C20.2717 5.51927 21.4249 6.10265 22.6945 6.34196M16.5497 0.957517C16.52 0.807854 16.4973 0.657193 16.4814 0.505903V0H11.997V15.7113C11.9899 17.5428 10.3052 19.0258 8.2275 19.0258C7.63849 19.0266 7.05754 18.905 6.53156 18.671C7.22034 19.4686 8.30803 19.9833 9.53222 19.9833C11.6097 19.9833 13.2946 18.5004 13.3019 16.6688V0.9576L16.5497 0.957517ZM9.37181 9.39972V8.5085C8.99708 8.46333 8.6193 8.44072 8.24109 8.4408C3.68953 8.4408 0 11.696 0 15.7113C0 18.2287 1.45003 20.4473 3.65353 21.7524C2.20022 20.4416 1.30481 18.6476 1.30481 16.6687C1.30481 12.7046 4.9005 9.48124 9.37181 9.39972Z" fill="#00F2EA"/>
</g>
<defs>
<clipPath id="clip0_1322_1262">
<rect width="24" height="24" fill="white"/>
</clipPath>
</defs>
</svg>
