<svg width="24" height="24" viewBox="0 0 24 24" fill="none" xmlns="http://www.w3.org/2000/svg">
<path d="M17 6.5H17.5M3 9.4C3 7.16 3 6.04 3.436 5.184C3.81949 4.43139 4.43139 3.81949 5.184 3.436C6.04 3 7.16 3 9.4 3H14.6C16.84 3 17.96 3 18.816 3.436C19.5686 3.81949 20.1805 4.43139 20.564 5.184C21 6.04 21 7.16 21 9.4V14.6C21 16.84 21 17.96 20.564 18.816C20.1805 19.5686 19.5686 20.1805 18.816 20.564C17.96 21 16.84 21 14.6 21H9.4C7.16 21 6.04 21 5.184 20.564C4.43139 20.1805 3.81949 19.5686 3.436 18.816C3 17.96 3 16.84 3 14.6V9.4Z" stroke="white" stroke-width="1.5" stroke-linecap="round" stroke-linejoin="round"/>
<path d="M15.4618 11.4871C15.5292 11.9418 15.5064 12.4053 15.3946 12.8512C15.2828 13.297 15.0843 13.7165 14.8104 14.0857C14.5366 14.4548 14.1926 14.7664 13.7983 15.0027C13.404 15.2389 12.967 15.3952 12.5123 15.4626C12.0576 15.5299 11.5941 15.5071 11.1482 15.3953C10.7024 15.2835 10.2829 15.0851 9.91372 14.8112C9.16817 14.258 8.67289 13.4314 8.53683 12.5131C8.40078 11.5948 8.63509 10.66 9.18823 9.91446C9.74137 9.1689 10.568 8.67362 11.4863 8.53757C12.4046 8.40151 13.3394 8.63583 14.0849 9.18896C14.8305 9.7421 15.3258 10.5688 15.4618 11.4871Z" stroke="white" stroke-width="1.5" stroke-linecap="round" stroke-linejoin="round"/>
</svg>
