<svg width="24" height="24" viewBox="0 0 24 24" fill="none" xmlns="http://www.w3.org/2000/svg">
<path d="M15.5249 8.93457C16.3381 8.61554 17.2852 8.50637 18.1792 8.6582C19.0699 8.80957 19.892 9.21592 20.4917 9.91211C21.0888 10.6055 21.4995 11.6267 21.4995 13.0703V20.5H18.5503V14.4297C18.5502 13.3297 18.2202 12.4691 17.6685 11.8848C17.1171 11.3011 16.3788 11.0315 15.647 11.0576C14.1656 11.1105 12.7799 12.3511 12.7798 14.4297V20.5H9.84033V8.98047H12.8071L12.7798 10.1484L13.7183 10.4004C14.0633 9.77055 14.7093 9.25466 15.5249 8.93457ZM6.49951 8.98047V20.5H3.49951V8.98047H6.49951ZM4.94092 3.49902C5.33864 3.49928 5.72036 3.65711 6.00146 3.93848C6.28263 4.21992 6.44014 4.60218 6.43994 5C6.43968 5.39772 6.28185 5.77944 6.00049 6.06055C5.71904 6.34171 5.33679 6.49922 4.93896 6.49902C4.54124 6.49876 4.15952 6.34094 3.87842 6.05957C3.59725 5.77813 3.43974 5.39587 3.43994 4.99805C3.4402 4.60032 3.59803 4.21861 3.87939 3.9375C4.16084 3.65634 4.54309 3.49882 4.94092 3.49902Z" stroke="white"/>
</svg>
