<svg width="24" height="24" viewBox="0 0 24 24" fill="none" xmlns="http://www.w3.org/2000/svg">
<g clip-path="url(#clip0_1351_3130)">
<path d="M18.375 0H5.625C2.5184 0 0 2.5184 0 5.625V18.375C0 21.4816 2.5184 24 5.625 24H18.375C21.4816 24 24 21.4816 24 18.375V5.625C24 2.5184 21.4816 0 18.375 0Z" fill="white"/>
<path d="M18.375 0H5.625C2.5184 0 0 2.5184 0 5.625V18.375C0 21.4816 2.5184 24 5.625 24H18.375C21.4816 24 24 21.4816 24 18.375V5.625C24 2.5184 21.4816 0 18.375 0Z" fill="#1D9BF0"/>
<path d="M18.7099 8.56978C18.7202 8.71856 18.7202 8.86734 18.7202 9.01753C18.7202 13.5922 15.2376 18.8683 8.86941 18.8683V18.8655C6.98814 18.8682 5.14585 18.3294 3.5625 17.3135C3.83619 17.3463 4.11088 17.3629 4.38656 17.3634C5.94582 17.3647 7.46022 16.8417 8.68641 15.8785C7.96396 15.8648 7.26385 15.6257 6.68394 15.1947C6.10402 14.7636 5.67329 14.1621 5.45194 13.4743C5.97063 13.5744 6.50537 13.554 7.01494 13.4147C5.39981 13.0883 4.23778 11.6692 4.23778 10.0211V9.97725C4.71927 10.2454 5.25814 10.3941 5.80903 10.4106C4.28784 9.39384 3.81891 7.37006 4.73747 5.78775C5.6066 6.8574 6.69105 7.73223 7.92036 8.35539C9.14968 8.97855 10.4963 9.3361 11.8729 9.40481C11.7356 8.81403 11.7559 8.19758 11.9317 7.61709C12.1074 7.03661 12.4325 6.51245 12.8744 6.09703C14.2688 4.78621 16.4619 4.85343 17.7728 6.24712C18.5481 6.09406 19.2916 5.80982 19.9713 5.40665C19.7128 6.20828 19.172 6.88873 18.4493 7.3214C19.1356 7.24047 19.8059 7.05676 20.4375 6.77643C19.9729 7.47227 19.3879 8.07951 18.7099 8.56978Z" fill="white"/>
</g>
<defs>
<clipPath id="clip0_1351_3130">
<rect width="24" height="24" fill="white"/>
</clipPath>
</defs>
</svg>
